M48
; DRILL file KiCad 10.0.6 date 2026-09-19T01:20:35
; FORMAT={-:-/ absolute / metric / decimal}
; #@! TF.CreationDate,2026-09-19T01:20:35+08:00
; #@! TF.GenerationSoftware,Kicad,Pcbnew,10.0.6
; #@! TF.FileFunction,MixedPlating,1,2
FMAT,2
METRIC
; #@! TA.AperFunction,Plated,PTH,ViaDrill
T1C0.300
; #@! TA.AperFunction,Plated,PTH,ComponentDrill
T2C0.300
; #@! TA.AperFunction,Plated,PTH,ViaDrill
T3C0.350
; #@! TA.AperFunction,Plated,PTH,ViaDrill
T4C0.400
; #@! TA.AperFunction,Plated,PTH,ViaDrill
T5C0.450
; #@! TA.AperFunction,Plated,PTH,ComponentDrill
T6C0.600
; #@! TA.AperFunction,Plated,PTH,ComponentDrill
T7C0.750
; #@! TA.AperFunction,Plated,PTH,ComponentDrill
T8C1.000
; #@! TA.AperFunction,NonPlated,NPTH,ComponentDrill
T9C0.650
; #@! TA.AperFunction,NonPlated,NPTH,ComponentDrill
T10C2.200
%
G90
G05
T1
X16.65Y-22.635
X17.9Y-22.635
X20.7Y-21.365
X20.7Y-22.635
T2
X42.1Y-12.76
X42.1Y-14.16
X42.8Y-12.06
X42.8Y-13.46
X42.8Y-14.86
X43.5Y-12.76
X43.5Y-14.16
X44.2Y-12.06
X44.2Y-13.46
X44.2Y-14.86
X44.9Y-12.76
X44.9Y-14.16
T3
X5.98Y-12.01
X10.429Y-9.163
X11.178Y-7.32
X14.8Y-45.15
X16.311Y-10.393
X17.3Y-45.15
X18.276Y-17.681
X19.341Y-9.794
X20.3Y-29.3
X20.5Y-32.1
X21.0Y-26.445
X22.6Y-38.3
X25.0Y-31.0
X26.136Y-10.484
X26.778Y-43.161
X26.8Y-22.635
X27.379Y-44.656
X27.936Y-13.375
X28.0Y-20.0
X28.241Y-23.117
X28.534Y-44.885
X28.797Y-50.671
X28.9Y-34.0
X29.096Y-6.175
X29.174Y-25.664
X29.239Y-26.717
X29.82Y-33.75
X29.821Y-31.773
X30.0Y-45.0
X30.049Y-6.783
X30.215Y-41.214
X30.334Y-22.69
X30.4Y-32.5
X30.95Y-11.0
X31.016Y-51.393
X31.173Y-42.908
X31.9Y-10.0
X32.279Y-25.485
X32.403Y-12.949
X32.519Y-43.959
X32.722Y-20.374
X33.231Y-23.62
X33.299Y-27.778
X33.487Y-8.1
X33.6Y-26.8
X33.609Y-9.843
X34.45Y-17.008
X35.555Y-28.329
X35.951Y-34.908
X35.959Y-43.66
X36.007Y-33.843
X36.248Y-40.198
X36.508Y-41.292
X36.54Y-53.9
X37.053Y-34.546
X37.572Y-19.825
X37.573Y-10.935
X37.849Y-40.008
X38.714Y-41.292
X39.422Y-9.55
X39.554Y-39.992
X39.697Y-41.121
X39.715Y-30.656
X39.873Y-44.555
X40.623Y-38.07
X40.624Y-33.803
X40.646Y-16.207
X41.592Y-22.19
X41.707Y-44.161
X42.345Y-19.675
X42.5Y-26.5
X42.52Y-44.65
X42.799Y-33.803
X43.088Y-20.802
X43.1Y-22.32
X43.572Y-44.352
X45.001Y-16.566
X45.001Y-34.33
X45.643Y-45.816
X46.237Y-11.366
X47.483Y-35.385
X47.801Y-8.365
X47.804Y-45.572
X49.0Y-9.5
X49.734Y-31.813
X50.024Y-7.938
X50.051Y-27.104
X50.249Y-21.676
X50.699Y-47.228
X51.477Y-22.191
X51.76Y-37.393
X52.363Y-13.822
X52.39Y-20.888
X52.423Y-7.824
X52.426Y-11.098
X52.434Y-17.386
X52.448Y-15.9
X53.736Y-44.118
X54.089Y-54.065
X55.06Y-12.974
X55.286Y-14.626
X55.62Y-5.584
X56.047Y-31.068
X57.083Y-7.143
X57.309Y-12.695
X58.8Y-24.0
X58.854Y-9.114
X58.931Y-11.461
X59.05Y-29.6
X59.913Y-48.939
X60.0Y-6.3
X60.102Y-36.967
X60.419Y-14.898
X61.096Y-34.374
X61.344Y-27.183
X61.865Y-19.414
X61.911Y-20.526
X61.948Y-37.553
X61.957Y-39.5
X62.101Y-13.847
X62.118Y-1.231
X64.171Y-14.938
X64.455Y-19.405
X64.492Y-20.95
X64.632Y-34.082
X64.9Y-12.08
X66.35Y-19.4
X66.787Y-42.862
X67.029Y-29.9
X67.5Y-31.93
X68.357Y-36.796
X68.383Y-35.856
X69.416Y-25.512
X69.574Y-44.764
X70.0Y-30.0
X70.251Y-39.75
X71.288Y-35.61
X72.0Y-15.0
X72.948Y-10.553
X73.707Y-32.205
X74.064Y-44.488
X74.256Y-7.196
X74.333Y-36.768
X74.656Y-42.731
X75.35Y-9.28
X76.628Y-42.342
X77.129Y-27.084
X78.699Y-38.713
X78.734Y-29.645
T4
X8.3Y-39.3
X10.6Y-38.2
X13.5Y-40.0
X67.0Y-7.4
T5
X67.53Y-12.98
T7
X60.0Y-10.2
X62.0Y-10.2
X62.0Y-51.0
X64.0Y-3.5
X64.0Y-10.2
X64.0Y-51.0
X66.0Y-3.5
X66.0Y-10.2
X68.0Y-3.5
X70.0Y-3.5
X72.0Y-3.5
X74.0Y-3.5
X76.0Y-3.5
X78.0Y-3.5
T8
X4.0Y-30.0
X4.0Y-32.54
X4.0Y-35.08
X4.0Y-37.62
X8.0Y-51.0
X10.54Y-51.0
X13.08Y-51.0
X15.62Y-51.0
X18.16Y-51.0
X34.0Y-50.0
X34.0Y-52.54
X36.54Y-50.0
X36.54Y-52.54
X39.08Y-50.0
X39.08Y-52.54
X41.62Y-50.0
X41.62Y-52.54
X44.16Y-50.0
X44.16Y-52.54
X46.7Y-50.0
X46.7Y-52.54
X49.24Y-50.0
X49.24Y-52.54
X51.78Y-50.0
X51.78Y-52.54
X54.32Y-50.0
X54.32Y-52.54
X56.86Y-50.0
X56.86Y-52.54
T9
X71.11Y-47.4
X76.89Y-47.4
T10
X4.0Y-4.0
X4.0Y-51.0
X86.0Y-4.0
X86.0Y-51.0
T6
X69.68Y-46.32G85X69.68Y-47.42
G05
X69.68Y-50.75G85X69.68Y-51.35
G05
X78.32Y-46.32G85X78.32Y-47.42
G05
X78.32Y-50.75G85X78.32Y-51.35
G05
M30
