%TF.GenerationSoftware,KiCad,Pcbnew,10.0.6*%
%TF.CreationDate,2026-09-19T01:20:35+08:00*%
%TF.ProjectId,s3.1,73332e31-2e6b-4696-9361-645f70636258,s3.1*%
%TF.SameCoordinates,Original*%
%TF.FileFunction,Other,User*%
%FSLAX46Y46*%
G04 Gerber Fmt 4.6, Leading zero omitted, Abs format (unit mm)*
G04 Created by KiCad (PCBNEW 10.0.6) date 2026-09-19 01:20:35*
%MOMM*%
%LPD*%
G01*
G04 APERTURE LIST*
%ADD10C,0.050000*%
%ADD11C,0.150000*%
G04 APERTURE END LIST*
%TO.C,D1*%
D10*
X63650000Y-40850000D02*
X63650000Y-43150000D01*
X63650000Y-40850000D02*
X68350000Y-40850000D01*
X68350000Y-40850000D02*
X68350000Y-43150000D01*
X68350000Y-43150000D02*
X63650000Y-43150000D01*
%TO.C,MH1*%
D11*
X5500000Y-4000000D02*
G75*
G02*
X2500000Y-4000000I-1500000J0D01*
G01*
X2500000Y-4000000D02*
G75*
G02*
X5500000Y-4000000I1500000J0D01*
G01*
%TO.C,MH2*%
X87500000Y-4000000D02*
G75*
G02*
X84500000Y-4000000I-1500000J0D01*
G01*
X84500000Y-4000000D02*
G75*
G02*
X87500000Y-4000000I1500000J0D01*
G01*
%TO.C,MH3*%
X5500000Y-51000000D02*
G75*
G02*
X2500000Y-51000000I-1500000J0D01*
G01*
X2500000Y-51000000D02*
G75*
G02*
X5500000Y-51000000I1500000J0D01*
G01*
%TO.C,MH4*%
X87500000Y-51000000D02*
G75*
G02*
X84500000Y-51000000I-1500000J0D01*
G01*
X84500000Y-51000000D02*
G75*
G02*
X87500000Y-51000000I1500000J0D01*
G01*
%TO.C,J2*%
D10*
X6850000Y-49850000D02*
X19310000Y-49850000D01*
X19310000Y-52150000D01*
X6850000Y-52150000D01*
X6850000Y-49850000D01*
%TO.C,R2*%
X12180000Y-46300000D02*
X13980000Y-46300000D01*
X13980000Y-49700000D01*
X12180000Y-49700000D01*
X12180000Y-46300000D01*
%TO.C,R1*%
X14720000Y-46300000D02*
X16520000Y-46300000D01*
X16520000Y-49700000D01*
X14720000Y-49700000D01*
X14720000Y-46300000D01*
%TO.C,C11*%
X9500000Y-17300000D02*
X12500000Y-17300000D01*
X12500000Y-18800000D01*
X9500000Y-18800000D01*
X9500000Y-17300000D01*
%TO.C,C10*%
X9500000Y-19200000D02*
X12500000Y-19200000D01*
X12500000Y-20700000D01*
X9500000Y-20700000D01*
X9500000Y-19200000D01*
%TO.C,C5*%
X12550000Y-17300000D02*
X14350000Y-17300000D01*
X14350000Y-20700000D01*
X12550000Y-20700000D01*
X12550000Y-17300000D01*
%TO.C,U1*%
X14400000Y-17000000D02*
X21600000Y-17000000D01*
X21600000Y-27000000D01*
X14400000Y-27000000D01*
X14400000Y-17000000D01*
%TO.C,C4*%
X10100000Y-21600000D02*
X11900000Y-21600000D01*
X11900000Y-25000000D01*
X10100000Y-25000000D01*
X10100000Y-21600000D01*
%TO.C,TP7*%
X12100000Y-26400000D02*
G75*
G02*
X9900000Y-26400000I-1100000J0D01*
G01*
X9900000Y-26400000D02*
G75*
G02*
X12100000Y-26400000I1100000J0D01*
G01*
%TO.C,C1*%
X21800000Y-18045000D02*
X24800000Y-18045000D01*
X24800000Y-19605000D01*
X21800000Y-19605000D01*
X21800000Y-18045000D01*
%TO.C,C2*%
X21800000Y-16120000D02*
X24800000Y-16120000D01*
X24800000Y-17680000D01*
X21800000Y-17680000D01*
X21800000Y-16120000D01*
%TO.C,C3*%
X21800000Y-14270000D02*
X24800000Y-14270000D01*
X24800000Y-15830000D01*
X21800000Y-15830000D01*
X21800000Y-14270000D01*
%TO.C,TP8*%
X21700000Y-15300000D02*
G75*
G02*
X19500000Y-15300000I-1100000J0D01*
G01*
X19500000Y-15300000D02*
G75*
G02*
X21700000Y-15300000I1100000J0D01*
G01*
%TO.C,U7*%
X19650000Y-14200000D02*
X19650000Y-9200000D01*
X19650000Y-14200000D02*
X24750000Y-14200000D01*
X24750000Y-9200000D02*
X19650000Y-9200000D01*
X24750000Y-9200000D02*
X24750000Y-14200000D01*
%TO.C,C20*%
X16000000Y-12020000D02*
X19000000Y-12020000D01*
X19000000Y-13580000D01*
X16000000Y-13580000D01*
X16000000Y-12020000D01*
%TO.C,C22*%
X25400000Y-10920000D02*
X28400000Y-10920000D01*
X28400000Y-12480000D01*
X25400000Y-12480000D01*
X25400000Y-10920000D01*
%TO.C,J11*%
X2850000Y-28850000D02*
X5150000Y-28850000D01*
X5150000Y-39170000D01*
X2850000Y-39170000D01*
X2850000Y-28850000D01*
%TO.C,R22*%
X7700000Y-34300000D02*
X10700000Y-34300000D01*
X10700000Y-35860000D01*
X7700000Y-35860000D01*
X7700000Y-34300000D01*
%TO.C,R23*%
X7700000Y-36840000D02*
X10700000Y-36840000D01*
X10700000Y-38400000D01*
X7700000Y-38400000D01*
X7700000Y-36840000D01*
%TO.C,C27*%
X12100000Y-21000000D02*
X13900000Y-21000000D01*
X13900000Y-24400000D01*
X12100000Y-24400000D01*
X12100000Y-21000000D01*
%TO.C,C28*%
X7900000Y-40620000D02*
X10900000Y-40620000D01*
X10900000Y-42180000D01*
X7900000Y-42180000D01*
X7900000Y-40620000D01*
%TO.C,C29*%
X9200000Y-38720000D02*
X12200000Y-38720000D01*
X12200000Y-40280000D01*
X9200000Y-40280000D01*
X9200000Y-38720000D01*
%TO.C,U3*%
X20550000Y-30400000D02*
X23450000Y-30400000D01*
X23450000Y-32600000D01*
X20550000Y-32600000D01*
X20550000Y-30400000D01*
%TO.C,C6*%
X19300000Y-34800000D02*
X21100000Y-34800000D01*
X21100000Y-38200000D01*
X19300000Y-38200000D01*
X19300000Y-34800000D01*
%TO.C,C17*%
X21600000Y-34820000D02*
X24600000Y-34820000D01*
X24600000Y-36380000D01*
X21600000Y-36380000D01*
X21600000Y-34820000D01*
%TO.C,R13*%
X21600000Y-36820000D02*
X24600000Y-36820000D01*
X24600000Y-38380000D01*
X21600000Y-38380000D01*
X21600000Y-36820000D01*
%TO.C,R14*%
X21600000Y-38920000D02*
X24600000Y-38920000D01*
X24600000Y-40480000D01*
X21600000Y-40480000D01*
X21600000Y-38920000D01*
%TO.C,TP3*%
X7100000Y-6500000D02*
G75*
G02*
X4900000Y-6500000I-1100000J0D01*
G01*
X4900000Y-6500000D02*
G75*
G02*
X7100000Y-6500000I1100000J0D01*
G01*
%TO.C,TP4*%
X10100000Y-6500000D02*
G75*
G02*
X7900000Y-6500000I-1100000J0D01*
G01*
X7900000Y-6500000D02*
G75*
G02*
X10100000Y-6500000I1100000J0D01*
G01*
%TO.C,TP5*%
X13100000Y-6500000D02*
G75*
G02*
X10900000Y-6500000I-1100000J0D01*
G01*
X10900000Y-6500000D02*
G75*
G02*
X13100000Y-6500000I1100000J0D01*
G01*
%TO.C,TP6*%
X16100000Y-6500000D02*
G75*
G02*
X13900000Y-6500000I-1100000J0D01*
G01*
X13900000Y-6500000D02*
G75*
G02*
X16100000Y-6500000I1100000J0D01*
G01*
%TO.C,TP9*%
X7100000Y-10000000D02*
G75*
G02*
X4900000Y-10000000I-1100000J0D01*
G01*
X4900000Y-10000000D02*
G75*
G02*
X7100000Y-10000000I1100000J0D01*
G01*
%TO.C,TP10*%
X10100000Y-10000000D02*
G75*
G02*
X7900000Y-10000000I-1100000J0D01*
G01*
X7900000Y-10000000D02*
G75*
G02*
X10100000Y-10000000I1100000J0D01*
G01*
%TO.C,TP11*%
X13100000Y-10000000D02*
G75*
G02*
X10900000Y-10000000I-1100000J0D01*
G01*
X10900000Y-10000000D02*
G75*
G02*
X13100000Y-10000000I1100000J0D01*
G01*
%TO.C,TP12*%
X16100000Y-10000000D02*
G75*
G02*
X13900000Y-10000000I-1100000J0D01*
G01*
X13900000Y-10000000D02*
G75*
G02*
X16100000Y-10000000I1100000J0D01*
G01*
%TO.C,TP13*%
X21400000Y-29300000D02*
G75*
G02*
X19200000Y-29300000I-1100000J0D01*
G01*
X19200000Y-29300000D02*
G75*
G02*
X21400000Y-29300000I1100000J0D01*
G01*
%TO.C,C12*%
X32000000Y-6250000D02*
X35000000Y-6250000D01*
X35000000Y-7750000D01*
X32000000Y-7750000D01*
X32000000Y-6250000D01*
%TO.C,C13*%
X32500000Y-25720000D02*
X35500000Y-25720000D01*
X35500000Y-27280000D01*
X32500000Y-27280000D01*
X32500000Y-25720000D01*
%TO.C,C25*%
X58000000Y-31020000D02*
X61000000Y-31020000D01*
X61000000Y-32580000D01*
X58000000Y-32580000D01*
X58000000Y-31020000D01*
%TO.C,R5*%
X32000000Y-10020000D02*
X35000000Y-10020000D01*
X35000000Y-11580000D01*
X32000000Y-11580000D01*
X32000000Y-10020000D01*
%TO.C,C14*%
X32600000Y-12100000D02*
X34400000Y-12100000D01*
X34400000Y-15500000D01*
X32600000Y-15500000D01*
X32600000Y-12100000D01*
%TO.C,R6*%
X57000000Y-15220000D02*
X60000000Y-15220000D01*
X60000000Y-16780000D01*
X57000000Y-16780000D01*
X57000000Y-15220000D01*
%TO.C,J7*%
X61550000Y-1300000D02*
X80450000Y-1300000D01*
X80450000Y-6800000D01*
X61550000Y-6800000D01*
X61550000Y-1300000D01*
%TO.C,J8*%
X57550000Y-8000000D02*
X67900000Y-8000000D01*
X67900000Y-13500000D01*
X57550000Y-13500000D01*
X57550000Y-8000000D01*
%TO.C,R21*%
X76000000Y-7620000D02*
X79000000Y-7620000D01*
X79000000Y-9180000D01*
X76000000Y-9180000D01*
X76000000Y-7620000D01*
%TO.C,C26*%
X71500000Y-7620000D02*
X74500000Y-7620000D01*
X74500000Y-9180000D01*
X71500000Y-9180000D01*
X71500000Y-7620000D01*
%TO.C,R15*%
X68250000Y-10930000D02*
X71250000Y-10930000D01*
X71250000Y-12490000D01*
X68250000Y-12490000D01*
X68250000Y-10930000D01*
%TO.C,C18*%
X64700000Y-13920000D02*
X67700000Y-13920000D01*
X67700000Y-15480000D01*
X64700000Y-15480000D01*
X64700000Y-13920000D01*
%TO.C,R16*%
X71740000Y-10940000D02*
X74740000Y-10940000D01*
X74740000Y-12500000D01*
X71740000Y-12500000D01*
X71740000Y-10940000D01*
%TO.C,C19*%
X68000000Y-13220000D02*
X71000000Y-13220000D01*
X71000000Y-14780000D01*
X68000000Y-14780000D01*
X68000000Y-13220000D01*
%TO.C,U2*%
X30750000Y-31750000D02*
X33250000Y-31750000D01*
X33250000Y-34250000D01*
X30750000Y-34250000D01*
X30750000Y-31750000D01*
%TO.C,C7*%
X27500000Y-28720000D02*
X30500000Y-28720000D01*
X30500000Y-30280000D01*
X27500000Y-30280000D01*
X27500000Y-28720000D01*
%TO.C,C8*%
X27500000Y-35720000D02*
X30500000Y-35720000D01*
X30500000Y-37280000D01*
X27500000Y-37280000D01*
X27500000Y-35720000D01*
%TO.C,R3*%
X48500000Y-27220000D02*
X51500000Y-27220000D01*
X51500000Y-28780000D01*
X48500000Y-28780000D01*
X48500000Y-27220000D01*
%TO.C,R4*%
X48500000Y-29720000D02*
X51500000Y-29720000D01*
X51500000Y-31280000D01*
X48500000Y-31280000D01*
X48500000Y-29720000D01*
%TO.C,BZ1*%
X57600000Y-19600000D02*
X57600000Y-28400000D01*
X57600000Y-19600000D02*
X66400000Y-19600000D01*
X66400000Y-19600000D02*
X66400000Y-28400000D01*
X66400000Y-28400000D02*
X57600000Y-28400000D01*
%TO.C,D2*%
X67150000Y-20850000D02*
X67150000Y-23150000D01*
X67150000Y-20850000D02*
X71850000Y-20850000D01*
X71850000Y-20850000D02*
X71850000Y-23150000D01*
X71850000Y-23150000D02*
X67150000Y-23150000D01*
%TO.C,Q2*%
X53570000Y-26500000D02*
X54600000Y-26500000D01*
X53570000Y-27610000D02*
X53570000Y-26500000D01*
X53570000Y-28390000D02*
X54600000Y-28390000D01*
X53570000Y-29500000D02*
X53570000Y-28390000D01*
X54600000Y-26300000D02*
X56400000Y-26300000D01*
X54600000Y-26500000D02*
X54600000Y-26300000D01*
X54600000Y-27610000D02*
X53570000Y-27610000D01*
X54600000Y-28390000D02*
X54600000Y-27610000D01*
X54600000Y-29500000D02*
X53570000Y-29500000D01*
X54600000Y-29700000D02*
X54600000Y-29500000D01*
X56400000Y-26300000D02*
X56400000Y-27450000D01*
X56400000Y-27450000D02*
X57430000Y-27450000D01*
X56400000Y-28550000D02*
X56400000Y-29700000D01*
X56400000Y-29700000D02*
X54600000Y-29700000D01*
X57430000Y-27450000D02*
X57430000Y-28550000D01*
X57430000Y-28550000D02*
X56400000Y-28550000D01*
%TO.C,R17*%
X50500000Y-25220000D02*
X53500000Y-25220000D01*
X53500000Y-26780000D01*
X50500000Y-26780000D01*
X50500000Y-25220000D01*
%TO.C,R18*%
X52500000Y-29720000D02*
X55500000Y-29720000D01*
X55500000Y-31280000D01*
X52500000Y-31280000D01*
X52500000Y-29720000D01*
%TO.C,U5*%
X61950000Y-30500000D02*
X62950000Y-30500000D01*
X61950000Y-33500000D02*
X61950000Y-30500000D01*
X62950000Y-30300000D02*
X65050000Y-30300000D01*
X62950000Y-30500000D02*
X62950000Y-30300000D01*
X62950000Y-33500000D02*
X61950000Y-33500000D01*
X62950000Y-33700000D02*
X62950000Y-33500000D01*
X65050000Y-30300000D02*
X65050000Y-30500000D01*
X65050000Y-30500000D02*
X66050000Y-30500000D01*
X65050000Y-33500000D02*
X65050000Y-33700000D01*
X65050000Y-33700000D02*
X62950000Y-33700000D01*
X66050000Y-30500000D02*
X66050000Y-33500000D01*
X66050000Y-33500000D02*
X65050000Y-33500000D01*
%TO.C,R10*%
X65000000Y-34220000D02*
X68000000Y-34220000D01*
X68000000Y-35780000D01*
X65000000Y-35780000D01*
X65000000Y-34220000D01*
%TO.C,R11*%
X58500000Y-28820000D02*
X61500000Y-28820000D01*
X61500000Y-30380000D01*
X58500000Y-30380000D01*
X58500000Y-28820000D01*
%TO.C,R12*%
X62500000Y-38220000D02*
X65500000Y-38220000D01*
X65500000Y-39780000D01*
X62500000Y-39780000D01*
X62500000Y-38220000D01*
%TO.C,C16*%
X58500000Y-35220000D02*
X61500000Y-35220000D01*
X61500000Y-36780000D01*
X58500000Y-36780000D01*
X58500000Y-35220000D01*
%TO.C,C15*%
X77800000Y-42720000D02*
X80800000Y-42720000D01*
X80800000Y-44280000D01*
X77800000Y-44280000D01*
X77800000Y-42720000D01*
%TO.C,J6*%
X59550000Y-48800000D02*
X66450000Y-48800000D01*
X66450000Y-54300000D01*
X59550000Y-54300000D01*
X59550000Y-48800000D01*
%TO.C,U4*%
X33000000Y7750000D02*
X33000000Y-4250000D01*
X33000000Y-4250000D02*
X35250000Y-4250000D01*
X35250000Y-24450000D02*
X35250000Y-4250000D01*
X35250000Y-24450000D02*
X54750000Y-24450000D01*
X54750000Y-4250000D02*
X54750000Y-24450000D01*
X54750000Y-4250000D02*
X57000000Y-4250000D01*
X57000000Y7750000D02*
X33000000Y7750000D01*
X57000000Y-4250000D02*
X57000000Y7750000D01*
%TO.C,Q1*%
X66070000Y-36500000D02*
X67100000Y-36500000D01*
X66070000Y-37610000D02*
X66070000Y-36500000D01*
X66070000Y-38390000D02*
X67100000Y-38390000D01*
X66070000Y-39500000D02*
X66070000Y-38390000D01*
X67100000Y-36300000D02*
X68900000Y-36300000D01*
X67100000Y-36500000D02*
X67100000Y-36300000D01*
X67100000Y-37610000D02*
X66070000Y-37610000D01*
X67100000Y-38390000D02*
X67100000Y-37610000D01*
X67100000Y-39500000D02*
X66070000Y-39500000D01*
X67100000Y-39700000D02*
X67100000Y-39500000D01*
X68900000Y-36300000D02*
X68900000Y-37450000D01*
X68900000Y-37450000D02*
X69930000Y-37450000D01*
X68900000Y-38550000D02*
X68900000Y-39700000D01*
X68900000Y-39700000D02*
X67100000Y-39700000D01*
X69930000Y-37450000D02*
X69930000Y-38550000D01*
X69930000Y-38550000D02*
X68900000Y-38550000D01*
%TO.C,U6*%
X71950000Y-32500000D02*
X72950000Y-32500000D01*
X71950000Y-35500000D02*
X71950000Y-32500000D01*
X72950000Y-32300000D02*
X75050000Y-32300000D01*
X72950000Y-32500000D02*
X72950000Y-32300000D01*
X72950000Y-35500000D02*
X71950000Y-35500000D01*
X72950000Y-35700000D02*
X72950000Y-35500000D01*
X75050000Y-32300000D02*
X75050000Y-32500000D01*
X75050000Y-32500000D02*
X76050000Y-32500000D01*
X75050000Y-33610000D02*
X75050000Y-34390000D01*
X75050000Y-34390000D02*
X76050000Y-34390000D01*
X75050000Y-35500000D02*
X75050000Y-35700000D01*
X75050000Y-35700000D02*
X72950000Y-35700000D01*
X76050000Y-32500000D02*
X76050000Y-33610000D01*
X76050000Y-33610000D02*
X75050000Y-33610000D01*
X76050000Y-34390000D02*
X76050000Y-35500000D01*
X76050000Y-35500000D02*
X75050000Y-35500000D01*
%TO.C,C21*%
X70500000Y-36220000D02*
X73500000Y-36220000D01*
X73500000Y-37780000D01*
X70500000Y-37780000D01*
X70500000Y-36220000D01*
%TO.C,C9*%
X75000000Y-36220000D02*
X78000000Y-36220000D01*
X78000000Y-37780000D01*
X75000000Y-37780000D01*
X75000000Y-36220000D01*
%TO.C,J5*%
X68680000Y-44730000D02*
X68680000Y-54150000D01*
X68680000Y-44730000D02*
X79320000Y-44730000D01*
X68680000Y-54150000D02*
X79320000Y-54150000D01*
X79320000Y-44730000D02*
X79320000Y-54150000D01*
%TO.C,R8*%
X72100000Y-40600000D02*
X73900000Y-40600000D01*
X73900000Y-44000000D01*
X72100000Y-44000000D01*
X72100000Y-40600000D01*
%TO.C,R9*%
X74850000Y-40600000D02*
X76650000Y-40600000D01*
X76650000Y-44000000D01*
X74850000Y-44000000D01*
X74850000Y-40600000D01*
%TO.C,U8*%
X76950000Y-39000000D02*
X77950000Y-39000000D01*
X76950000Y-42000000D02*
X76950000Y-39000000D01*
X77950000Y-38800000D02*
X80050000Y-38800000D01*
X77950000Y-39000000D02*
X77950000Y-38800000D01*
X77950000Y-42000000D02*
X76950000Y-42000000D01*
X77950000Y-42200000D02*
X77950000Y-42000000D01*
X80050000Y-38800000D02*
X80050000Y-39000000D01*
X80050000Y-39000000D02*
X81050000Y-39000000D01*
X80050000Y-42000000D02*
X80050000Y-42200000D01*
X80050000Y-42200000D02*
X77950000Y-42200000D01*
X81050000Y-39000000D02*
X81050000Y-42000000D01*
X81050000Y-42000000D02*
X80050000Y-42000000D01*
%TO.C,R20*%
X58500000Y-17750000D02*
X61500000Y-17750000D01*
X61500000Y-19250000D01*
X58500000Y-19250000D01*
X58500000Y-17750000D01*
%TO.C,R19*%
X63000000Y-17750000D02*
X66000000Y-17750000D01*
X66000000Y-19250000D01*
X63000000Y-19250000D01*
X63000000Y-17750000D01*
%TO.C,C24*%
X55600000Y-17300000D02*
X57400000Y-17300000D01*
X57400000Y-20700000D01*
X55600000Y-20700000D01*
X55600000Y-17300000D01*
%TO.C,C23*%
X69600000Y-25100000D02*
X71400000Y-25100000D01*
X71400000Y-28500000D01*
X69600000Y-28500000D01*
X69600000Y-25100000D01*
%TO.C,J10*%
X32350000Y-48350000D02*
X58510000Y-48350000D01*
X58510000Y-54190000D01*
X32350000Y-54190000D01*
X32350000Y-48350000D01*
%TO.C,R24*%
X33100000Y-44800000D02*
X34900000Y-44800000D01*
X34900000Y-48200000D01*
X33100000Y-48200000D01*
X33100000Y-44800000D01*
%TO.C,R25*%
X35640000Y-44800000D02*
X37440000Y-44800000D01*
X37440000Y-48200000D01*
X35640000Y-48200000D01*
X35640000Y-44800000D01*
%TO.C,R26*%
X38180000Y-44800000D02*
X39980000Y-44800000D01*
X39980000Y-48200000D01*
X38180000Y-48200000D01*
X38180000Y-44800000D01*
%TO.C,R27*%
X40720000Y-44800000D02*
X42520000Y-44800000D01*
X42520000Y-48200000D01*
X40720000Y-48200000D01*
X40720000Y-44800000D01*
%TO.C,R28*%
X43260000Y-44800000D02*
X45060000Y-44800000D01*
X45060000Y-48200000D01*
X43260000Y-48200000D01*
X43260000Y-44800000D01*
%TO.C,R29*%
X45800000Y-44800000D02*
X47600000Y-44800000D01*
X47600000Y-48200000D01*
X45800000Y-48200000D01*
X45800000Y-44800000D01*
%TO.C,R30*%
X48340000Y-44800000D02*
X50140000Y-44800000D01*
X50140000Y-48200000D01*
X48340000Y-48200000D01*
X48340000Y-44800000D01*
%TO.C,R31*%
X50880000Y-44800000D02*
X52680000Y-44800000D01*
X52680000Y-48200000D01*
X50880000Y-48200000D01*
X50880000Y-44800000D01*
%TO.C,R32*%
X54000000Y-46020000D02*
X57000000Y-46020000D01*
X57000000Y-47580000D01*
X54000000Y-47580000D01*
X54000000Y-46020000D01*
%TO.C,D3*%
X27650000Y-48350000D02*
X27650000Y-50650000D01*
X27650000Y-48350000D02*
X32350000Y-48350000D01*
X32350000Y-48350000D02*
X32350000Y-50650000D01*
X32350000Y-50650000D02*
X27650000Y-50650000D01*
%TO.C,D4*%
X68450000Y-42950000D02*
X68450000Y-44150000D01*
X68450000Y-42950000D02*
X71550000Y-42950000D01*
X71550000Y-42950000D02*
X71550000Y-44150000D01*
X71550000Y-44150000D02*
X68450000Y-44150000D01*
%TD*%
M02*
