%TF.GenerationSoftware,KiCad,Pcbnew,10.0.6*%
%TF.CreationDate,2026-09-19T01:20:35+08:00*%
%TF.ProjectId,s3.1,73332e31-2e6b-4696-9361-645f70636258,s3.1*%
%TF.SameCoordinates,Original*%
%TF.FileFunction,Copper,L2,Bot*%
%TF.FilePolarity,Positive*%
%FSLAX46Y46*%
G04 Gerber Fmt 4.6, Leading zero omitted, Abs format (unit mm)*
G04 Created by KiCad (PCBNEW 10.0.6) date 2026-09-19 01:20:35*
%MOMM*%
%LPD*%
G01*
G04 APERTURE LIST*
G04 Aperture macros list*
%AMRoundRect*
0 Rectangle with rounded corners*
0 $1 Rounding radius*
0 $2 $3 $4 $5 $6 $7 $8 $9 X,Y pos of 4 corners*
0 Add a 4 corners polygon primitive as box body*
4,1,4,$2,$3,$4,$5,$6,$7,$8,$9,$2,$3,0*
0 Add four circle primitives for the rounded corners*
1,1,$1+$1,$2,$3*
1,1,$1+$1,$4,$5*
1,1,$1+$1,$6,$7*
1,1,$1+$1,$8,$9*
0 Add four rect primitives between the rounded corners*
20,1,$1+$1,$2,$3,$4,$5,0*
20,1,$1+$1,$4,$5,$6,$7,0*
20,1,$1+$1,$6,$7,$8,$9,0*
20,1,$1+$1,$8,$9,$2,$3,0*%
G04 Aperture macros list end*
%TA.AperFunction,ComponentPad*%
%ADD10R,1.800000X1.800000*%
%TD*%
%TA.AperFunction,ComponentPad*%
%ADD11O,1.800000X1.800000*%
%TD*%
%TA.AperFunction,ComponentPad*%
%ADD12RoundRect,0.250000X-0.350000X-0.625000X0.350000X-0.625000X0.350000X0.625000X-0.350000X0.625000X0*%
%TD*%
%TA.AperFunction,ComponentPad*%
%ADD13O,1.200000X1.750000*%
%TD*%
%TA.AperFunction,HeatsinkPad*%
%ADD14C,0.600000*%
%TD*%
%TA.AperFunction,ComponentPad*%
%ADD15O,1.000000X2.100000*%
%TD*%
%TA.AperFunction,ComponentPad*%
%ADD16O,1.000000X1.600000*%
%TD*%
%TA.AperFunction,ViaPad*%
%ADD17C,0.700000*%
%TD*%
%TA.AperFunction,ViaPad*%
%ADD18C,0.800000*%
%TD*%
%TA.AperFunction,ViaPad*%
%ADD19C,0.500000*%
%TD*%
%TA.AperFunction,ViaPad*%
%ADD20C,0.600000*%
%TD*%
%TA.AperFunction,ViaPad*%
%ADD21C,0.900000*%
%TD*%
%TA.AperFunction,Conductor*%
%ADD22C,0.250000*%
%TD*%
%TA.AperFunction,Conductor*%
%ADD23C,0.500000*%
%TD*%
G04 APERTURE END LIST*
D10*
%TO.P,J2,1*%
%TO.N,VDD_ADC*%
X8000000Y-51000000D03*
D11*
%TO.P,J2,2*%
%TO.N,GND*%
X10540000Y-51000000D03*
%TO.P,J2,3*%
%TO.N,LC_SIGN*%
X13080000Y-51000000D03*
%TO.P,J2,4*%
%TO.N,LC_SIGP*%
X15620000Y-51000000D03*
%TO.P,J2,5*%
%TO.N,GND*%
X18160000Y-51000000D03*
%TD*%
D10*
%TO.P,J11,1*%
%TO.N,VDD_ADC*%
X4000000Y-30000000D03*
D11*
%TO.P,J11,2*%
%TO.N,GND*%
X4000000Y-32540000D03*
%TO.P,J11,3*%
%TO.N,LC_SIG2N*%
X4000000Y-35080000D03*
%TO.P,J11,4*%
%TO.N,LC_SIG2P*%
X4000000Y-37620000D03*
%TD*%
D12*
%TO.P,J7,1*%
%TO.N,GND*%
X64000000Y-3500000D03*
D13*
%TO.P,J7,2*%
%TO.N,VCC_3V3*%
X66000000Y-3500000D03*
%TO.P,J7,3*%
%TO.N,LCD_SCK*%
X68000000Y-3500000D03*
%TO.P,J7,4*%
%TO.N,LCD_MOSI*%
X70000000Y-3500000D03*
%TO.P,J7,5*%
%TO.N,LCD_CS*%
X72000000Y-3500000D03*
%TO.P,J7,6*%
%TO.N,LCD_DC*%
X74000000Y-3500000D03*
%TO.P,J7,7*%
%TO.N,LCD_RST*%
X76000000Y-3500000D03*
%TO.P,J7,8*%
%TO.N,LCD_BL*%
X78000000Y-3500000D03*
%TD*%
D12*
%TO.P,J8,1*%
%TO.N,GND*%
X60000000Y-10200000D03*
D13*
%TO.P,J8,2*%
%TO.N,BTN_TARE*%
X62000000Y-10200000D03*
%TO.P,J8,3*%
%TO.N,BTN_MODE*%
X64000000Y-10200000D03*
%TO.P,J8,4*%
%TO.N,VCC_3V3*%
X66000000Y-10200000D03*
%TD*%
D12*
%TO.P,J6,1*%
%TO.N,BAT*%
X62000000Y-51000000D03*
D13*
%TO.P,J6,2*%
%TO.N,GND*%
X64000000Y-51000000D03*
%TD*%
D14*
%TO.P,U4,41*%
%TO.N,GND*%
X42100000Y-12760000D03*
X42100000Y-14160000D03*
X42800000Y-12060000D03*
X42800000Y-13460000D03*
X42800000Y-14860000D03*
X43500000Y-12760000D03*
X43500000Y-14160000D03*
X44200000Y-12060000D03*
X44200000Y-13460000D03*
X44200000Y-14860000D03*
X44900000Y-12760000D03*
X44900000Y-14160000D03*
%TD*%
D15*
%TO.P,J5,SH*%
%TO.N,GND*%
X69680000Y-46870000D03*
D16*
X69680000Y-51050000D03*
D15*
X78320000Y-46870000D03*
D16*
X78320000Y-51050000D03*
%TD*%
D10*
%TO.P,J10,1*%
%TO.N,XIO38*%
X34000000Y-50000000D03*
D11*
%TO.P,J10,2*%
%TO.N,XIO39*%
X36540000Y-50000000D03*
%TO.P,J10,3*%
%TO.N,XIO40*%
X39080000Y-50000000D03*
%TO.P,J10,4*%
%TO.N,XIO41*%
X41620000Y-50000000D03*
%TO.P,J10,5*%
%TO.N,XIO42*%
X44160000Y-50000000D03*
%TO.P,J10,6*%
%TO.N,XIO14*%
X46700000Y-50000000D03*
%TO.P,J10,7*%
%TO.N,XIO15*%
X49240000Y-50000000D03*
%TO.P,J10,8*%
%TO.N,XIO17*%
X51780000Y-50000000D03*
%TO.P,J10,9*%
%TO.N,EXP_IO1*%
X54320000Y-50000000D03*
%TO.P,J10,10*%
%TO.N,EXP_IO47*%
X56860000Y-50000000D03*
%TO.P,J10,11*%
%TO.N,EXP_5V*%
X34000000Y-52540000D03*
%TO.P,J10,12*%
%TO.N,VCC_3V3*%
X36540000Y-52540000D03*
%TO.P,J10,13*%
%TO.N,GND*%
X39080000Y-52540000D03*
%TO.P,J10,14*%
X41620000Y-52540000D03*
%TO.P,J10,15*%
X44160000Y-52540000D03*
%TO.P,J10,16*%
%TO.N,SDA*%
X46700000Y-52540000D03*
%TO.P,J10,17*%
%TO.N,SCL*%
X49240000Y-52540000D03*
%TO.P,J10,18*%
%TO.N,TXD*%
X51780000Y-52540000D03*
%TO.P,J10,19*%
%TO.N,RXD*%
X54320000Y-52540000D03*
%TO.P,J10,20*%
%TO.N,EN*%
X56860000Y-52540000D03*
%TD*%
D17*
%TO.N,VSYS*%
X27935900Y-13375500D03*
X74332900Y-36767700D03*
X39554200Y-39992000D03*
X73707200Y-32205300D03*
%TO.N,VIN5V*%
X68356800Y-36795700D03*
X61956600Y-39500000D03*
X66787500Y-42862500D03*
%TO.N,GND*%
X32402700Y-12949500D03*
X75350000Y-9280000D03*
X60102100Y-36966700D03*
X30950000Y-11000000D03*
X32279000Y-25485400D03*
X30000000Y-45000000D03*
X67500000Y-31930000D03*
X42500000Y-26500000D03*
D18*
X13500000Y-40000000D03*
D17*
X56047100Y-31068100D03*
X25000000Y-31000000D03*
X72000000Y-15000000D03*
X28900000Y-34000000D03*
D18*
X67000000Y-7400000D03*
D17*
X21000000Y-26445000D03*
X60000000Y-6300000D03*
X20500000Y-32100000D03*
X28000000Y-20000000D03*
X70000000Y-30000000D03*
X49000000Y-9500000D03*
X64900000Y-12080000D03*
X5980000Y-12010000D03*
%TO.N,SIG_N*%
X14800000Y-45150000D03*
X17300000Y-45150000D03*
D18*
%TO.N,SIG2_P*%
X8300000Y-39300000D03*
D19*
X17900000Y-22635000D03*
D20*
X16650000Y-22635000D03*
D18*
X10600000Y-38200000D03*
D19*
%TO.N,DRDY*%
X20700000Y-22635000D03*
D17*
X26800000Y-22635000D03*
%TO.N,SCL*%
X49734400Y-31813000D03*
X20300000Y-29300000D03*
X35951100Y-34908400D03*
X47483500Y-35385400D03*
X30400000Y-32500000D03*
X36248100Y-40197900D03*
X43100000Y-22320000D03*
D19*
X20700000Y-21365000D03*
D17*
%TO.N,SDA*%
X19340800Y-9793700D03*
X29819800Y-33750000D03*
X16311000Y-10392600D03*
X40623100Y-38069700D03*
X30215500Y-41214400D03*
X50051300Y-27104500D03*
X31173000Y-42908400D03*
X18276100Y-17681200D03*
X41591700Y-22190000D03*
%TO.N,VBAT_SENSE*%
X33231100Y-23620100D03*
X29174000Y-25664000D03*
%TO.N,BAT*%
X22600000Y-38300000D03*
X61096400Y-34374500D03*
%TO.N,EN*%
X54088900Y-54065000D03*
X41707300Y-44160700D03*
X39873300Y-44554700D03*
X29239100Y-26716800D03*
X26778000Y-43161100D03*
X35959300Y-43659900D03*
X32519300Y-43959500D03*
X28241200Y-23117100D03*
%TO.N,BOOT*%
X42345400Y-19675000D03*
X11178000Y-7320300D03*
%TO.N,TXD*%
X30048700Y-6783200D03*
X31016200Y-51392700D03*
X46236900Y-11365900D03*
%TO.N,RXD*%
X64171100Y-14938500D03*
X58931500Y-11460800D03*
X78733800Y-29645300D03*
X40645900Y-16206600D03*
X33608800Y-9843200D03*
X52426300Y-11098300D03*
%TO.N,VCC_3V3*%
X31900000Y-10000000D03*
X30334500Y-22689900D03*
X27378700Y-44655600D03*
X10428800Y-9163500D03*
X33486900Y-8100000D03*
X33600000Y-26800000D03*
X59050000Y-29600000D03*
X36540000Y-53900000D03*
X58800000Y-24000000D03*
%TO.N,LCD_SCK*%
X39422100Y-9550000D03*
%TO.N,LCD_MOSI*%
X37572600Y-10934800D03*
X55060400Y-12974000D03*
X58854300Y-9113700D03*
%TO.N,LCD_CS*%
X50023800Y-7938300D03*
X62117700Y-1231000D03*
%TO.N,LCD_DC*%
X47801000Y-8365200D03*
X55620200Y-5584500D03*
%TO.N,LCD_RST*%
X74256000Y-7195900D03*
%TO.N,LCD_BL*%
X52423500Y-7824000D03*
%TO.N,BTN_TARE*%
X72948400Y-10552700D03*
X51476800Y-22191300D03*
%TO.N,BTN_MODE*%
X52390000Y-20888300D03*
D21*
X67530000Y-12980000D03*
D17*
%TO.N,INT1*%
X29820700Y-31773300D03*
X33298900Y-27778000D03*
%TO.N,CHRG_STAT*%
X37572100Y-19825300D03*
X39715500Y-30655600D03*
%TO.N,Net-(U5-PROG)*%
X64631900Y-34081900D03*
X67029100Y-29900300D03*
%TO.N,EXP_IO15*%
X34449700Y-17007700D03*
X42799500Y-33803300D03*
X40624300Y-33802600D03*
X39697300Y-41121500D03*
%TO.N,EXP_IO17*%
X61947700Y-37553100D03*
X71288000Y-35610300D03*
X50698600Y-47228500D03*
X36007200Y-33842500D03*
X32722300Y-20373600D03*
X68382600Y-35856300D03*
%TO.N,USB_DM_M*%
X43087600Y-20802400D03*
X55285900Y-14626300D03*
%TO.N,USB_DP_M*%
X69415600Y-25512500D03*
X50248600Y-21675700D03*
X64455400Y-19405400D03*
%TO.N,EXP_IO14*%
X35555200Y-28329000D03*
X37849300Y-40008300D03*
%TO.N,EXP_IO47*%
X69573700Y-44763600D03*
X61344100Y-27183500D03*
%TO.N,EXP_IO38*%
X28534200Y-44884700D03*
X52434300Y-17386500D03*
X51760000Y-37392900D03*
X28797200Y-50671500D03*
%TO.N,EXP_IO39*%
X37053000Y-34545900D03*
X36507800Y-41291700D03*
X45001200Y-34330200D03*
X52447600Y-15900000D03*
%TO.N,EXP_IO40*%
X45643400Y-45816300D03*
X47804100Y-45571600D03*
X26135900Y-10483800D03*
X38713700Y-41292200D03*
X45001200Y-16565800D03*
X29096100Y-6174600D03*
%TO.N,EXP_IO41*%
X64492100Y-20949500D03*
X60418700Y-14898300D03*
X42520300Y-44649700D03*
X61911100Y-20526400D03*
X53736300Y-44117900D03*
X70250900Y-39750300D03*
%TO.N,EXP_IO42*%
X62100800Y-13846800D03*
X43572500Y-44351900D03*
X57309100Y-12694900D03*
X52363100Y-13821900D03*
X77129100Y-27083700D03*
X59913100Y-48939500D03*
%TO.N,EXP_IO1*%
X57083300Y-7143200D03*
%TO.N,USB_DP*%
X66350000Y-19400000D03*
X76627900Y-42342100D03*
X74656300Y-42731200D03*
%TO.N,USB_DM*%
X74063900Y-44488200D03*
X61865200Y-19413600D03*
X78699000Y-38713500D03*
%TD*%
%TO.N,VSYS*%
D22*
X74688100Y-36412500D02*
X74688100Y-33186200D01*
D23*
X39554200Y-39992000D02*
X39554200Y-32976900D01*
D22*
X74332900Y-36767700D02*
X74688100Y-36412500D01*
X74688100Y-33186200D02*
X73707200Y-32205300D01*
X36752500Y-22192100D02*
X27935900Y-13375500D01*
X36752500Y-30175200D02*
X36752500Y-22192100D01*
X39554200Y-32976900D02*
X36752500Y-30175200D01*
%TO.N,VIN5V*%
D23*
X66787500Y-42862500D02*
X65319100Y-42862500D01*
X68356800Y-36795700D02*
X66787500Y-38365000D01*
D22*
X66787500Y-38365000D02*
X66787500Y-42862500D01*
X65319100Y-42862500D02*
X61956600Y-39500000D01*
%TO.N,GND*%
X43500000Y-51800000D02*
X44160000Y-52540000D01*
X60000000Y-10200000D02*
X58800000Y-10200000D01*
X43600000Y-48600000D02*
X42890000Y-49300000D01*
X42890000Y-49300000D02*
X42890000Y-51000000D01*
X43500000Y-52550000D02*
X44160000Y-52540000D01*
X42300000Y-52550000D02*
X41620000Y-52540000D01*
X42890000Y-51000000D02*
X43500000Y-51800000D01*
X40000000Y-52550000D02*
X39080000Y-52540000D01*
%TO.N,SIG_N*%
X14800000Y-45150000D02*
X17300000Y-45150000D01*
%TO.N,SIG2_P*%
X10600000Y-38200000D02*
X8300000Y-39300000D01*
X17900000Y-22635000D02*
X16650000Y-22635000D01*
%TO.N,DRDY*%
X20700000Y-22635000D02*
X26800000Y-22635000D01*
%TO.N,SCL*%
X19500000Y-33000000D02*
X30520000Y-33000000D01*
X30400000Y-32500000D02*
X30700000Y-32000000D01*
X35242100Y-34199400D02*
X35900000Y-34857300D01*
X30700000Y-32000000D02*
X30521600Y-31998300D01*
X47332800Y-31813000D02*
X47332800Y-35234700D01*
X30520000Y-33000000D02*
X30521600Y-31998300D01*
X49734400Y-31813000D02*
X47332800Y-31813000D01*
X30520000Y-36041500D02*
X34647300Y-34199400D01*
X19500000Y-21365000D02*
X19500000Y-33000000D01*
X34647300Y-34199400D02*
X35242000Y-34199400D01*
X35951100Y-39900900D02*
X36248100Y-40197900D01*
X35242100Y-34199400D02*
X35242000Y-34199400D01*
X20700000Y-21365000D02*
X19500000Y-21365000D01*
X20300000Y-29300000D02*
X19500000Y-29300000D01*
X35951100Y-34908400D02*
X35951100Y-39900900D01*
X47332800Y-35234700D02*
X47483500Y-35385400D01*
X47332800Y-22749700D02*
X47332800Y-31813000D01*
X30521600Y-31998300D02*
X30520000Y-36041500D01*
X43100000Y-22320000D02*
X47332800Y-22749700D01*
%TO.N,SDA*%
X46700000Y-51313300D02*
X46239900Y-51313300D01*
X41255600Y-45335400D02*
X41255600Y-44928000D01*
X32776200Y-15732500D02*
X35134200Y-15732500D01*
X39236000Y-42908400D02*
X31173000Y-42908400D01*
X26837400Y-9793700D02*
X32776200Y-15732500D01*
X29819800Y-33750000D02*
X29819800Y-40818700D01*
X50051300Y-24826000D02*
X50051300Y-27104500D01*
X18276100Y-17681200D02*
X18276100Y-12357700D01*
X41591700Y-22190000D02*
X41591700Y-37101100D01*
X19340800Y-9793700D02*
X26837400Y-9793700D01*
X45473300Y-50546700D02*
X45473300Y-49553100D01*
X41255600Y-44928000D02*
X39236000Y-42908400D01*
X35134200Y-15732500D02*
X41591700Y-22190000D01*
X46795500Y-21570200D02*
X50051300Y-24826000D01*
X45473300Y-49553100D02*
X41255600Y-45335400D01*
X18276100Y-12357700D02*
X16311000Y-10392600D01*
X46700000Y-52540000D02*
X46700000Y-51313300D01*
X41591700Y-22190000D02*
X42211500Y-21570200D01*
X29819800Y-40818700D02*
X30215500Y-41214400D01*
X41591700Y-37101100D02*
X40623100Y-38069700D01*
X46239900Y-51313300D02*
X45473300Y-50546700D01*
X42211500Y-21570200D02*
X46795500Y-21570200D01*
%TO.N,VBAT_SENSE*%
X31618800Y-22007800D02*
X30049300Y-22007800D01*
X29174000Y-22883100D02*
X29174000Y-25664000D01*
X30049300Y-22007800D02*
X29174000Y-22883100D01*
X33231100Y-23620100D02*
X31618800Y-22007800D01*
%TO.N,BAT*%
X61096400Y-50096400D02*
X61096400Y-34374500D01*
D23*
X62000000Y-51000000D02*
X61096400Y-50096400D01*
X22600000Y-42100000D02*
X61096400Y-42100000D01*
X22600000Y-38300000D02*
X22600000Y-42100000D01*
%TO.N,EN*%
D22*
X53050200Y-53026300D02*
X54088900Y-54065000D01*
X53050200Y-52062600D02*
X53050200Y-53026300D01*
X32519300Y-43959500D02*
X27576400Y-43959500D01*
X27576400Y-43959500D02*
X26778000Y-43161100D01*
X51242500Y-51270000D02*
X52257600Y-51270000D01*
X39873300Y-44554700D02*
X36854100Y-44554700D01*
X28241200Y-25718900D02*
X28241200Y-23117100D01*
X45154200Y-48316500D02*
X49390700Y-48316500D01*
X52257600Y-51270000D02*
X53050200Y-52062600D01*
X50510000Y-49435800D02*
X50510000Y-50537500D01*
X41707300Y-44160700D02*
X41707300Y-44869600D01*
X41707300Y-44869600D02*
X45154200Y-48316500D01*
X50510000Y-50537500D02*
X51242500Y-51270000D01*
X29239100Y-26716800D02*
X28241200Y-25718900D01*
X36854100Y-44554700D02*
X35959300Y-43659900D01*
X49390700Y-48316500D02*
X50510000Y-49435800D01*
%TO.N,BOOT*%
X25147800Y-7320300D02*
X11178000Y-7320300D01*
X42345400Y-19069200D02*
X37302300Y-14026100D01*
X31853600Y-14026100D02*
X25147800Y-7320300D01*
X37302300Y-14026100D02*
X31853600Y-14026100D01*
X42345400Y-19675000D02*
X42345400Y-19069200D01*
%TO.N,TXD*%
X46236900Y-11365900D02*
X45194300Y-10323300D01*
X42890000Y-53062300D02*
X42890000Y-51970100D01*
X45194300Y-10323300D02*
X38646600Y-10323300D01*
X49723000Y-53830300D02*
X43658000Y-53830300D01*
X50553300Y-52540000D02*
X50553300Y-53000000D01*
X43658000Y-53830300D02*
X42890000Y-53062300D01*
X35106600Y-6783300D02*
X30048700Y-6783300D01*
X51780000Y-52540000D02*
X50553300Y-52540000D01*
X42233200Y-51313300D02*
X31095600Y-51313300D01*
X38646600Y-10323300D02*
X35106600Y-6783300D01*
X42890000Y-51970100D02*
X42233200Y-51313300D01*
X50553300Y-53000000D02*
X49723000Y-53830300D01*
%TO.N,RXD*%
X33608800Y-9843200D02*
X34282500Y-9843200D01*
X64171100Y-14938500D02*
X64171100Y-15082600D01*
X58569000Y-11098300D02*
X52426300Y-11098300D01*
X64171100Y-15082600D02*
X78733800Y-29645300D01*
X58931500Y-11460800D02*
X58569000Y-11098300D01*
X34282500Y-9843200D02*
X40645900Y-16206600D01*
%TO.N,VCC_3V3*%
D23*
X36540000Y-53900000D02*
X31965200Y-53900000D01*
X27904100Y-6278000D02*
X11223100Y-6278000D01*
X30334500Y-22903000D02*
X30334500Y-22689900D01*
D22*
X31900000Y-9686900D02*
X31313000Y-9686900D01*
X10428800Y-7072300D02*
X10428800Y-9163500D01*
D23*
X27378700Y-50321700D02*
X27378700Y-44655600D01*
D22*
X31313000Y-9686900D02*
X27904100Y-6278000D01*
X11223100Y-6278000D02*
X10428800Y-7072300D01*
D23*
X31900000Y-9686900D02*
X33486900Y-8100000D01*
D22*
X32240200Y-24808700D02*
X30334500Y-22903000D01*
D23*
X31900000Y-10000000D02*
X31900000Y-9686900D01*
D22*
X31965200Y-53900000D02*
X29508700Y-51443500D01*
X32559400Y-24808700D02*
X32240200Y-24808700D01*
X29508700Y-51443500D02*
X28500500Y-51443500D01*
X58500000Y-24000000D02*
X59050000Y-29600000D01*
X28500500Y-51443500D02*
X27378700Y-50321700D01*
X33000000Y-25000000D02*
X33600000Y-26800000D01*
X32559400Y-24808700D02*
X33000000Y-25000000D01*
%TO.N,LCD_SCK*%
X67073300Y-3500000D02*
X67073300Y-4079200D01*
X67073300Y-4079200D02*
X62715500Y-8437000D01*
X62715500Y-8437000D02*
X55005700Y-8437000D01*
X47957300Y-10646700D02*
X46860600Y-9550000D01*
X49174700Y-10646700D02*
X47957300Y-10646700D01*
X46860600Y-9550000D02*
X39422100Y-9550000D01*
X54940300Y-8502400D02*
X51319000Y-8502400D01*
X51319000Y-8502400D02*
X49174700Y-10646700D01*
X68000000Y-3500000D02*
X67073300Y-3500000D01*
%TO.N,LCD_MOSI*%
X70000000Y-3500000D02*
X69073300Y-3500000D01*
X37572600Y-10934800D02*
X37572600Y-11162400D01*
X65402300Y-6447700D02*
X62897400Y-8952600D01*
X47342900Y-15488300D02*
X50180400Y-12650800D01*
X62897400Y-8952600D02*
X59015400Y-8952600D01*
X37572600Y-11162400D02*
X41898500Y-15488300D01*
X59015400Y-8952600D02*
X58854300Y-9113700D01*
X41898500Y-15488300D02*
X47342900Y-15488300D01*
X69073300Y-4079200D02*
X66704800Y-6447700D01*
X69073300Y-3500000D02*
X69073300Y-4079200D01*
X50180400Y-12650800D02*
X54737200Y-12650800D01*
X54737200Y-12650800D02*
X55060400Y-12974000D01*
X66704800Y-6447700D02*
X65402300Y-6447700D01*
%TO.N,LCD_CS*%
X62117700Y-1231000D02*
X57025500Y-6323200D01*
X57025500Y-6323200D02*
X51638900Y-6323200D01*
X51638900Y-6323200D02*
X50023800Y-7938300D01*
%TO.N,LCD_DC*%
X55620200Y-5584500D02*
X50457500Y-5584500D01*
X50457500Y-5584500D02*
X47801000Y-8241000D01*
X47801000Y-8241000D02*
X47801000Y-8365200D01*
%TO.N,LCD_RST*%
X76000000Y-3500000D02*
X76000000Y-5451900D01*
X76000000Y-5451900D02*
X74256000Y-7195900D01*
%TO.N,LCD_BL*%
X76429600Y-2277100D02*
X77073300Y-2920800D01*
X52423500Y-7824000D02*
X57400800Y-7824000D01*
X62947700Y-2277100D02*
X76429600Y-2277100D01*
X78000000Y-3500000D02*
X77073300Y-3500000D01*
X77073300Y-2920800D02*
X77073300Y-3500000D01*
X57400800Y-7824000D02*
X62947700Y-2277100D01*
%TO.N,BTN_TARE*%
X62926700Y-10200000D02*
X62926700Y-9620800D01*
X71343200Y-8947500D02*
X72948400Y-10552700D01*
X61073300Y-10966800D02*
X61073300Y-10200000D01*
X63600000Y-8947500D02*
X71343200Y-8947500D01*
X62000000Y-10200000D02*
X62926700Y-10200000D01*
X51476800Y-20563300D02*
X61073300Y-10966800D01*
X62000000Y-10200000D02*
X61073300Y-10200000D01*
X62926700Y-9620800D02*
X63600000Y-8947500D01*
X51476800Y-22191300D02*
X51476800Y-20563300D01*
%TO.N,BTN_MODE*%
X52390000Y-20888300D02*
X53311700Y-20888300D01*
X53311700Y-20888300D02*
X64000000Y-10200000D01*
X67400000Y-13200000D02*
X67530000Y-12980000D01*
X64300000Y-13200000D02*
X67400000Y-13200000D01*
X64000000Y-10200000D02*
X64300000Y-13200000D01*
%TO.N,INT1*%
X32399600Y-26878700D02*
X31590300Y-26878700D01*
X31590300Y-26878700D02*
X29820700Y-28648300D01*
X33298900Y-27778000D02*
X32399600Y-26878700D01*
X29820700Y-28648300D02*
X29820700Y-31773300D01*
%TO.N,CHRG_STAT*%
X37572100Y-28512200D02*
X37572100Y-19825300D01*
X39715500Y-30655600D02*
X37572100Y-28512200D01*
%TO.N,Net-(U5-PROG)*%
X64631900Y-33135400D02*
X64631900Y-34081900D01*
X66356300Y-31411000D02*
X64631900Y-33135400D01*
X66356300Y-31411000D02*
X67029100Y-30738200D01*
X67029100Y-30738200D02*
X67029100Y-29900300D01*
%TO.N,EXP_IO15*%
X39697300Y-41121500D02*
X42799500Y-38019300D01*
X35741200Y-17007700D02*
X34449700Y-17007700D01*
X40624300Y-33802600D02*
X40624300Y-21890800D01*
X42799500Y-38019300D02*
X42799500Y-33803300D01*
X40624300Y-21890800D02*
X35741200Y-17007700D01*
%TO.N,EXP_IO17*%
X68382600Y-35856300D02*
X63644500Y-35856300D01*
X63016300Y-50343700D02*
X67915300Y-45444700D01*
X50698600Y-47228500D02*
X56387500Y-47228500D01*
X63644500Y-35856300D02*
X61947700Y-37553100D01*
X71288000Y-44057200D02*
X71288000Y-35610300D01*
X67915300Y-45444700D02*
X69900500Y-45444700D01*
X63016300Y-51788800D02*
X63016300Y-50343700D01*
X61362100Y-52203100D02*
X62602000Y-52203100D01*
X69900500Y-45444700D02*
X71288000Y-44057200D01*
X34877700Y-22529000D02*
X34877700Y-32713000D01*
X56387500Y-47228500D02*
X61362100Y-52203100D01*
X32722300Y-20373600D02*
X34877700Y-22529000D01*
X34877700Y-32713000D02*
X36007200Y-33842500D01*
X62602000Y-52203100D02*
X63016300Y-51788800D01*
%TO.N,USB_DM_M*%
X43087600Y-20802400D02*
X49934700Y-13850900D01*
X49934700Y-13535300D02*
X50331200Y-13138800D01*
X49934700Y-13850900D02*
X49934700Y-13535300D01*
X50331200Y-13138800D02*
X53798400Y-13138800D01*
X53798400Y-13138800D02*
X55285900Y-14626300D01*
%TO.N,USB_DP_M*%
X50248600Y-21971700D02*
X50248600Y-21675700D01*
X51188900Y-22912000D02*
X50248600Y-21971700D01*
X69415600Y-24365600D02*
X64455400Y-19405400D01*
X64455400Y-19405400D02*
X60948800Y-22912000D01*
X60948800Y-22912000D02*
X51188900Y-22912000D01*
X69415600Y-25512500D02*
X69415600Y-24365600D01*
%TO.N,EXP_IO14*%
X35555200Y-30791500D02*
X37849300Y-33085600D01*
X35555200Y-28329000D02*
X35555200Y-30791500D01*
X37849300Y-33085600D02*
X37849300Y-40008300D01*
%TO.N,EXP_IO47*%
X69573700Y-44763600D02*
X69573700Y-35959700D01*
X65330300Y-27183500D02*
X61344100Y-27183500D01*
X69573700Y-35959700D02*
X68562900Y-34948900D01*
X68562900Y-34948900D02*
X68562900Y-30416100D01*
X68562900Y-30416100D02*
X65330300Y-27183500D01*
%TO.N,EXP_IO38*%
X52434300Y-17386500D02*
X49570400Y-20250400D01*
X28534200Y-44884700D02*
X28797200Y-45147700D01*
X28797200Y-45147700D02*
X28797200Y-50671500D01*
X49570400Y-22802500D02*
X51760000Y-24992100D01*
X51760000Y-24992100D02*
X51760000Y-37392900D01*
X49570400Y-20250400D02*
X49570400Y-22802500D01*
%TO.N,EXP_IO39*%
X50739000Y-33110100D02*
X47772000Y-36077100D01*
X37053000Y-40746500D02*
X36507800Y-41291700D01*
X49095100Y-23098500D02*
X50739000Y-24742400D01*
X37053000Y-34545900D02*
X37053000Y-40746500D01*
X50739000Y-24742400D02*
X50739000Y-33110100D01*
X46748100Y-36077100D02*
X45001200Y-34330200D01*
X47772000Y-36077100D02*
X46748100Y-36077100D01*
X52447600Y-15900000D02*
X49095100Y-19252500D01*
X49095100Y-19252500D02*
X49095100Y-23098500D01*
%TO.N,EXP_IO40*%
X26135900Y-10483800D02*
X26135900Y-12568600D01*
X36123000Y-30540900D02*
X38713700Y-33131600D01*
X31758500Y-7521600D02*
X29829900Y-7521600D01*
X29829900Y-7521600D02*
X29096200Y-6787900D01*
X38713700Y-33131600D02*
X38713700Y-41292200D01*
X36239000Y-22671700D02*
X36239000Y-29863000D01*
X33729300Y-7383700D02*
X31896400Y-7383700D01*
X47804100Y-45571600D02*
X45888100Y-45571600D01*
X45888100Y-45571600D02*
X45643400Y-45816300D01*
X31896400Y-7383700D02*
X31758500Y-7521600D01*
X29096200Y-6787900D02*
X29096200Y-6174600D01*
X36239000Y-29863000D02*
X36123000Y-29979000D01*
X26135900Y-12568600D02*
X36239000Y-22671700D01*
X34521100Y-8175500D02*
X33729300Y-7383700D01*
X36123000Y-29979000D02*
X36123000Y-30540900D01*
X34521100Y-8840300D02*
X34521100Y-8175500D01*
X45001200Y-16565800D02*
X44704500Y-16269100D01*
X41949900Y-16269100D02*
X34521100Y-8840300D01*
X44704500Y-16269100D02*
X41949900Y-16269100D01*
%TO.N,EXP_IO41*%
X69014600Y-29969400D02*
X69014600Y-30374500D01*
X60418700Y-14898300D02*
X60418700Y-19034000D01*
X42520300Y-44401300D02*
X43289300Y-43632300D01*
X42520300Y-44649700D02*
X42520300Y-44401300D01*
X69014600Y-30374500D02*
X70250900Y-31610800D01*
X64492100Y-20949500D02*
X64492100Y-25446900D01*
X70250900Y-31610800D02*
X70250900Y-39750300D01*
X64492100Y-25446900D02*
X69014600Y-29969400D01*
X43289300Y-43632300D02*
X53250700Y-43632300D01*
X53250700Y-43632300D02*
X53736300Y-44117900D01*
X60418700Y-19034000D02*
X61911100Y-20526400D01*
%TO.N,EXP_IO42*%
X53886200Y-15345000D02*
X52363100Y-13821900D01*
X65520700Y-13846800D02*
X62100800Y-13846800D01*
X55580000Y-15345000D02*
X53886200Y-15345000D01*
X49435400Y-45010400D02*
X56637500Y-45010400D01*
X57309100Y-13615900D02*
X55580000Y-15345000D01*
X59913100Y-48286000D02*
X59913100Y-48939500D01*
X43572500Y-44351900D02*
X48776900Y-44351900D01*
X48776900Y-44351900D02*
X49435400Y-45010400D01*
X57309100Y-12694900D02*
X57309100Y-13615900D01*
X56637500Y-45010400D02*
X59913100Y-48286000D01*
X77129100Y-27083700D02*
X77129100Y-25455200D01*
X77129100Y-25455200D02*
X65520700Y-13846800D01*
%TO.N,EXP_IO1*%
X54320000Y-50000000D02*
X53050000Y-50000000D01*
X59194200Y-51226700D02*
X61278600Y-53311100D01*
X68935000Y-53311100D02*
X79417200Y-42828900D01*
X57420300Y-7143200D02*
X57083300Y-7143200D01*
X56313000Y-51226700D02*
X59194200Y-51226700D01*
X61278600Y-53311100D02*
X68935000Y-53311100D01*
X79417200Y-42828900D02*
X79417200Y-3314800D01*
X62742100Y-1821400D02*
X57420300Y-7143200D01*
X77923800Y-1821400D02*
X62742100Y-1821400D01*
X79417200Y-3314800D02*
X77923800Y-1821400D01*
X56310000Y-51270000D02*
X56310000Y-51230000D01*
X53050000Y-50000000D02*
X53050000Y-51270000D01*
X53050000Y-51270000D02*
X56310000Y-51270000D01*
%TO.N,USB_DP*%
X74656300Y-42731200D02*
X74800400Y-42731200D01*
X75189500Y-28239500D02*
X66350000Y-19400000D01*
X75189500Y-42342100D02*
X76627900Y-42342100D01*
X75189500Y-42342100D02*
X75189500Y-28239500D01*
X74800400Y-42731200D02*
X75189500Y-42342100D01*
%TO.N,USB_DM*%
X75451600Y-44488200D02*
X74063900Y-44488200D01*
X78699000Y-30716700D02*
X66697700Y-18715400D01*
X78699000Y-41240800D02*
X78699000Y-38713500D01*
X66697700Y-18715400D02*
X62563400Y-18715400D01*
X78699000Y-38713500D02*
X78699000Y-30716700D01*
X62563400Y-18715400D02*
X61865200Y-19413600D01*
X75451600Y-44488200D02*
X78699000Y-41240800D01*
%TD*%
%TA.AperFunction,Conductor*%
%TO.N,GND*%
G36*
X33943039Y-520185D02*
G01*
X33988794Y-572989D01*
X34000000Y-624500D01*
X34000000Y-5000000D01*
X50156109Y-5000000D01*
X50223148Y-5019685D01*
X50268903Y-5072489D01*
X50278847Y-5141647D01*
X50249822Y-5205203D01*
X50218111Y-5231385D01*
X50196237Y-5244015D01*
X50196234Y-5244017D01*
X50117013Y-5323239D01*
X47749323Y-7690927D01*
X47688000Y-7724412D01*
X47685835Y-7724863D01*
X47611259Y-7739697D01*
X47611257Y-7739698D01*
X47492875Y-7788733D01*
X47492866Y-7788738D01*
X47386331Y-7859923D01*
X47386327Y-7859926D01*
X47295726Y-7950527D01*
X47295723Y-7950531D01*
X47224538Y-8057066D01*
X47224533Y-8057075D01*
X47175499Y-8175455D01*
X47175497Y-8175461D01*
X47150500Y-8301128D01*
X47150500Y-8301131D01*
X47150500Y-8429269D01*
X47150500Y-8429271D01*
X47150499Y-8429271D01*
X47175497Y-8554938D01*
X47175499Y-8554944D01*
X47224533Y-8673324D01*
X47224538Y-8673333D01*
X47295723Y-8779868D01*
X47295726Y-8779872D01*
X47386327Y-8870473D01*
X47386331Y-8870476D01*
X47492866Y-8941661D01*
X47492872Y-8941664D01*
X47492873Y-8941665D01*
X47611256Y-8990701D01*
X47611260Y-8990701D01*
X47611261Y-8990702D01*
X47736928Y-9015700D01*
X47736931Y-9015700D01*
X47865071Y-9015700D01*
X47963984Y-8996024D01*
X47990744Y-8990701D01*
X48109127Y-8941665D01*
X48215669Y-8870476D01*
X48306276Y-8779869D01*
X48377465Y-8673327D01*
X48426501Y-8554944D01*
X48451500Y-8429269D01*
X48451500Y-8301131D01*
X48446365Y-8275318D01*
X48452591Y-8205730D01*
X48480299Y-8163447D01*
X50597428Y-6046319D01*
X50658751Y-6012834D01*
X50685109Y-6010000D01*
X51050990Y-6010000D01*
X51118029Y-6029685D01*
X51163784Y-6082489D01*
X51173728Y-6151647D01*
X51144703Y-6215203D01*
X51138671Y-6221681D01*
X50108871Y-7251481D01*
X50047548Y-7284966D01*
X50021190Y-7287800D01*
X49959729Y-7287800D01*
X49834061Y-7312797D01*
X49834055Y-7312799D01*
X49715675Y-7361833D01*
X49715666Y-7361838D01*
X49609131Y-7433023D01*
X49609127Y-7433026D01*
X49518526Y-7523627D01*
X49518523Y-7523631D01*
X49447338Y-7630166D01*
X49447333Y-7630175D01*
X49398299Y-7748555D01*
X49398297Y-7748561D01*
X49373300Y-7874228D01*
X49373300Y-7874231D01*
X49373300Y-8002369D01*
X49373300Y-8002371D01*
X49373299Y-8002371D01*
X49398297Y-8128038D01*
X49398299Y-8128044D01*
X49447333Y-8246424D01*
X49447338Y-8246433D01*
X49518523Y-8352968D01*
X49518526Y-8352972D01*
X49609127Y-8443573D01*
X49609131Y-8443576D01*
X49715666Y-8514761D01*
X49715672Y-8514764D01*
X49715673Y-8514765D01*
X49834056Y-8563801D01*
X49834060Y-8563801D01*
X49834061Y-8563802D01*
X49959728Y-8588800D01*
X49959731Y-8588800D01*
X50087871Y-8588800D01*
X50172415Y-8571982D01*
X50213544Y-8563801D01*
X50331927Y-8514765D01*
X50438469Y-8443576D01*
X50529076Y-8352969D01*
X50600265Y-8246427D01*
X50649301Y-8128044D01*
X50657482Y-8086915D01*
X50674300Y-8002371D01*
X50674300Y-7940909D01*
X50693985Y-7873870D01*
X50710619Y-7853228D01*
X51778828Y-6785019D01*
X51840151Y-6751534D01*
X51866509Y-6748700D01*
X56357033Y-6748700D01*
X56424072Y-6768385D01*
X56469827Y-6821189D01*
X56479771Y-6890347D01*
X56471594Y-6920150D01*
X56464800Y-6936552D01*
X56457799Y-6953455D01*
X56457797Y-6953461D01*
X56432800Y-7079128D01*
X56432800Y-7207271D01*
X56441361Y-7250308D01*
X56435134Y-7319899D01*
X56392272Y-7375077D01*
X56326382Y-7398322D01*
X56319744Y-7398500D01*
X52969307Y-7398500D01*
X52902268Y-7378815D01*
X52881625Y-7362180D01*
X52838172Y-7318726D01*
X52838168Y-7318723D01*
X52731633Y-7247538D01*
X52731624Y-7247533D01*
X52613244Y-7198499D01*
X52613238Y-7198497D01*
X52487571Y-7173500D01*
X52487569Y-7173500D01*
X52359431Y-7173500D01*
X52359429Y-7173500D01*
X52233761Y-7198497D01*
X52233755Y-7198499D01*
X52115375Y-7247533D01*
X52115366Y-7247538D01*
X52008831Y-7318723D01*
X52008827Y-7318726D01*
X51918226Y-7409327D01*
X51918223Y-7409331D01*
X51847038Y-7515866D01*
X51847033Y-7515875D01*
X51797999Y-7634255D01*
X51797997Y-7634261D01*
X51773000Y-7759928D01*
X51773000Y-7888073D01*
X51781083Y-7928709D01*
X51774856Y-7998301D01*
X51731993Y-8053478D01*
X51666103Y-8076722D01*
X51659466Y-8076900D01*
X51375018Y-8076900D01*
X51262981Y-8076900D01*
X51154763Y-8105897D01*
X51154761Y-8105898D01*
X51154760Y-8105898D01*
X51057740Y-8161913D01*
X51057734Y-8161917D01*
X50565662Y-8653989D01*
X49034771Y-10184881D01*
X48973448Y-10218366D01*
X48947090Y-10221200D01*
X48184910Y-10221200D01*
X48117871Y-10201515D01*
X48097229Y-10184881D01*
X47121865Y-9209517D01*
X47121863Y-9209515D01*
X47030071Y-9156519D01*
X47024839Y-9153498D01*
X47024838Y-9153497D01*
X47024837Y-9153497D01*
X46916618Y-9124500D01*
X46916617Y-9124500D01*
X39967907Y-9124500D01*
X39900868Y-9104815D01*
X39880225Y-9088180D01*
X39836772Y-9044726D01*
X39836768Y-9044723D01*
X39730233Y-8973538D01*
X39730224Y-8973533D01*
X39611844Y-8924499D01*
X39611838Y-8924497D01*
X39486171Y-8899500D01*
X39486169Y-8899500D01*
X39358031Y-8899500D01*
X39358029Y-8899500D01*
X39232361Y-8924497D01*
X39232355Y-8924499D01*
X39113975Y-8973533D01*
X39113966Y-8973538D01*
X39007431Y-9044723D01*
X39007427Y-9044726D01*
X38916826Y-9135327D01*
X38916823Y-9135331D01*
X38845638Y-9241866D01*
X38845633Y-9241875D01*
X38796599Y-9360255D01*
X38796597Y-9360261D01*
X38771600Y-9485928D01*
X38771600Y-9547190D01*
X38751915Y-9614229D01*
X38699111Y-9659984D01*
X38629953Y-9669928D01*
X38566397Y-9640903D01*
X38559919Y-9634871D01*
X35367865Y-6442817D01*
X35367863Y-6442815D01*
X35270837Y-6386797D01*
X35162618Y-6357800D01*
X35162617Y-6357800D01*
X30594607Y-6357800D01*
X30527568Y-6338115D01*
X30506925Y-6321480D01*
X30463372Y-6277926D01*
X30463368Y-6277923D01*
X30356833Y-6206738D01*
X30356824Y-6206733D01*
X30238444Y-6157699D01*
X30238438Y-6157697D01*
X30112771Y-6132700D01*
X30112769Y-6132700D01*
X29984631Y-6132700D01*
X29984628Y-6132700D01*
X29881518Y-6153210D01*
X29811927Y-6146983D01*
X29756749Y-6104120D01*
X29735710Y-6055784D01*
X29727166Y-6012834D01*
X29721601Y-5984856D01*
X29672565Y-5866473D01*
X29672564Y-5866472D01*
X29672561Y-5866466D01*
X29601376Y-5759931D01*
X29601373Y-5759927D01*
X29510772Y-5669326D01*
X29510768Y-5669323D01*
X29404233Y-5598138D01*
X29404224Y-5598133D01*
X29285844Y-5549099D01*
X29285838Y-5549097D01*
X29160171Y-5524100D01*
X29160169Y-5524100D01*
X29032031Y-5524100D01*
X29032029Y-5524100D01*
X28906361Y-5549097D01*
X28906355Y-5549099D01*
X28787975Y-5598133D01*
X28787966Y-5598138D01*
X28681431Y-5669323D01*
X28681427Y-5669326D01*
X28590826Y-5759927D01*
X28590823Y-5759931D01*
X28519638Y-5866466D01*
X28519632Y-5866477D01*
X28517854Y-5870771D01*
X28474009Y-5925171D01*
X28407713Y-5947231D01*
X28340015Y-5929947D01*
X28315615Y-5910991D01*
X28242117Y-5837493D01*
X28242111Y-5837488D01*
X28116588Y-5765017D01*
X28116589Y-5765017D01*
X28083135Y-5756053D01*
X27976575Y-5727500D01*
X11150625Y-5727500D01*
X11044065Y-5756053D01*
X11010611Y-5765017D01*
X10885088Y-5837488D01*
X10885082Y-5837493D01*
X10782593Y-5939982D01*
X10782588Y-5939988D01*
X10710117Y-6065511D01*
X10710116Y-6065515D01*
X10688287Y-6146983D01*
X10673430Y-6202428D01*
X10641336Y-6258015D01*
X10167537Y-6731815D01*
X10088317Y-6811034D01*
X10088313Y-6811040D01*
X10032298Y-6908060D01*
X10032297Y-6908063D01*
X10003300Y-7016282D01*
X10003300Y-8617692D01*
X9983615Y-8684731D01*
X9966981Y-8705373D01*
X9923526Y-8748827D01*
X9923523Y-8748831D01*
X9852338Y-8855366D01*
X9852333Y-8855375D01*
X9803299Y-8973755D01*
X9803297Y-8973761D01*
X9778300Y-9099428D01*
X9778300Y-9099431D01*
X9778300Y-9227569D01*
X9778300Y-9227571D01*
X9778299Y-9227571D01*
X9803297Y-9353238D01*
X9803299Y-9353244D01*
X9852333Y-9471624D01*
X9852338Y-9471633D01*
X9923523Y-9578168D01*
X9923526Y-9578172D01*
X10014127Y-9668773D01*
X10014131Y-9668776D01*
X10120666Y-9739961D01*
X10120672Y-9739964D01*
X10120673Y-9739965D01*
X10239056Y-9789001D01*
X10239060Y-9789001D01*
X10239061Y-9789002D01*
X10364728Y-9814000D01*
X10364731Y-9814000D01*
X10492871Y-9814000D01*
X10577415Y-9797182D01*
X10618544Y-9789001D01*
X10736927Y-9739965D01*
X10843469Y-9668776D01*
X10934076Y-9578169D01*
X11005265Y-9471627D01*
X11054301Y-9353244D01*
X11064208Y-9303438D01*
X11079300Y-9227571D01*
X11079300Y-9099428D01*
X11054302Y-8973761D01*
X11054301Y-8973760D01*
X11054301Y-8973756D01*
X11005265Y-8855373D01*
X11005264Y-8855372D01*
X11005261Y-8855366D01*
X10934076Y-8748831D01*
X10934073Y-8748827D01*
X10890619Y-8705373D01*
X10857134Y-8644050D01*
X10854300Y-8617692D01*
X10854300Y-8070250D01*
X10873985Y-8003211D01*
X10926789Y-7957456D01*
X10995947Y-7947512D01*
X11002492Y-7948633D01*
X11113928Y-7970800D01*
X11113931Y-7970800D01*
X11242071Y-7970800D01*
X11326615Y-7953982D01*
X11367744Y-7945801D01*
X11486127Y-7896765D01*
X11592669Y-7825576D01*
X11636125Y-7782120D01*
X11697448Y-7748634D01*
X11723807Y-7745800D01*
X24920190Y-7745800D01*
X24987229Y-7765485D01*
X25007871Y-7782119D01*
X26382271Y-9156519D01*
X26415756Y-9217842D01*
X26410772Y-9287534D01*
X26368900Y-9343467D01*
X26303436Y-9367884D01*
X26294590Y-9368200D01*
X19886607Y-9368200D01*
X19819568Y-9348515D01*
X19798925Y-9331880D01*
X19755472Y-9288426D01*
X19755468Y-9288423D01*
X19648933Y-9217238D01*
X19648924Y-9217233D01*
X19530544Y-9168199D01*
X19530538Y-9168197D01*
X19404871Y-9143200D01*
X19404869Y-9143200D01*
X19276731Y-9143200D01*
X19276729Y-9143200D01*
X19151061Y-9168197D01*
X19151055Y-9168199D01*
X19032675Y-9217233D01*
X19032666Y-9217238D01*
X18926131Y-9288423D01*
X18926127Y-9288426D01*
X18835526Y-9379027D01*
X18835523Y-9379031D01*
X18764338Y-9485566D01*
X18764333Y-9485575D01*
X18715299Y-9603955D01*
X18715297Y-9603961D01*
X18690300Y-9729628D01*
X18690300Y-9729631D01*
X18690300Y-9857769D01*
X18690300Y-9857771D01*
X18690299Y-9857771D01*
X18715297Y-9983438D01*
X18715299Y-9983444D01*
X18764333Y-10101824D01*
X18764338Y-10101833D01*
X18835523Y-10208368D01*
X18835526Y-10208372D01*
X18926127Y-10298973D01*
X18926131Y-10298976D01*
X19032666Y-10370161D01*
X19032672Y-10370164D01*
X19032673Y-10370165D01*
X19151056Y-10419201D01*
X19151060Y-10419201D01*
X19151061Y-10419202D01*
X19276728Y-10444200D01*
X19276731Y-10444200D01*
X19404871Y-10444200D01*
X19489415Y-10427382D01*
X19530544Y-10419201D01*
X19648927Y-10370165D01*
X19755469Y-10298976D01*
X19798925Y-10255520D01*
X19860248Y-10222034D01*
X19886607Y-10219200D01*
X25374194Y-10219200D01*
X25441233Y-10238885D01*
X25486988Y-10291689D01*
X25496932Y-10360847D01*
X25495811Y-10367392D01*
X25485400Y-10419728D01*
X25485400Y-10419731D01*
X25485400Y-10547869D01*
X25485400Y-10547871D01*
X25485399Y-10547871D01*
X25510397Y-10673538D01*
X25510399Y-10673544D01*
X25559433Y-10791924D01*
X25559438Y-10791933D01*
X25630623Y-10898468D01*
X25630626Y-10898472D01*
X25674080Y-10941925D01*
X25707566Y-11003248D01*
X25710400Y-11029607D01*
X25710400Y-12512582D01*
X25710400Y-12624618D01*
X25739397Y-12732837D01*
X25795415Y-12829863D01*
X25795417Y-12829865D01*
X32529385Y-19563833D01*
X32562870Y-19625156D01*
X32557886Y-19694848D01*
X32516014Y-19750781D01*
X32489157Y-19766075D01*
X32414176Y-19797133D01*
X32414166Y-19797138D01*
X32307631Y-19868323D01*
X32307627Y-19868326D01*
X32217026Y-19958927D01*
X32217023Y-19958931D01*
X32145838Y-20065466D01*
X32145833Y-20065475D01*
X32096799Y-20183855D01*
X32096797Y-20183861D01*
X32071800Y-20309528D01*
X32071800Y-20309531D01*
X32071800Y-20437669D01*
X32071800Y-20437671D01*
X32071799Y-20437671D01*
X32096797Y-20563338D01*
X32096799Y-20563344D01*
X32145833Y-20681724D01*
X32145838Y-20681733D01*
X32217023Y-20788268D01*
X32217026Y-20788272D01*
X32307627Y-20878873D01*
X32307631Y-20878876D01*
X32414166Y-20950061D01*
X32414172Y-20950064D01*
X32414173Y-20950065D01*
X32532556Y-20999101D01*
X32532560Y-20999101D01*
X32532561Y-20999102D01*
X32658228Y-21024100D01*
X32658231Y-21024100D01*
X32719690Y-21024100D01*
X32786729Y-21043785D01*
X32807371Y-21060419D01*
X34415881Y-22668929D01*
X34449366Y-22730252D01*
X34452200Y-22756610D01*
X34452200Y-26534165D01*
X34432515Y-26601204D01*
X34379711Y-26646959D01*
X34310553Y-26656903D01*
X34246997Y-26627878D01*
X34213639Y-26581618D01*
X34176466Y-26491876D01*
X34176465Y-26491873D01*
X34176463Y-26491870D01*
X34176461Y-26491866D01*
X34105276Y-26385331D01*
X34105273Y-26385327D01*
X34014671Y-26294725D01*
X33940427Y-26245117D01*
X33908127Y-26223535D01*
X33908125Y-26223534D01*
X33900347Y-26220312D01*
X33845947Y-26176467D01*
X33830171Y-26144966D01*
X33722057Y-25820624D01*
X33421779Y-24919792D01*
X33417560Y-24900724D01*
X33416368Y-24895958D01*
X33416368Y-24895953D01*
X33401257Y-24857651D01*
X33398969Y-24851358D01*
X33385949Y-24812300D01*
X33383790Y-24807862D01*
X33377641Y-24796039D01*
X33375251Y-24791735D01*
X33375251Y-24791734D01*
X33350745Y-24758651D01*
X33346908Y-24753168D01*
X33324219Y-24718806D01*
X33321000Y-24715093D01*
X33311990Y-24705255D01*
X33308565Y-24701713D01*
X33308562Y-24701708D01*
X33276333Y-24676100D01*
X33271201Y-24671792D01*
X33248448Y-24651615D01*
X33240394Y-24644473D01*
X33240392Y-24644472D01*
X33240389Y-24644469D01*
X33236376Y-24641756D01*
X33224996Y-24634500D01*
X33220848Y-24632011D01*
X33183082Y-24615614D01*
X33177017Y-24612783D01*
X33140187Y-24594369D01*
X33135579Y-24592776D01*
X33116912Y-24586884D01*
X32757618Y-24430886D01*
X32745003Y-24424532D01*
X32723636Y-24412196D01*
X32708829Y-24408229D01*
X32691539Y-24402196D01*
X32686778Y-24400129D01*
X32677478Y-24396091D01*
X32677471Y-24396090D01*
X32653078Y-24392457D01*
X32639254Y-24389586D01*
X32615420Y-24383200D01*
X32615418Y-24383200D01*
X32600089Y-24383200D01*
X32581826Y-24381848D01*
X32566659Y-24379589D01*
X32545313Y-24382033D01*
X32542156Y-24382395D01*
X32528055Y-24383200D01*
X32467810Y-24383200D01*
X32400771Y-24363515D01*
X32380129Y-24346881D01*
X30999052Y-22965804D01*
X30965567Y-22904481D01*
X30965116Y-22853931D01*
X30985000Y-22753971D01*
X30985000Y-22625828D01*
X30984999Y-22625826D01*
X30976181Y-22581491D01*
X30982408Y-22511899D01*
X31025271Y-22456722D01*
X31091161Y-22433478D01*
X31097798Y-22433300D01*
X31391190Y-22433300D01*
X31458229Y-22452985D01*
X31478871Y-22469619D01*
X32544281Y-23535029D01*
X32577766Y-23596352D01*
X32580600Y-23622710D01*
X32580600Y-23684169D01*
X32580600Y-23684171D01*
X32580599Y-23684171D01*
X32605597Y-23809838D01*
X32605599Y-23809844D01*
X32654633Y-23928224D01*
X32654638Y-23928233D01*
X32725823Y-24034768D01*
X32725826Y-24034772D01*
X32816427Y-24125373D01*
X32816431Y-24125376D01*
X32922966Y-24196561D01*
X32922972Y-24196564D01*
X32922973Y-24196565D01*
X33041356Y-24245601D01*
X33041360Y-24245601D01*
X33041361Y-24245602D01*
X33167028Y-24270600D01*
X33167031Y-24270600D01*
X33295171Y-24270600D01*
X33379715Y-24253782D01*
X33420844Y-24245601D01*
X33539227Y-24196565D01*
X33645769Y-24125376D01*
X33736376Y-24034769D01*
X33807565Y-23928227D01*
X33856601Y-23809844D01*
X33864782Y-23768715D01*
X33881600Y-23684171D01*
X33881600Y-23556028D01*
X33856602Y-23430361D01*
X33856601Y-23430360D01*
X33856601Y-23430356D01*
X33807565Y-23311973D01*
X33807564Y-23311972D01*
X33807561Y-23311966D01*
X33736376Y-23205431D01*
X33736373Y-23205427D01*
X33645772Y-23114826D01*
X33645768Y-23114823D01*
X33539233Y-23043638D01*
X33539224Y-23043633D01*
X33420844Y-22994599D01*
X33420838Y-22994597D01*
X33295171Y-22969600D01*
X33295169Y-22969600D01*
X33233710Y-22969600D01*
X33166671Y-22949915D01*
X33146029Y-22933281D01*
X31880065Y-21667317D01*
X31880063Y-21667315D01*
X31783037Y-21611297D01*
X31674818Y-21582300D01*
X30105318Y-21582300D01*
X29993281Y-21582300D01*
X29885063Y-21611297D01*
X29885061Y-21611298D01*
X29885060Y-21611298D01*
X29788040Y-21667313D01*
X29788034Y-21667317D01*
X28837380Y-22617972D01*
X28776057Y-22651457D01*
X28706365Y-22646473D01*
X28662018Y-22617972D01*
X28655872Y-22611826D01*
X28655868Y-22611823D01*
X28549333Y-22540638D01*
X28549324Y-22540633D01*
X28430944Y-22491599D01*
X28430938Y-22491597D01*
X28305271Y-22466600D01*
X28305269Y-22466600D01*
X28177131Y-22466600D01*
X28177129Y-22466600D01*
X28051461Y-22491597D01*
X28051455Y-22491599D01*
X27933075Y-22540633D01*
X27933066Y-22540638D01*
X27826531Y-22611823D01*
X27826527Y-22611826D01*
X27735926Y-22702427D01*
X27674899Y-22793760D01*
X27621286Y-22838564D01*
X27551961Y-22847271D01*
X27488934Y-22817116D01*
X27452215Y-22757673D01*
X27450342Y-22705177D01*
X27449903Y-22705134D01*
X27450224Y-22701865D01*
X27450182Y-22700667D01*
X27450500Y-22699069D01*
X27450500Y-22570931D01*
X27450500Y-22570928D01*
X27425502Y-22445261D01*
X27425501Y-22445260D01*
X27425501Y-22445256D01*
X27376465Y-22326873D01*
X27376464Y-22326872D01*
X27376461Y-22326866D01*
X27305276Y-22220331D01*
X27305273Y-22220327D01*
X27214672Y-22129726D01*
X27214668Y-22129723D01*
X27108133Y-22058538D01*
X27108124Y-22058533D01*
X26989744Y-22009499D01*
X26989738Y-22009497D01*
X26864071Y-21984500D01*
X26864069Y-21984500D01*
X26735931Y-21984500D01*
X26735929Y-21984500D01*
X26610261Y-22009497D01*
X26610255Y-22009499D01*
X26491875Y-22058533D01*
X26491866Y-22058538D01*
X26385331Y-22129723D01*
X26385327Y-22129726D01*
X26341875Y-22173180D01*
X26280552Y-22206666D01*
X26254193Y-22209500D01*
X21097237Y-22209500D01*
X21035237Y-22192887D01*
X20912488Y-22122017D01*
X20912485Y-22122016D01*
X20904118Y-22119774D01*
X20844459Y-22083410D01*
X20813930Y-22020563D01*
X20822225Y-21951188D01*
X20866710Y-21897310D01*
X20904117Y-21880226D01*
X20912485Y-21877984D01*
X21038015Y-21805509D01*
X21140509Y-21703015D01*
X21212984Y-21577485D01*
X21250500Y-21437475D01*
X21250500Y-21292525D01*
X21212984Y-21152515D01*
X21208369Y-21144522D01*
X21140511Y-21026988D01*
X21140506Y-21026982D01*
X21038017Y-20924493D01*
X21038011Y-20924488D01*
X20912488Y-20852017D01*
X20912489Y-20852017D01*
X20901006Y-20848940D01*
X20772475Y-20814500D01*
X20627525Y-20814500D01*
X20498993Y-20848940D01*
X20487511Y-20852017D01*
X20364763Y-20922887D01*
X20302763Y-20939500D01*
X19443982Y-20939500D01*
X19335763Y-20968497D01*
X19335760Y-20968498D01*
X19238740Y-21024513D01*
X19238734Y-21024517D01*
X19159517Y-21103734D01*
X19159513Y-21103740D01*
X19103498Y-21200760D01*
X19103497Y-21200763D01*
X19074500Y-21308982D01*
X19074500Y-33056018D01*
X19103497Y-33164237D01*
X19159515Y-33261263D01*
X19238737Y-33340485D01*
X19335763Y-33396503D01*
X19443982Y-33425500D01*
X19556018Y-33425500D01*
X29070009Y-33425500D01*
X29137048Y-33445185D01*
X29182803Y-33497989D01*
X29192747Y-33567147D01*
X29191626Y-33573692D01*
X29169300Y-33685928D01*
X29169300Y-33685931D01*
X29169300Y-33814069D01*
X29169300Y-33814071D01*
X29169299Y-33814071D01*
X29194297Y-33939738D01*
X29194299Y-33939744D01*
X29243333Y-34058124D01*
X29243338Y-34058133D01*
X29314523Y-34164668D01*
X29314526Y-34164672D01*
X29357980Y-34208125D01*
X29391466Y-34269448D01*
X29394300Y-34295807D01*
X29394300Y-40762682D01*
X29394300Y-40874718D01*
X29403953Y-40910741D01*
X29423297Y-40982936D01*
X29423298Y-40982939D01*
X29479316Y-41079965D01*
X29528680Y-41129328D01*
X29562166Y-41190651D01*
X29565000Y-41217010D01*
X29565000Y-41278471D01*
X29589435Y-41401308D01*
X29583208Y-41470899D01*
X29540346Y-41526077D01*
X29474456Y-41549322D01*
X29467818Y-41549500D01*
X23274500Y-41549500D01*
X23207461Y-41529815D01*
X23161706Y-41477011D01*
X23150500Y-41425500D01*
X23150500Y-38684600D01*
X23170185Y-38617561D01*
X23171359Y-38615768D01*
X23176465Y-38608127D01*
X23225501Y-38489744D01*
X23235899Y-38437471D01*
X23250500Y-38364071D01*
X23250500Y-38235928D01*
X23225502Y-38110261D01*
X23225501Y-38110260D01*
X23225501Y-38110256D01*
X23178039Y-37995672D01*
X23176466Y-37991875D01*
X23176461Y-37991866D01*
X23105276Y-37885331D01*
X23105273Y-37885327D01*
X23014672Y-37794726D01*
X23014668Y-37794723D01*
X22908133Y-37723538D01*
X22908124Y-37723533D01*
X22789744Y-37674499D01*
X22789738Y-37674497D01*
X22664071Y-37649500D01*
X22664069Y-37649500D01*
X22535931Y-37649500D01*
X22535929Y-37649500D01*
X22410261Y-37674497D01*
X22410255Y-37674499D01*
X22291875Y-37723533D01*
X22291866Y-37723538D01*
X22185331Y-37794723D01*
X22185327Y-37794726D01*
X22094726Y-37885327D01*
X22094723Y-37885331D01*
X22023538Y-37991866D01*
X22023533Y-37991875D01*
X21974499Y-38110255D01*
X21974497Y-38110261D01*
X21949500Y-38235928D01*
X21949500Y-38235931D01*
X21949500Y-38364069D01*
X21949500Y-38364071D01*
X21949499Y-38364071D01*
X21974497Y-38489738D01*
X21974499Y-38489744D01*
X22023533Y-38608124D01*
X22023534Y-38608126D01*
X22023535Y-38608127D01*
X22028600Y-38615708D01*
X22049480Y-38682383D01*
X22049500Y-38684600D01*
X22049500Y-42172475D01*
X22086886Y-42312000D01*
X22087017Y-42312488D01*
X22159488Y-42438011D01*
X22159490Y-42438013D01*
X22159491Y-42438015D01*
X22261985Y-42540509D01*
X22261986Y-42540510D01*
X22261988Y-42540511D01*
X22387511Y-42612982D01*
X22387512Y-42612982D01*
X22387515Y-42612984D01*
X22527525Y-42650500D01*
X22672475Y-42650500D01*
X26104835Y-42650500D01*
X26171874Y-42670185D01*
X26217629Y-42722989D01*
X26227573Y-42792147D01*
X26207937Y-42843391D01*
X26207309Y-42844331D01*
X26201535Y-42852972D01*
X26201533Y-42852975D01*
X26152499Y-42971355D01*
X26152497Y-42971361D01*
X26127500Y-43097028D01*
X26127500Y-43097031D01*
X26127500Y-43225169D01*
X26127500Y-43225171D01*
X26127499Y-43225171D01*
X26152497Y-43350838D01*
X26152499Y-43350844D01*
X26201533Y-43469224D01*
X26201538Y-43469233D01*
X26272723Y-43575768D01*
X26272726Y-43575772D01*
X26363327Y-43666373D01*
X26363331Y-43666376D01*
X26469866Y-43737561D01*
X26469875Y-43737566D01*
X26490302Y-43746027D01*
X26588256Y-43786601D01*
X26588260Y-43786601D01*
X26588261Y-43786602D01*
X26713928Y-43811600D01*
X26713931Y-43811600D01*
X26775390Y-43811600D01*
X26842429Y-43831285D01*
X26863071Y-43847919D01*
X26977948Y-43962796D01*
X27011433Y-44024119D01*
X27006449Y-44093811D01*
X26967848Y-44145374D01*
X26968739Y-44146460D01*
X26964027Y-44150326D01*
X26873426Y-44240927D01*
X26873423Y-44240931D01*
X26802238Y-44347466D01*
X26802233Y-44347475D01*
X26753199Y-44465855D01*
X26753197Y-44465861D01*
X26728200Y-44591528D01*
X26728200Y-44591531D01*
X26728200Y-44719669D01*
X26728200Y-44719671D01*
X26728199Y-44719671D01*
X26753197Y-44845338D01*
X26753199Y-44845344D01*
X26802233Y-44963724D01*
X26802234Y-44963726D01*
X26802235Y-44963727D01*
X26807300Y-44971308D01*
X26828180Y-45037983D01*
X26828200Y-45040200D01*
X26828200Y-50394175D01*
X26865687Y-50534075D01*
X26865717Y-50534188D01*
X26938188Y-50659711D01*
X26938190Y-50659713D01*
X26938191Y-50659715D01*
X27040685Y-50762209D01*
X27040686Y-50762210D01*
X27040688Y-50762211D01*
X27069525Y-50778860D01*
X27166215Y-50834684D01*
X27303129Y-50871370D01*
X27358715Y-50903463D01*
X28239237Y-51783985D01*
X28336263Y-51840003D01*
X28444482Y-51869000D01*
X28556519Y-51869000D01*
X29281090Y-51869000D01*
X29348129Y-51888685D01*
X29368771Y-51905319D01*
X31383436Y-53919984D01*
X31415529Y-53975569D01*
X31452216Y-54112485D01*
X31452217Y-54112488D01*
X31524688Y-54238011D01*
X31524693Y-54238017D01*
X31574495Y-54287819D01*
X31607980Y-54349142D01*
X31602996Y-54418834D01*
X31561124Y-54474767D01*
X31495660Y-54499184D01*
X31486814Y-54499500D01*
X624500Y-54499500D01*
X557461Y-54479815D01*
X511706Y-54427011D01*
X500500Y-54375500D01*
X500500Y-50893713D01*
X2649500Y-50893713D01*
X2649500Y-51106287D01*
X2652792Y-51127071D01*
X2682316Y-51313482D01*
X2682754Y-51316243D01*
X2746902Y-51513670D01*
X2748444Y-51518414D01*
X2844951Y-51707820D01*
X2969890Y-51879786D01*
X3120213Y-52030109D01*
X3292179Y-52155048D01*
X3292181Y-52155049D01*
X3292184Y-52155051D01*
X3481588Y-52251557D01*
X3683757Y-52317246D01*
X3893713Y-52350500D01*
X3893714Y-52350500D01*
X4106286Y-52350500D01*
X4106287Y-52350500D01*
X4316243Y-52317246D01*
X4518412Y-52251557D01*
X4707816Y-52155051D01*
X4766954Y-52112085D01*
X4879786Y-52030109D01*
X4879788Y-52030106D01*
X4879792Y-52030104D01*
X5030104Y-51879792D01*
X5030106Y-51879788D01*
X5030109Y-51879786D01*
X5155048Y-51707820D01*
X5155047Y-51707820D01*
X5155051Y-51707816D01*
X5251557Y-51518412D01*
X5317246Y-51316243D01*
X5350500Y-51106287D01*
X5350500Y-50893713D01*
X5317246Y-50683757D01*
X5251557Y-50481588D01*
X5155051Y-50292184D01*
X5155049Y-50292181D01*
X5155048Y-50292179D01*
X5033179Y-50124439D01*
X5030109Y-50120214D01*
X5030105Y-50120209D01*
X4965027Y-50055131D01*
X6799500Y-50055131D01*
X6799500Y-51944856D01*
X6799502Y-51944882D01*
X6802413Y-51969987D01*
X6802415Y-51969991D01*
X6847793Y-52072764D01*
X6847794Y-52072765D01*
X6927235Y-52152206D01*
X7030009Y-52197585D01*
X7055135Y-52200500D01*
X8944864Y-52200499D01*
X8944879Y-52200497D01*
X8944882Y-52200497D01*
X8969987Y-52197586D01*
X8969988Y-52197585D01*
X8969991Y-52197585D01*
X9072765Y-52152206D01*
X9152206Y-52072765D01*
X9197585Y-51969991D01*
X9200500Y-51944865D01*
X9200499Y-51530805D01*
X9220183Y-51463769D01*
X9272987Y-51418014D01*
X9342146Y-51408070D01*
X9405702Y-51437095D01*
X9434983Y-51474513D01*
X9513666Y-51628935D01*
X9513667Y-51628936D01*
X9624685Y-51781741D01*
X9624689Y-51781746D01*
X9758253Y-51915310D01*
X9758258Y-51915314D01*
X9911059Y-52026329D01*
X10079362Y-52112085D01*
X10258996Y-52170451D01*
X10390000Y-52191200D01*
X10390000Y-51477445D01*
X10474174Y-51500000D01*
X10605826Y-51500000D01*
X10690000Y-51477445D01*
X10690000Y-52191199D01*
X10821001Y-52170451D01*
X10821004Y-52170451D01*
X11000637Y-52112085D01*
X11168940Y-52026329D01*
X11321741Y-51915314D01*
X11321746Y-51915310D01*
X11455310Y-51781746D01*
X11455314Y-51781741D01*
X11566329Y-51628940D01*
X11652086Y-51460635D01*
X11691806Y-51338389D01*
X11731243Y-51280713D01*
X11795601Y-51253514D01*
X11864448Y-51265428D01*
X11915924Y-51312672D01*
X11927668Y-51338387D01*
X11967454Y-51460836D01*
X12043705Y-51610485D01*
X12053240Y-51629199D01*
X12164310Y-51782073D01*
X12297927Y-51915690D01*
X12450801Y-52026760D01*
X12496536Y-52050063D01*
X12619163Y-52112545D01*
X12619165Y-52112545D01*
X12619168Y-52112547D01*
X12704927Y-52140412D01*
X12798881Y-52170940D01*
X12985514Y-52200500D01*
X12985519Y-52200500D01*
X13174486Y-52200500D01*
X13361118Y-52170940D01*
X13362623Y-52170451D01*
X13540832Y-52112547D01*
X13709199Y-52026760D01*
X13862073Y-51915690D01*
X13995690Y-51782073D01*
X14106760Y-51629199D01*
X14192547Y-51460832D01*
X14232069Y-51339195D01*
X14271507Y-51281521D01*
X14335866Y-51254323D01*
X14404712Y-51266238D01*
X14456188Y-51313482D01*
X14467931Y-51339196D01*
X14507454Y-51460836D01*
X14583705Y-51610485D01*
X14593240Y-51629199D01*
X14704310Y-51782073D01*
X14837927Y-51915690D01*
X14990801Y-52026760D01*
X15036536Y-52050063D01*
X15159163Y-52112545D01*
X15159165Y-52112545D01*
X15159168Y-52112547D01*
X15244927Y-52140412D01*
X15338881Y-52170940D01*
X15525514Y-52200500D01*
X15525519Y-52200500D01*
X15714486Y-52200500D01*
X15901118Y-52170940D01*
X15902623Y-52170451D01*
X16080832Y-52112547D01*
X16249199Y-52026760D01*
X16402073Y-51915690D01*
X16535690Y-51782073D01*
X16646760Y-51629199D01*
X16732547Y-51460832D01*
X16772332Y-51338385D01*
X16811768Y-51280713D01*
X16876127Y-51253514D01*
X16944973Y-51265429D01*
X16996449Y-51312673D01*
X17008193Y-51338388D01*
X17047914Y-51460637D01*
X17133670Y-51628940D01*
X17244685Y-51781741D01*
X17244689Y-51781746D01*
X17378253Y-51915310D01*
X17378258Y-51915314D01*
X17531059Y-52026329D01*
X17699362Y-52112085D01*
X17878996Y-52170451D01*
X18010000Y-52191200D01*
X18010000Y-51477445D01*
X18094174Y-51500000D01*
X18225826Y-51500000D01*
X18310000Y-51477445D01*
X18310000Y-52191199D01*
X18441001Y-52170451D01*
X18441004Y-52170451D01*
X18620637Y-52112085D01*
X18788940Y-52026329D01*
X18941741Y-51915314D01*
X18941746Y-51915310D01*
X19075310Y-51781746D01*
X19075314Y-51781741D01*
X19186329Y-51628940D01*
X19272085Y-51460637D01*
X19330451Y-51281004D01*
X19330451Y-51281001D01*
X19351200Y-51150000D01*
X18637445Y-51150000D01*
X18660000Y-51065826D01*
X18660000Y-50934174D01*
X18637445Y-50850000D01*
X19351200Y-50850000D01*
X19330451Y-50718998D01*
X19330451Y-50718995D01*
X19272085Y-50539362D01*
X19186329Y-50371059D01*
X19075314Y-50218258D01*
X19075310Y-50218253D01*
X18941746Y-50084689D01*
X18941741Y-50084685D01*
X18788940Y-49973670D01*
X18620637Y-49887914D01*
X18441003Y-49829548D01*
X18310000Y-49808798D01*
X18310000Y-50522554D01*
X18225826Y-50500000D01*
X18094174Y-50500000D01*
X18010000Y-50522554D01*
X18010000Y-49808798D01*
X17878997Y-49829548D01*
X17878994Y-49829548D01*
X17699362Y-49887914D01*
X17531059Y-49973670D01*
X17378258Y-50084685D01*
X17378253Y-50084689D01*
X17244689Y-50218253D01*
X17244685Y-50218258D01*
X17133670Y-50371059D01*
X17047915Y-50539361D01*
X17008193Y-50661612D01*
X16968755Y-50719287D01*
X16904396Y-50746485D01*
X16835550Y-50734570D01*
X16784074Y-50687326D01*
X16772332Y-50661614D01*
X16732547Y-50539168D01*
X16646760Y-50370801D01*
X16535690Y-50217927D01*
X16402073Y-50084310D01*
X16249199Y-49973240D01*
X16210357Y-49953449D01*
X16080836Y-49887454D01*
X15901118Y-49829059D01*
X15714486Y-49799500D01*
X15714481Y-49799500D01*
X15525519Y-49799500D01*
X15525514Y-49799500D01*
X15338881Y-49829059D01*
X15159163Y-49887454D01*
X14990800Y-49973240D01*
X14912661Y-50030012D01*
X14837927Y-50084310D01*
X14837925Y-50084312D01*
X14837924Y-50084312D01*
X14704312Y-50217924D01*
X14704312Y-50217925D01*
X14704310Y-50217927D01*
X14669210Y-50266238D01*
X14593240Y-50370800D01*
X14507454Y-50539163D01*
X14467931Y-50660803D01*
X14428493Y-50718478D01*
X14364134Y-50745676D01*
X14295288Y-50733761D01*
X14243812Y-50686516D01*
X14232069Y-50660803D01*
X14212280Y-50599901D01*
X14192547Y-50539168D01*
X14192545Y-50539165D01*
X14192545Y-50539163D01*
X14122457Y-50401608D01*
X14106760Y-50370801D01*
X13995690Y-50217927D01*
X13862073Y-50084310D01*
X13709199Y-49973240D01*
X13670357Y-49953449D01*
X13540836Y-49887454D01*
X13361118Y-49829059D01*
X13174486Y-49799500D01*
X13174481Y-49799500D01*
X12985519Y-49799500D01*
X12985514Y-49799500D01*
X12798881Y-49829059D01*
X12619163Y-49887454D01*
X12450800Y-49973240D01*
X12372661Y-50030012D01*
X12297927Y-50084310D01*
X12297925Y-50084312D01*
X12297924Y-50084312D01*
X12164312Y-50217924D01*
X12164312Y-50217925D01*
X12164310Y-50217927D01*
X12129210Y-50266238D01*
X12053240Y-50370800D01*
X11967454Y-50539163D01*
X11927668Y-50661612D01*
X11888230Y-50719287D01*
X11823871Y-50746485D01*
X11755025Y-50734570D01*
X11703549Y-50687325D01*
X11691806Y-50661611D01*
X11652085Y-50539362D01*
X11566329Y-50371059D01*
X11455314Y-50218258D01*
X11455310Y-50218253D01*
X11321746Y-50084689D01*
X11321741Y-50084685D01*
X11168940Y-49973670D01*
X11000637Y-49887914D01*
X10821003Y-49829548D01*
X10690000Y-49808798D01*
X10690000Y-50522554D01*
X10605826Y-50500000D01*
X10474174Y-50500000D01*
X10390000Y-50522554D01*
X10390000Y-49808798D01*
X10258997Y-49829548D01*
X10258994Y-49829548D01*
X10079362Y-49887914D01*
X9911059Y-49973670D01*
X9758258Y-50084685D01*
X9758253Y-50084689D01*
X9624689Y-50218253D01*
X9624685Y-50218258D01*
X9513667Y-50371063D01*
X9513666Y-50371064D01*
X9434983Y-50525487D01*
X9387009Y-50576283D01*
X9319188Y-50593078D01*
X9253053Y-50570540D01*
X9209602Y-50515825D01*
X9200499Y-50469192D01*
X9200499Y-50055143D01*
X9200499Y-50055136D01*
X9200497Y-50055117D01*
X9197586Y-50030012D01*
X9197585Y-50030010D01*
X9197585Y-50030009D01*
X9152206Y-49927235D01*
X9072765Y-49847794D01*
X9031442Y-49829548D01*
X8969992Y-49802415D01*
X8944865Y-49799500D01*
X7055143Y-49799500D01*
X7055117Y-49799502D01*
X7030012Y-49802413D01*
X7030008Y-49802415D01*
X6927235Y-49847793D01*
X6847794Y-49927234D01*
X6802415Y-50030006D01*
X6802415Y-50030008D01*
X6799500Y-50055131D01*
X4965027Y-50055131D01*
X4879786Y-49969890D01*
X4707820Y-49844951D01*
X4518414Y-49748444D01*
X4518413Y-49748443D01*
X4518412Y-49748443D01*
X4316243Y-49682754D01*
X4316241Y-49682753D01*
X4316240Y-49682753D01*
X4154957Y-49657208D01*
X4106287Y-49649500D01*
X3893713Y-49649500D01*
X3845042Y-49657208D01*
X3683760Y-49682753D01*
X3481585Y-49748444D01*
X3292179Y-49844951D01*
X3120213Y-49969890D01*
X2969890Y-50120213D01*
X2844951Y-50292179D01*
X2748444Y-50481585D01*
X2682753Y-50683760D01*
X2655907Y-50853263D01*
X2649500Y-50893713D01*
X500500Y-50893713D01*
X500500Y-45214071D01*
X14149499Y-45214071D01*
X14174497Y-45339738D01*
X14174499Y-45339744D01*
X14223533Y-45458124D01*
X14223538Y-45458133D01*
X14294723Y-45564668D01*
X14294726Y-45564672D01*
X14385327Y-45655273D01*
X14385331Y-45655276D01*
X14491866Y-45726461D01*
X14491872Y-45726464D01*
X14491873Y-45726465D01*
X14610256Y-45775501D01*
X14610260Y-45775501D01*
X14610261Y-45775502D01*
X14735928Y-45800500D01*
X14735931Y-45800500D01*
X14864071Y-45800500D01*
X14948615Y-45783682D01*
X14989744Y-45775501D01*
X15108127Y-45726465D01*
X15214669Y-45655276D01*
X15258125Y-45611820D01*
X15319448Y-45578334D01*
X15345807Y-45575500D01*
X16754193Y-45575500D01*
X16821232Y-45595185D01*
X16841875Y-45611820D01*
X16885327Y-45655273D01*
X16885331Y-45655276D01*
X16991866Y-45726461D01*
X16991872Y-45726464D01*
X16991873Y-45726465D01*
X17110256Y-45775501D01*
X17110260Y-45775501D01*
X17110261Y-45775502D01*
X17235928Y-45800500D01*
X17235931Y-45800500D01*
X17364071Y-45800500D01*
X17448615Y-45783682D01*
X17489744Y-45775501D01*
X17608127Y-45726465D01*
X17714669Y-45655276D01*
X17805276Y-45564669D01*
X17876465Y-45458127D01*
X17925501Y-45339744D01*
X17950500Y-45214069D01*
X17950500Y-45085931D01*
X17950500Y-45085928D01*
X17925502Y-44960261D01*
X17925501Y-44960260D01*
X17925501Y-44960256D01*
X17885144Y-44862827D01*
X17876466Y-44841875D01*
X17876461Y-44841866D01*
X17805276Y-44735331D01*
X17805273Y-44735327D01*
X17714672Y-44644726D01*
X17714668Y-44644723D01*
X17608133Y-44573538D01*
X17608124Y-44573533D01*
X17489744Y-44524499D01*
X17489738Y-44524497D01*
X17364071Y-44499500D01*
X17364069Y-44499500D01*
X17235931Y-44499500D01*
X17235929Y-44499500D01*
X17110261Y-44524497D01*
X17110255Y-44524499D01*
X16991875Y-44573533D01*
X16991866Y-44573538D01*
X16885331Y-44644723D01*
X16885327Y-44644726D01*
X16841875Y-44688180D01*
X16780552Y-44721666D01*
X16754193Y-44724500D01*
X15345807Y-44724500D01*
X15278768Y-44704815D01*
X15258125Y-44688180D01*
X15214672Y-44644726D01*
X15214668Y-44644723D01*
X15108133Y-44573538D01*
X15108124Y-44573533D01*
X14989744Y-44524499D01*
X14989738Y-44524497D01*
X14864071Y-44499500D01*
X14864069Y-44499500D01*
X14735931Y-44499500D01*
X14735929Y-44499500D01*
X14610261Y-44524497D01*
X14610255Y-44524499D01*
X14491875Y-44573533D01*
X14491866Y-44573538D01*
X14385331Y-44644723D01*
X14385327Y-44644726D01*
X14294726Y-44735327D01*
X14294723Y-44735331D01*
X14223538Y-44841866D01*
X14223533Y-44841875D01*
X14174499Y-44960255D01*
X14174497Y-44960261D01*
X14149500Y-45085928D01*
X14149500Y-45085931D01*
X14149500Y-45214069D01*
X14149500Y-45214071D01*
X14149499Y-45214071D01*
X500500Y-45214071D01*
X500500Y-39368995D01*
X7599499Y-39368995D01*
X7626418Y-39504322D01*
X7626421Y-39504332D01*
X7679221Y-39631804D01*
X7679228Y-39631817D01*
X7755885Y-39746541D01*
X7755888Y-39746545D01*
X7853454Y-39844111D01*
X7853458Y-39844114D01*
X7968182Y-39920771D01*
X7968195Y-39920778D01*
X8055446Y-39956918D01*
X8095672Y-39973580D01*
X8095676Y-39973580D01*
X8095677Y-39973581D01*
X8231004Y-40000500D01*
X8231007Y-40000500D01*
X8368995Y-40000500D01*
X8460041Y-39982389D01*
X8504328Y-39973580D01*
X8631811Y-39920775D01*
X8746542Y-39844114D01*
X8844114Y-39746542D01*
X8920775Y-39631811D01*
X8973580Y-39504328D01*
X8973582Y-39504317D01*
X8975349Y-39498495D01*
X8976544Y-39498857D01*
X9005890Y-39442738D01*
X9041632Y-39416964D01*
X10229044Y-38849071D01*
X10298015Y-38837906D01*
X10329994Y-38846375D01*
X10395672Y-38873580D01*
X10395676Y-38873580D01*
X10395677Y-38873581D01*
X10531004Y-38900500D01*
X10531007Y-38900500D01*
X10668995Y-38900500D01*
X10766337Y-38881137D01*
X10804328Y-38873580D01*
X10931811Y-38820775D01*
X11046542Y-38744114D01*
X11144114Y-38646542D01*
X11220775Y-38531811D01*
X11224112Y-38523756D01*
X11248562Y-38464727D01*
X11273580Y-38404328D01*
X11295819Y-38292526D01*
X11300500Y-38268995D01*
X11300500Y-38131004D01*
X11273581Y-37995677D01*
X11273580Y-37995676D01*
X11273580Y-37995672D01*
X11262682Y-37969361D01*
X11220778Y-37868195D01*
X11220771Y-37868182D01*
X11144114Y-37753458D01*
X11144111Y-37753454D01*
X11046545Y-37655888D01*
X11046541Y-37655885D01*
X10931817Y-37579228D01*
X10931804Y-37579221D01*
X10804332Y-37526421D01*
X10804322Y-37526418D01*
X10668995Y-37499500D01*
X10668993Y-37499500D01*
X10531007Y-37499500D01*
X10531005Y-37499500D01*
X10395677Y-37526418D01*
X10395667Y-37526421D01*
X10268195Y-37579221D01*
X10268182Y-37579228D01*
X10153458Y-37655885D01*
X10153454Y-37655888D01*
X10055888Y-37753454D01*
X10055885Y-37753458D01*
X9979228Y-37868182D01*
X9979221Y-37868195D01*
X9926420Y-37995669D01*
X9924650Y-38001506D01*
X9923460Y-38001145D01*
X9894081Y-38057288D01*
X9858363Y-38083036D01*
X8670954Y-38650926D01*
X8601983Y-38662092D01*
X8570002Y-38653623D01*
X8563491Y-38650926D01*
X8504328Y-38626420D01*
X8504323Y-38626419D01*
X8504322Y-38626418D01*
X8368995Y-38599500D01*
X8368993Y-38599500D01*
X8231007Y-38599500D01*
X8231005Y-38599500D01*
X8095677Y-38626418D01*
X8095667Y-38626421D01*
X7968195Y-38679221D01*
X7968182Y-38679228D01*
X7853458Y-38755885D01*
X7853454Y-38755888D01*
X7755888Y-38853454D01*
X7755885Y-38853458D01*
X7679228Y-38968182D01*
X7679221Y-38968195D01*
X7626421Y-39095667D01*
X7626418Y-39095677D01*
X7599500Y-39231004D01*
X7599500Y-39231007D01*
X7599500Y-39368993D01*
X7599500Y-39368995D01*
X7599499Y-39368995D01*
X500500Y-39368995D01*
X500500Y-29055131D01*
X2799500Y-29055131D01*
X2799500Y-30944856D01*
X2799502Y-30944882D01*
X2802413Y-30969987D01*
X2802415Y-30969991D01*
X2847793Y-31072764D01*
X2847794Y-31072765D01*
X2927235Y-31152206D01*
X3030009Y-31197585D01*
X3055135Y-31200500D01*
X3469193Y-31200499D01*
X3536230Y-31220183D01*
X3581985Y-31272987D01*
X3591929Y-31342146D01*
X3562904Y-31405702D01*
X3525487Y-31434983D01*
X3371061Y-31513668D01*
X3218258Y-31624685D01*
X3218253Y-31624689D01*
X3084689Y-31758253D01*
X3084685Y-31758258D01*
X2973670Y-31911059D01*
X2887914Y-32079362D01*
X2829548Y-32258995D01*
X2829548Y-32258998D01*
X2808800Y-32390000D01*
X3522555Y-32390000D01*
X3500000Y-32474174D01*
X3500000Y-32605826D01*
X3522555Y-32690000D01*
X2808800Y-32690000D01*
X2829548Y-32821001D01*
X2829548Y-32821004D01*
X2887914Y-33000637D01*
X2973670Y-33168940D01*
X3084685Y-33321741D01*
X3084689Y-33321746D01*
X3218253Y-33455310D01*
X3218258Y-33455314D01*
X3371059Y-33566329D01*
X3539362Y-33652085D01*
X3661611Y-33691806D01*
X3719286Y-33731243D01*
X3746485Y-33795602D01*
X3734571Y-33864448D01*
X3687327Y-33915924D01*
X3661612Y-33927668D01*
X3539163Y-33967454D01*
X3370800Y-34053240D01*
X3307332Y-34099353D01*
X3217927Y-34164310D01*
X3217925Y-34164312D01*
X3217924Y-34164312D01*
X3084312Y-34297924D01*
X3084312Y-34297925D01*
X3084310Y-34297927D01*
X3047125Y-34349107D01*
X2973240Y-34450800D01*
X2887454Y-34619163D01*
X2829059Y-34798881D01*
X2799500Y-34985513D01*
X2799500Y-35174486D01*
X2829059Y-35361118D01*
X2887454Y-35540836D01*
X2922518Y-35609652D01*
X2973240Y-35709199D01*
X3084310Y-35862073D01*
X3217927Y-35995690D01*
X3370801Y-36106760D01*
X3415370Y-36129469D01*
X3539163Y-36192545D01*
X3539165Y-36192545D01*
X3539168Y-36192547D01*
X3628734Y-36221649D01*
X3660803Y-36232069D01*
X3718478Y-36271507D01*
X3745676Y-36335866D01*
X3733761Y-36404712D01*
X3686516Y-36456188D01*
X3660803Y-36467931D01*
X3539163Y-36507454D01*
X3370800Y-36593240D01*
X3290210Y-36651793D01*
X3217927Y-36704310D01*
X3217925Y-36704312D01*
X3217924Y-36704312D01*
X3084312Y-36837924D01*
X3084312Y-36837925D01*
X3084310Y-36837927D01*
X3068441Y-36859769D01*
X2973240Y-36990800D01*
X2887454Y-37159163D01*
X2829059Y-37338881D01*
X2799500Y-37525513D01*
X2799500Y-37714486D01*
X2829059Y-37901118D01*
X2887454Y-38080836D01*
X2939785Y-38183540D01*
X2973240Y-38249199D01*
X3084310Y-38402073D01*
X3217927Y-38535690D01*
X3370801Y-38646760D01*
X3434523Y-38679228D01*
X3539163Y-38732545D01*
X3539165Y-38732545D01*
X3539168Y-38732547D01*
X3610995Y-38755885D01*
X3718881Y-38790940D01*
X3905514Y-38820500D01*
X3905519Y-38820500D01*
X4094486Y-38820500D01*
X4281118Y-38790940D01*
X4322269Y-38777569D01*
X4460832Y-38732547D01*
X4629199Y-38646760D01*
X4782073Y-38535690D01*
X4915690Y-38402073D01*
X5026760Y-38249199D01*
X5112547Y-38080832D01*
X5170940Y-37901118D01*
X5174384Y-37879371D01*
X5200500Y-37714486D01*
X5200500Y-37525513D01*
X5170940Y-37338881D01*
X5126841Y-37203161D01*
X5112547Y-37159168D01*
X5112545Y-37159165D01*
X5112545Y-37159163D01*
X5061486Y-37058955D01*
X5026760Y-36990801D01*
X4915690Y-36837927D01*
X4782073Y-36704310D01*
X4629199Y-36593240D01*
X4460836Y-36507454D01*
X4386472Y-36483291D01*
X4339195Y-36467930D01*
X4281521Y-36428493D01*
X4254323Y-36364134D01*
X4266238Y-36295288D01*
X4313482Y-36243812D01*
X4339194Y-36232069D01*
X4460832Y-36192547D01*
X4629199Y-36106760D01*
X4782073Y-35995690D01*
X4915690Y-35862073D01*
X5026760Y-35709199D01*
X5112547Y-35540832D01*
X5170940Y-35361118D01*
X5176966Y-35323069D01*
X5200500Y-35174486D01*
X5200500Y-34985513D01*
X5170940Y-34798881D01*
X5141216Y-34707401D01*
X5112547Y-34619168D01*
X5112545Y-34619165D01*
X5112545Y-34619163D01*
X5036415Y-34469751D01*
X5026760Y-34450801D01*
X4915690Y-34297927D01*
X4782073Y-34164310D01*
X4629199Y-34053240D01*
X4587992Y-34032244D01*
X4460836Y-33967454D01*
X4338387Y-33927668D01*
X4280712Y-33888230D01*
X4253514Y-33823871D01*
X4265429Y-33755025D01*
X4312673Y-33703549D01*
X4338389Y-33691806D01*
X4460635Y-33652086D01*
X4628940Y-33566329D01*
X4781741Y-33455314D01*
X4781746Y-33455310D01*
X4915310Y-33321746D01*
X4915314Y-33321741D01*
X5026329Y-33168940D01*
X5112085Y-33000637D01*
X5170451Y-32821004D01*
X5170451Y-32821001D01*
X5191200Y-32690000D01*
X4477445Y-32690000D01*
X4500000Y-32605826D01*
X4500000Y-32474174D01*
X4477445Y-32390000D01*
X5191200Y-32390000D01*
X5170451Y-32258998D01*
X5170451Y-32258995D01*
X5112085Y-32079362D01*
X5026329Y-31911059D01*
X4915314Y-31758258D01*
X4915310Y-31758253D01*
X4781746Y-31624689D01*
X4781741Y-31624685D01*
X4628940Y-31513670D01*
X4474512Y-31434984D01*
X4423716Y-31387009D01*
X4406921Y-31319188D01*
X4429459Y-31253053D01*
X4484174Y-31209602D01*
X4530805Y-31200499D01*
X4944864Y-31200499D01*
X4944879Y-31200497D01*
X4944882Y-31200497D01*
X4969987Y-31197586D01*
X4969988Y-31197585D01*
X4969991Y-31197585D01*
X5072765Y-31152206D01*
X5152206Y-31072765D01*
X5197585Y-30969991D01*
X5200500Y-30944865D01*
X5200499Y-29055136D01*
X5199675Y-29048030D01*
X5197586Y-29030012D01*
X5197585Y-29030010D01*
X5197585Y-29030009D01*
X5152206Y-28927235D01*
X5072765Y-28847794D01*
X5072763Y-28847793D01*
X4969992Y-28802415D01*
X4944865Y-28799500D01*
X3055143Y-28799500D01*
X3055117Y-28799502D01*
X3030012Y-28802413D01*
X3030008Y-28802415D01*
X2927235Y-28847793D01*
X2847794Y-28927234D01*
X2802415Y-29030006D01*
X2802415Y-29030008D01*
X2799500Y-29055131D01*
X500500Y-29055131D01*
X500500Y-22555943D01*
X16049500Y-22555943D01*
X16049500Y-22714057D01*
X16082862Y-22838564D01*
X16090423Y-22866783D01*
X16090426Y-22866790D01*
X16169475Y-23003709D01*
X16169479Y-23003714D01*
X16169480Y-23003716D01*
X16281284Y-23115520D01*
X16281286Y-23115521D01*
X16281290Y-23115524D01*
X16394992Y-23181169D01*
X16418216Y-23194577D01*
X16570943Y-23235500D01*
X16570945Y-23235500D01*
X16729055Y-23235500D01*
X16729057Y-23235500D01*
X16881784Y-23194577D01*
X17018716Y-23115520D01*
X17037417Y-23096819D01*
X17098740Y-23063334D01*
X17125098Y-23060500D01*
X17502763Y-23060500D01*
X17564763Y-23077113D01*
X17687511Y-23147982D01*
X17687512Y-23147982D01*
X17687515Y-23147984D01*
X17827525Y-23185500D01*
X17827528Y-23185500D01*
X17972472Y-23185500D01*
X17972475Y-23185500D01*
X18112485Y-23147984D01*
X18238015Y-23075509D01*
X18340509Y-22973015D01*
X18412984Y-22847485D01*
X18450500Y-22707475D01*
X18450500Y-22562525D01*
X18412984Y-22422515D01*
X18408074Y-22414011D01*
X18340511Y-22296988D01*
X18340506Y-22296982D01*
X18238017Y-22194493D01*
X18238011Y-22194488D01*
X18112488Y-22122017D01*
X18112489Y-22122017D01*
X18099024Y-22118409D01*
X17972475Y-22084500D01*
X17827525Y-22084500D01*
X17700976Y-22118409D01*
X17687511Y-22122017D01*
X17564763Y-22192887D01*
X17502763Y-22209500D01*
X17125098Y-22209500D01*
X17058059Y-22189815D01*
X17037417Y-22173181D01*
X17018717Y-22154481D01*
X17018709Y-22154475D01*
X16881790Y-22075426D01*
X16881786Y-22075424D01*
X16881784Y-22075423D01*
X16729057Y-22034500D01*
X16570943Y-22034500D01*
X16418216Y-22075423D01*
X16418209Y-22075426D01*
X16281290Y-22154475D01*
X16281282Y-22154481D01*
X16169481Y-22266282D01*
X16169475Y-22266290D01*
X16090426Y-22403209D01*
X16090423Y-22403216D01*
X16049500Y-22555943D01*
X500500Y-22555943D01*
X500500Y-10456671D01*
X15660499Y-10456671D01*
X15685497Y-10582338D01*
X15685499Y-10582344D01*
X15734533Y-10700724D01*
X15734538Y-10700733D01*
X15805723Y-10807268D01*
X15805726Y-10807272D01*
X15896327Y-10897873D01*
X15896331Y-10897876D01*
X16002866Y-10969061D01*
X16002872Y-10969064D01*
X16002873Y-10969065D01*
X16121256Y-11018101D01*
X16121260Y-11018101D01*
X16121261Y-11018102D01*
X16246928Y-11043100D01*
X16246931Y-11043100D01*
X16308390Y-11043100D01*
X16375429Y-11062785D01*
X16396071Y-11079419D01*
X17814281Y-12497629D01*
X17847766Y-12558952D01*
X17850600Y-12585310D01*
X17850600Y-17135392D01*
X17830915Y-17202431D01*
X17814281Y-17223073D01*
X17770826Y-17266527D01*
X17770823Y-17266531D01*
X17699638Y-17373066D01*
X17699633Y-17373075D01*
X17650599Y-17491455D01*
X17650597Y-17491461D01*
X17625600Y-17617128D01*
X17625600Y-17617131D01*
X17625600Y-17745269D01*
X17625600Y-17745271D01*
X17625599Y-17745271D01*
X17650597Y-17870938D01*
X17650599Y-17870944D01*
X17699633Y-17989324D01*
X17699638Y-17989333D01*
X17770823Y-18095868D01*
X17770826Y-18095872D01*
X17861427Y-18186473D01*
X17861431Y-18186476D01*
X17967966Y-18257661D01*
X17967972Y-18257664D01*
X17967973Y-18257665D01*
X18086356Y-18306701D01*
X18086360Y-18306701D01*
X18086361Y-18306702D01*
X18212028Y-18331700D01*
X18212031Y-18331700D01*
X18340171Y-18331700D01*
X18424715Y-18314882D01*
X18465844Y-18306701D01*
X18584227Y-18257665D01*
X18690769Y-18186476D01*
X18781376Y-18095869D01*
X18852565Y-17989327D01*
X18901601Y-17870944D01*
X18915480Y-17801172D01*
X18926600Y-17745271D01*
X18926600Y-17617128D01*
X18901602Y-17491461D01*
X18901601Y-17491460D01*
X18901601Y-17491456D01*
X18852565Y-17373073D01*
X18852564Y-17373072D01*
X18852561Y-17373066D01*
X18781376Y-17266531D01*
X18781373Y-17266527D01*
X18737919Y-17223073D01*
X18704434Y-17161750D01*
X18701600Y-17135392D01*
X18701600Y-12301684D01*
X18701600Y-12301682D01*
X18672603Y-12193463D01*
X18616585Y-12096437D01*
X18537363Y-12017215D01*
X16997819Y-10477671D01*
X16964334Y-10416348D01*
X16961500Y-10389990D01*
X16961500Y-10328528D01*
X16936502Y-10202861D01*
X16936501Y-10202860D01*
X16936501Y-10202856D01*
X16887465Y-10084473D01*
X16887464Y-10084472D01*
X16887461Y-10084466D01*
X16816276Y-9977931D01*
X16816273Y-9977927D01*
X16725672Y-9887326D01*
X16725668Y-9887323D01*
X16619133Y-9816138D01*
X16619124Y-9816133D01*
X16500744Y-9767099D01*
X16500738Y-9767097D01*
X16375071Y-9742100D01*
X16375069Y-9742100D01*
X16246931Y-9742100D01*
X16246929Y-9742100D01*
X16121261Y-9767097D01*
X16121255Y-9767099D01*
X16002875Y-9816133D01*
X16002866Y-9816138D01*
X15896331Y-9887323D01*
X15896327Y-9887326D01*
X15805726Y-9977927D01*
X15805723Y-9977931D01*
X15734538Y-10084466D01*
X15734533Y-10084475D01*
X15685499Y-10202855D01*
X15685497Y-10202861D01*
X15660500Y-10328528D01*
X15660500Y-10328531D01*
X15660500Y-10456669D01*
X15660500Y-10456671D01*
X15660499Y-10456671D01*
X500500Y-10456671D01*
X500500Y-3893713D01*
X2649500Y-3893713D01*
X2649500Y-4106286D01*
X2673282Y-4256443D01*
X2682754Y-4316243D01*
X2748167Y-4517564D01*
X2748444Y-4518414D01*
X2844951Y-4707820D01*
X2969890Y-4879786D01*
X3120213Y-5030109D01*
X3292179Y-5155048D01*
X3292181Y-5155049D01*
X3292184Y-5155051D01*
X3481588Y-5251557D01*
X3683757Y-5317246D01*
X3893713Y-5350500D01*
X3893714Y-5350500D01*
X4106286Y-5350500D01*
X4106287Y-5350500D01*
X4316243Y-5317246D01*
X4518412Y-5251557D01*
X4707816Y-5155051D01*
X4729789Y-5139086D01*
X4879786Y-5030109D01*
X4879788Y-5030106D01*
X4879792Y-5030104D01*
X5030104Y-4879792D01*
X5030106Y-4879788D01*
X5030109Y-4879786D01*
X5155048Y-4707820D01*
X5155047Y-4707820D01*
X5155051Y-4707816D01*
X5251557Y-4518412D01*
X5317246Y-4316243D01*
X5350500Y-4106287D01*
X5350500Y-3893713D01*
X5317246Y-3683757D01*
X5251557Y-3481588D01*
X5155051Y-3292184D01*
X5155049Y-3292181D01*
X5155048Y-3292179D01*
X5030109Y-3120213D01*
X4879786Y-2969890D01*
X4707820Y-2844951D01*
X4518414Y-2748444D01*
X4518413Y-2748443D01*
X4518412Y-2748443D01*
X4316243Y-2682754D01*
X4316241Y-2682753D01*
X4316240Y-2682753D01*
X4154957Y-2657208D01*
X4106287Y-2649500D01*
X3893713Y-2649500D01*
X3845042Y-2657208D01*
X3683760Y-2682753D01*
X3481585Y-2748444D01*
X3292179Y-2844951D01*
X3120213Y-2969890D01*
X2969890Y-3120213D01*
X2844951Y-3292179D01*
X2748444Y-3481585D01*
X2682753Y-3683760D01*
X2649500Y-3893713D01*
X500500Y-3893713D01*
X500500Y-624500D01*
X520185Y-557461D01*
X572989Y-511706D01*
X624500Y-500500D01*
X33876000Y-500500D01*
X33943039Y-520185D01*
G37*
%TD.AperFunction*%
%TA.AperFunction,Conductor*%
G36*
X40404711Y-52804619D02*
G01*
X40456187Y-52851863D01*
X40467931Y-52877579D01*
X40507914Y-53000637D01*
X40593670Y-53168940D01*
X40704685Y-53321741D01*
X40704689Y-53321746D01*
X40838253Y-53455310D01*
X40838258Y-53455314D01*
X40991059Y-53566329D01*
X41159362Y-53652085D01*
X41338996Y-53710451D01*
X41470000Y-53731200D01*
X41470000Y-53017445D01*
X41554174Y-53040000D01*
X41685826Y-53040000D01*
X41770000Y-53017445D01*
X41770000Y-53731199D01*
X41901001Y-53710451D01*
X41901004Y-53710451D01*
X42080637Y-53652085D01*
X42248940Y-53566329D01*
X42401741Y-53455314D01*
X42401745Y-53455311D01*
X42453822Y-53403234D01*
X42515145Y-53369748D01*
X42584837Y-53374732D01*
X42629185Y-53403233D01*
X43396737Y-54170785D01*
X43493763Y-54226803D01*
X43601705Y-54255725D01*
X43661365Y-54292090D01*
X43691894Y-54354937D01*
X43683599Y-54424312D01*
X43639114Y-54478190D01*
X43572562Y-54499465D01*
X43569611Y-54499500D01*
X37153764Y-54499500D01*
X37086725Y-54479815D01*
X37040970Y-54427011D01*
X37031026Y-54357853D01*
X37050662Y-54306609D01*
X37116461Y-54208133D01*
X37116461Y-54208132D01*
X37116465Y-54208127D01*
X37165501Y-54089744D01*
X37180121Y-54016248D01*
X37190500Y-53964071D01*
X37190500Y-53835928D01*
X37165502Y-53710261D01*
X37165501Y-53710257D01*
X37164401Y-53707602D01*
X37158076Y-53692332D01*
X37150607Y-53622864D01*
X37181881Y-53560385D01*
X37199746Y-53544565D01*
X37322073Y-53455690D01*
X37455690Y-53322073D01*
X37566760Y-53169199D01*
X37652547Y-53000832D01*
X37692332Y-52878385D01*
X37731768Y-52820713D01*
X37796127Y-52793514D01*
X37864973Y-52805429D01*
X37916449Y-52852673D01*
X37928193Y-52878388D01*
X37967914Y-53000637D01*
X38053670Y-53168940D01*
X38164685Y-53321741D01*
X38164689Y-53321746D01*
X38298253Y-53455310D01*
X38298258Y-53455314D01*
X38451059Y-53566329D01*
X38619362Y-53652085D01*
X38798996Y-53710451D01*
X38930000Y-53731200D01*
X38930000Y-53017445D01*
X39014174Y-53040000D01*
X39145826Y-53040000D01*
X39230000Y-53017445D01*
X39230000Y-53731199D01*
X39361001Y-53710451D01*
X39361004Y-53710451D01*
X39540637Y-53652085D01*
X39708940Y-53566329D01*
X39861741Y-53455314D01*
X39861746Y-53455310D01*
X39995310Y-53321746D01*
X39995314Y-53321741D01*
X40106329Y-53168940D01*
X40192085Y-53000637D01*
X40232069Y-52877579D01*
X40271506Y-52819904D01*
X40335865Y-52792705D01*
X40404711Y-52804619D01*
G37*
%TD.AperFunction*%
%TA.AperFunction,Conductor*%
G36*
X89442539Y-520185D02*
G01*
X89488294Y-572989D01*
X89499500Y-624500D01*
X89499500Y-54375500D01*
X89479815Y-54442539D01*
X89427011Y-54488294D01*
X89375500Y-54499500D01*
X54798599Y-54499500D01*
X54731560Y-54479815D01*
X54685805Y-54427011D01*
X54675861Y-54357853D01*
X54684038Y-54328048D01*
X54713664Y-54256523D01*
X54714401Y-54254744D01*
X54739400Y-54129069D01*
X54739400Y-54000931D01*
X54739400Y-54000928D01*
X54714402Y-53875261D01*
X54714401Y-53875260D01*
X54714401Y-53875256D01*
X54692307Y-53821917D01*
X54684839Y-53752453D01*
X54716113Y-53689973D01*
X54768555Y-53656536D01*
X54769808Y-53656128D01*
X54780832Y-53652547D01*
X54949199Y-53566760D01*
X55102073Y-53455690D01*
X55235690Y-53322073D01*
X55346760Y-53169199D01*
X55432547Y-53000832D01*
X55472069Y-52879195D01*
X55511507Y-52821521D01*
X55575866Y-52794323D01*
X55644712Y-52806238D01*
X55696188Y-52853482D01*
X55707930Y-52879194D01*
X55723291Y-52926472D01*
X55747454Y-53000836D01*
X55807315Y-53118318D01*
X55833240Y-53169199D01*
X55944310Y-53322073D01*
X56077927Y-53455690D01*
X56230801Y-53566760D01*
X56241798Y-53572363D01*
X56399163Y-53652545D01*
X56399165Y-53652545D01*
X56399168Y-53652547D01*
X56495497Y-53683846D01*
X56578881Y-53710940D01*
X56765514Y-53740500D01*
X56765519Y-53740500D01*
X56954486Y-53740500D01*
X57141118Y-53710940D01*
X57151394Y-53707601D01*
X57320832Y-53652547D01*
X57489199Y-53566760D01*
X57642073Y-53455690D01*
X57775690Y-53322073D01*
X57886760Y-53169199D01*
X57972547Y-53000832D01*
X58030940Y-52821118D01*
X58035440Y-52792705D01*
X58060500Y-52634486D01*
X58060500Y-52445513D01*
X58030940Y-52258881D01*
X57992447Y-52140415D01*
X57972547Y-52079168D01*
X57972545Y-52079165D01*
X57972545Y-52079163D01*
X57919000Y-51974076D01*
X57886760Y-51910801D01*
X57841920Y-51849085D01*
X57818441Y-51783280D01*
X57834266Y-51715226D01*
X57884372Y-51666531D01*
X57942239Y-51652200D01*
X58966590Y-51652200D01*
X59033629Y-51671885D01*
X59054271Y-51688519D01*
X60938115Y-53572363D01*
X61017337Y-53651585D01*
X61114363Y-53707603D01*
X61222582Y-53736600D01*
X61222584Y-53736600D01*
X68991016Y-53736600D01*
X68991018Y-53736600D01*
X69099237Y-53707603D01*
X69196263Y-53651585D01*
X71954135Y-50893713D01*
X84649500Y-50893713D01*
X84649500Y-51106287D01*
X84652792Y-51127071D01*
X84682316Y-51313482D01*
X84682754Y-51316243D01*
X84746902Y-51513670D01*
X84748444Y-51518414D01*
X84844951Y-51707820D01*
X84969890Y-51879786D01*
X85120213Y-52030109D01*
X85292179Y-52155048D01*
X85292181Y-52155049D01*
X85292184Y-52155051D01*
X85481588Y-52251557D01*
X85683757Y-52317246D01*
X85893713Y-52350500D01*
X85893714Y-52350500D01*
X86106286Y-52350500D01*
X86106287Y-52350500D01*
X86316243Y-52317246D01*
X86518412Y-52251557D01*
X86707816Y-52155051D01*
X86766954Y-52112085D01*
X86879786Y-52030109D01*
X86879788Y-52030106D01*
X86879792Y-52030104D01*
X87030104Y-51879792D01*
X87030106Y-51879788D01*
X87030109Y-51879786D01*
X87155048Y-51707820D01*
X87155047Y-51707820D01*
X87155051Y-51707816D01*
X87251557Y-51518412D01*
X87317246Y-51316243D01*
X87350500Y-51106287D01*
X87350500Y-50893713D01*
X87317246Y-50683757D01*
X87251557Y-50481588D01*
X87155051Y-50292184D01*
X87155049Y-50292181D01*
X87155048Y-50292179D01*
X87030109Y-50120213D01*
X86879786Y-49969890D01*
X86707820Y-49844951D01*
X86518414Y-49748444D01*
X86518413Y-49748443D01*
X86518412Y-49748443D01*
X86316243Y-49682754D01*
X86316241Y-49682753D01*
X86316240Y-49682753D01*
X86154957Y-49657208D01*
X86106287Y-49649500D01*
X85893713Y-49649500D01*
X85845042Y-49657208D01*
X85683760Y-49682753D01*
X85481585Y-49748444D01*
X85292179Y-49844951D01*
X85120213Y-49969890D01*
X84969890Y-50120213D01*
X84844951Y-50292179D01*
X84748444Y-50481585D01*
X84682753Y-50683760D01*
X84655907Y-50853263D01*
X84649500Y-50893713D01*
X71954135Y-50893713D01*
X75523614Y-47324234D01*
X76314500Y-47324234D01*
X76314500Y-47475766D01*
X76330809Y-47536633D01*
X76353719Y-47622136D01*
X76391602Y-47687750D01*
X76429485Y-47753365D01*
X76536635Y-47860515D01*
X76667865Y-47936281D01*
X76814234Y-47975500D01*
X76814236Y-47975500D01*
X76965764Y-47975500D01*
X76965766Y-47975500D01*
X77112135Y-47936281D01*
X77243365Y-47860515D01*
X77350515Y-47753365D01*
X77426281Y-47622135D01*
X77465500Y-47475766D01*
X77465500Y-47324234D01*
X77426281Y-47177865D01*
X77350515Y-47046635D01*
X77243365Y-46939485D01*
X77177750Y-46901602D01*
X77112136Y-46863719D01*
X76993749Y-46831998D01*
X76965766Y-46824500D01*
X76814234Y-46824500D01*
X76667863Y-46863719D01*
X76536635Y-46939485D01*
X76536632Y-46939487D01*
X76429487Y-47046632D01*
X76429485Y-47046635D01*
X76353719Y-47177863D01*
X76322984Y-47292571D01*
X76314500Y-47324234D01*
X75523614Y-47324234D01*
X79757684Y-43090164D01*
X79767804Y-43072637D01*
X79813703Y-42993137D01*
X79813704Y-42993134D01*
X79821398Y-42964420D01*
X79821398Y-42964419D01*
X79831539Y-42926571D01*
X79842700Y-42884919D01*
X79842700Y-42772882D01*
X79842700Y-3893713D01*
X84649500Y-3893713D01*
X84649500Y-4106286D01*
X84673282Y-4256443D01*
X84682754Y-4316243D01*
X84748167Y-4517564D01*
X84748444Y-4518414D01*
X84844951Y-4707820D01*
X84969890Y-4879786D01*
X85120213Y-5030109D01*
X85292179Y-5155048D01*
X85292181Y-5155049D01*
X85292184Y-5155051D01*
X85481588Y-5251557D01*
X85683757Y-5317246D01*
X85893713Y-5350500D01*
X85893714Y-5350500D01*
X86106286Y-5350500D01*
X86106287Y-5350500D01*
X86316243Y-5317246D01*
X86518412Y-5251557D01*
X86707816Y-5155051D01*
X86729789Y-5139086D01*
X86879786Y-5030109D01*
X86879788Y-5030106D01*
X86879792Y-5030104D01*
X87030104Y-4879792D01*
X87030106Y-4879788D01*
X87030109Y-4879786D01*
X87155048Y-4707820D01*
X87155047Y-4707820D01*
X87155051Y-4707816D01*
X87251557Y-4518412D01*
X87317246Y-4316243D01*
X87350500Y-4106287D01*
X87350500Y-3893713D01*
X87317246Y-3683757D01*
X87251557Y-3481588D01*
X87155051Y-3292184D01*
X87155049Y-3292181D01*
X87155048Y-3292179D01*
X87030109Y-3120213D01*
X86879786Y-2969890D01*
X86707820Y-2844951D01*
X86518414Y-2748444D01*
X86518413Y-2748443D01*
X86518412Y-2748443D01*
X86316243Y-2682754D01*
X86316241Y-2682753D01*
X86316240Y-2682753D01*
X86154957Y-2657208D01*
X86106287Y-2649500D01*
X85893713Y-2649500D01*
X85845042Y-2657208D01*
X85683760Y-2682753D01*
X85481585Y-2748444D01*
X85292179Y-2844951D01*
X85120213Y-2969890D01*
X84969890Y-3120213D01*
X84844951Y-3292179D01*
X84748444Y-3481585D01*
X84682753Y-3683760D01*
X84649500Y-3893713D01*
X79842700Y-3893713D01*
X79842700Y-3258782D01*
X79813703Y-3150563D01*
X79757685Y-3053537D01*
X79678463Y-2974315D01*
X78185063Y-1480915D01*
X78088037Y-1424897D01*
X77979818Y-1395900D01*
X77979817Y-1395900D01*
X62892200Y-1395900D01*
X62825161Y-1376215D01*
X62779406Y-1323411D01*
X62768200Y-1271900D01*
X62768200Y-1166928D01*
X62743202Y-1041261D01*
X62743201Y-1041260D01*
X62743201Y-1041256D01*
X62694165Y-922873D01*
X62694164Y-922872D01*
X62694161Y-922866D01*
X62622976Y-816331D01*
X62622973Y-816327D01*
X62532372Y-725726D01*
X62527661Y-721860D01*
X62529009Y-720217D01*
X62490376Y-673993D01*
X62481667Y-604668D01*
X62511820Y-541640D01*
X62571263Y-504919D01*
X62604071Y-500500D01*
X89375500Y-500500D01*
X89442539Y-520185D01*
G37*
%TD.AperFunction*%
%TA.AperFunction,Conductor*%
G36*
X65654239Y-19160585D02*
G01*
X65699994Y-19213389D01*
X65709938Y-19282547D01*
X65708817Y-19289089D01*
X65699500Y-19335931D01*
X65699500Y-19464069D01*
X65699500Y-19464071D01*
X65699499Y-19464071D01*
X65724497Y-19589738D01*
X65724499Y-19589744D01*
X65773533Y-19708124D01*
X65773538Y-19708133D01*
X65844723Y-19814668D01*
X65844726Y-19814672D01*
X65935327Y-19905273D01*
X65935331Y-19905276D01*
X66041866Y-19976461D01*
X66041872Y-19976464D01*
X66041873Y-19976465D01*
X66160256Y-20025501D01*
X66160260Y-20025501D01*
X66160261Y-20025502D01*
X66285928Y-20050500D01*
X66285931Y-20050500D01*
X66347390Y-20050500D01*
X66414429Y-20070185D01*
X66435071Y-20086819D01*
X74727681Y-28379429D01*
X74761166Y-28440752D01*
X74764000Y-28467110D01*
X74764000Y-32360990D01*
X74744315Y-32428029D01*
X74691511Y-32473784D01*
X74622353Y-32483728D01*
X74558797Y-32454703D01*
X74552319Y-32448671D01*
X74394019Y-32290371D01*
X74360534Y-32229048D01*
X74357700Y-32202690D01*
X74357700Y-32141228D01*
X74332702Y-32015561D01*
X74332701Y-32015560D01*
X74332701Y-32015556D01*
X74283665Y-31897173D01*
X74283664Y-31897172D01*
X74283661Y-31897166D01*
X74212476Y-31790631D01*
X74212473Y-31790627D01*
X74121872Y-31700026D01*
X74121868Y-31700023D01*
X74015333Y-31628838D01*
X74015324Y-31628833D01*
X73896944Y-31579799D01*
X73896938Y-31579797D01*
X73771271Y-31554800D01*
X73771269Y-31554800D01*
X73643131Y-31554800D01*
X73643129Y-31554800D01*
X73517461Y-31579797D01*
X73517455Y-31579799D01*
X73399075Y-31628833D01*
X73399066Y-31628838D01*
X73292531Y-31700023D01*
X73292527Y-31700026D01*
X73201926Y-31790627D01*
X73201923Y-31790631D01*
X73130738Y-31897166D01*
X73130733Y-31897175D01*
X73081699Y-32015555D01*
X73081697Y-32015561D01*
X73056700Y-32141228D01*
X73056700Y-32141231D01*
X73056700Y-32269369D01*
X73056700Y-32269371D01*
X73056699Y-32269371D01*
X73081697Y-32395038D01*
X73081699Y-32395044D01*
X73130733Y-32513424D01*
X73130738Y-32513433D01*
X73201923Y-32619968D01*
X73201926Y-32619972D01*
X73292527Y-32710573D01*
X73292531Y-32710576D01*
X73399066Y-32781761D01*
X73399072Y-32781764D01*
X73399073Y-32781765D01*
X73517456Y-32830801D01*
X73517460Y-32830801D01*
X73517461Y-32830802D01*
X73643128Y-32855800D01*
X73643131Y-32855800D01*
X73704590Y-32855800D01*
X73771629Y-32875485D01*
X73792271Y-32892119D01*
X74226281Y-33326129D01*
X74259766Y-33387452D01*
X74262600Y-33413810D01*
X74262600Y-36016675D01*
X74242915Y-36083714D01*
X74190111Y-36129469D01*
X74162794Y-36138292D01*
X74143158Y-36142198D01*
X74143157Y-36142198D01*
X74024775Y-36191233D01*
X74024766Y-36191238D01*
X73918231Y-36262423D01*
X73918227Y-36262426D01*
X73827626Y-36353027D01*
X73827623Y-36353031D01*
X73756438Y-36459566D01*
X73756433Y-36459575D01*
X73707399Y-36577955D01*
X73707397Y-36577961D01*
X73682400Y-36703628D01*
X73682400Y-36703631D01*
X73682400Y-36831769D01*
X73682400Y-36831771D01*
X73682399Y-36831771D01*
X73707397Y-36957438D01*
X73707399Y-36957444D01*
X73756433Y-37075824D01*
X73756438Y-37075833D01*
X73827623Y-37182368D01*
X73827626Y-37182372D01*
X73918227Y-37272973D01*
X73918231Y-37272976D01*
X74024766Y-37344161D01*
X74024772Y-37344164D01*
X74024773Y-37344165D01*
X74143156Y-37393201D01*
X74143160Y-37393201D01*
X74143161Y-37393202D01*
X74268828Y-37418200D01*
X74268831Y-37418200D01*
X74396971Y-37418200D01*
X74481515Y-37401382D01*
X74522644Y-37393201D01*
X74592547Y-37364245D01*
X74662017Y-37356777D01*
X74724496Y-37388052D01*
X74760148Y-37448141D01*
X74764000Y-37478807D01*
X74764000Y-41956700D01*
X74744315Y-42023739D01*
X74691511Y-42069494D01*
X74640000Y-42080700D01*
X74592229Y-42080700D01*
X74466561Y-42105697D01*
X74466555Y-42105699D01*
X74348175Y-42154733D01*
X74348166Y-42154738D01*
X74241631Y-42225923D01*
X74241627Y-42225926D01*
X74151026Y-42316527D01*
X74151023Y-42316531D01*
X74079838Y-42423066D01*
X74079833Y-42423075D01*
X74030799Y-42541455D01*
X74030797Y-42541461D01*
X74005800Y-42667128D01*
X74005800Y-42667131D01*
X74005800Y-42795269D01*
X74005800Y-42795271D01*
X74005799Y-42795271D01*
X74030797Y-42920938D01*
X74030799Y-42920944D01*
X74079833Y-43039324D01*
X74079838Y-43039333D01*
X74151023Y-43145868D01*
X74151026Y-43145872D01*
X74241627Y-43236473D01*
X74241631Y-43236476D01*
X74348166Y-43307661D01*
X74348172Y-43307664D01*
X74348173Y-43307665D01*
X74466556Y-43356701D01*
X74466560Y-43356701D01*
X74466561Y-43356702D01*
X74592228Y-43381700D01*
X74592231Y-43381700D01*
X74720371Y-43381700D01*
X74836331Y-43358633D01*
X74846044Y-43356701D01*
X74964427Y-43307665D01*
X75070969Y-43236476D01*
X75161576Y-43145869D01*
X75232765Y-43039327D01*
X75281801Y-42920944D01*
X75291694Y-42871204D01*
X75324078Y-42809297D01*
X75325565Y-42807781D01*
X75329441Y-42803906D01*
X75390768Y-42770430D01*
X75417110Y-42767600D01*
X76082093Y-42767600D01*
X76149132Y-42787285D01*
X76169775Y-42803920D01*
X76213227Y-42847373D01*
X76213235Y-42847379D01*
X76253915Y-42874561D01*
X76298721Y-42928173D01*
X76307428Y-42997498D01*
X76277274Y-43060525D01*
X76272706Y-43065344D01*
X75311671Y-44026381D01*
X75250348Y-44059866D01*
X75223990Y-44062700D01*
X74609707Y-44062700D01*
X74542668Y-44043015D01*
X74522025Y-44026380D01*
X74478572Y-43982926D01*
X74478568Y-43982923D01*
X74372033Y-43911738D01*
X74372024Y-43911733D01*
X74253644Y-43862699D01*
X74253638Y-43862697D01*
X74127971Y-43837700D01*
X74127969Y-43837700D01*
X73999831Y-43837700D01*
X73999829Y-43837700D01*
X73874161Y-43862697D01*
X73874155Y-43862699D01*
X73755775Y-43911733D01*
X73755766Y-43911738D01*
X73649231Y-43982923D01*
X73649227Y-43982926D01*
X73558626Y-44073527D01*
X73558623Y-44073531D01*
X73487438Y-44180066D01*
X73487433Y-44180075D01*
X73438399Y-44298455D01*
X73438397Y-44298461D01*
X73413400Y-44424128D01*
X73413400Y-44424131D01*
X73413400Y-44552269D01*
X73413400Y-44552271D01*
X73413399Y-44552271D01*
X73438397Y-44677938D01*
X73438399Y-44677944D01*
X73487433Y-44796324D01*
X73487438Y-44796333D01*
X73558623Y-44902868D01*
X73558626Y-44902872D01*
X73649227Y-44993473D01*
X73649231Y-44993476D01*
X73755766Y-45064661D01*
X73755775Y-45064666D01*
X73759778Y-45066324D01*
X73874156Y-45113701D01*
X73874160Y-45113701D01*
X73874161Y-45113702D01*
X73999828Y-45138700D01*
X73999831Y-45138700D01*
X74127971Y-45138700D01*
X74212515Y-45121882D01*
X74253644Y-45113701D01*
X74372027Y-45064665D01*
X74478569Y-44993476D01*
X74522025Y-44950020D01*
X74583348Y-44916534D01*
X74609707Y-44913700D01*
X75507616Y-44913700D01*
X75507618Y-44913700D01*
X75615837Y-44884703D01*
X75712863Y-44828685D01*
X78780019Y-41761529D01*
X78841342Y-41728044D01*
X78911034Y-41733028D01*
X78966967Y-41774900D01*
X78991384Y-41840364D01*
X78991700Y-41849210D01*
X78991700Y-42601290D01*
X78972015Y-42668329D01*
X78955381Y-42688971D01*
X68795071Y-52849281D01*
X68733748Y-52882766D01*
X68707390Y-52885600D01*
X61506210Y-52885600D01*
X61439171Y-52865915D01*
X61418529Y-52849281D01*
X61409529Y-52840281D01*
X61376044Y-52778958D01*
X61381028Y-52709266D01*
X61422900Y-52653333D01*
X61488364Y-52628916D01*
X61497210Y-52628600D01*
X62658016Y-52628600D01*
X62658018Y-52628600D01*
X62766237Y-52599603D01*
X62863263Y-52543585D01*
X63356785Y-52050063D01*
X63356786Y-52050060D01*
X63358214Y-52048633D01*
X63419537Y-52015148D01*
X63489228Y-52020132D01*
X63514786Y-52033212D01*
X63573683Y-52072566D01*
X63573692Y-52072571D01*
X63737477Y-52140412D01*
X63737487Y-52140415D01*
X63849999Y-52162795D01*
X63850000Y-52162795D01*
X63850000Y-51346410D01*
X63855255Y-51349444D01*
X63950630Y-51375000D01*
X64049370Y-51375000D01*
X64144745Y-51349444D01*
X64150000Y-51346410D01*
X64150000Y-52162795D01*
X64262512Y-52140415D01*
X64262522Y-52140412D01*
X64426307Y-52072571D01*
X64426316Y-52072566D01*
X64573716Y-51974076D01*
X64573720Y-51974073D01*
X64699073Y-51848720D01*
X64699076Y-51848716D01*
X64797566Y-51701316D01*
X64797571Y-51701307D01*
X64865413Y-51537520D01*
X64865415Y-51537512D01*
X64899999Y-51363646D01*
X64900000Y-51363643D01*
X64900000Y-51150000D01*
X64346410Y-51150000D01*
X64349444Y-51144745D01*
X64375000Y-51049370D01*
X64375000Y-50950630D01*
X64349444Y-50855255D01*
X64346410Y-50850000D01*
X64900000Y-50850000D01*
X64900000Y-50636357D01*
X64899999Y-50636353D01*
X64865415Y-50462487D01*
X64865413Y-50462479D01*
X64797571Y-50298692D01*
X64797566Y-50298683D01*
X64699076Y-50151283D01*
X64699073Y-50151279D01*
X64573720Y-50025926D01*
X64573716Y-50025923D01*
X64426316Y-49927433D01*
X64426307Y-49927428D01*
X64320580Y-49883635D01*
X64266177Y-49839794D01*
X64244112Y-49773500D01*
X64261391Y-49705801D01*
X64280345Y-49681401D01*
X66637513Y-47324234D01*
X70534500Y-47324234D01*
X70534500Y-47475766D01*
X70550809Y-47536633D01*
X70573719Y-47622136D01*
X70611602Y-47687750D01*
X70649485Y-47753365D01*
X70756635Y-47860515D01*
X70887865Y-47936281D01*
X71034234Y-47975500D01*
X71034236Y-47975500D01*
X71185764Y-47975500D01*
X71185766Y-47975500D01*
X71332135Y-47936281D01*
X71463365Y-47860515D01*
X71570515Y-47753365D01*
X71646281Y-47622135D01*
X71685500Y-47475766D01*
X71685500Y-47324234D01*
X71646281Y-47177865D01*
X71570515Y-47046635D01*
X71463365Y-46939485D01*
X71397750Y-46901602D01*
X71332136Y-46863719D01*
X71213749Y-46831998D01*
X71185766Y-46824500D01*
X71034234Y-46824500D01*
X70887863Y-46863719D01*
X70756635Y-46939485D01*
X70756632Y-46939487D01*
X70649487Y-47046632D01*
X70649485Y-47046635D01*
X70573719Y-47177863D01*
X70542984Y-47292571D01*
X70534500Y-47324234D01*
X66637513Y-47324234D01*
X68055228Y-45906519D01*
X68116551Y-45873034D01*
X68142909Y-45870200D01*
X69956516Y-45870200D01*
X69956518Y-45870200D01*
X70064737Y-45841203D01*
X70161763Y-45785185D01*
X71539053Y-44407892D01*
X71539058Y-44407889D01*
X71549261Y-44397685D01*
X71549263Y-44397685D01*
X71628485Y-44318463D01*
X71684503Y-44221437D01*
X71704257Y-44147715D01*
X71713500Y-44113219D01*
X71713500Y-44001182D01*
X71713500Y-36156107D01*
X71733185Y-36089068D01*
X71749820Y-36068425D01*
X71793273Y-36024972D01*
X71793276Y-36024969D01*
X71864465Y-35918427D01*
X71913501Y-35800044D01*
X71938500Y-35674369D01*
X71938500Y-35546231D01*
X71938500Y-35546228D01*
X71913502Y-35420561D01*
X71913501Y-35420560D01*
X71913501Y-35420556D01*
X71867827Y-35310290D01*
X71864466Y-35302175D01*
X71864461Y-35302166D01*
X71793276Y-35195631D01*
X71793273Y-35195627D01*
X71702672Y-35105026D01*
X71702668Y-35105023D01*
X71596133Y-35033838D01*
X71596124Y-35033833D01*
X71477744Y-34984799D01*
X71477738Y-34984797D01*
X71352071Y-34959800D01*
X71352069Y-34959800D01*
X71223931Y-34959800D01*
X71223929Y-34959800D01*
X71098261Y-34984797D01*
X71098255Y-34984799D01*
X70979875Y-35033833D01*
X70979866Y-35033838D01*
X70869291Y-35107723D01*
X70802613Y-35128601D01*
X70735233Y-35110116D01*
X70688543Y-35058138D01*
X70676400Y-35004621D01*
X70676400Y-31554784D01*
X70676400Y-31554782D01*
X70647403Y-31446563D01*
X70591385Y-31349537D01*
X70512163Y-31270315D01*
X70512162Y-31270314D01*
X70507832Y-31265984D01*
X70507821Y-31265974D01*
X69476419Y-30234571D01*
X69442934Y-30173248D01*
X69440100Y-30146890D01*
X69440100Y-29913384D01*
X69440100Y-29913382D01*
X69411103Y-29805163D01*
X69355085Y-29708137D01*
X69275863Y-29628915D01*
X64953919Y-25306971D01*
X64920434Y-25245648D01*
X64917600Y-25219290D01*
X64917600Y-21495307D01*
X64937285Y-21428268D01*
X64953920Y-21407625D01*
X64997373Y-21364172D01*
X64997376Y-21364169D01*
X65068565Y-21257627D01*
X65117601Y-21139244D01*
X65125782Y-21098115D01*
X65142600Y-21013571D01*
X65142600Y-20993710D01*
X65162285Y-20926671D01*
X65215089Y-20880916D01*
X65284247Y-20870972D01*
X65347803Y-20899997D01*
X65354281Y-20906029D01*
X68953781Y-24505529D01*
X68987266Y-24566852D01*
X68990100Y-24593210D01*
X68990100Y-24966692D01*
X68970415Y-25033731D01*
X68953781Y-25054373D01*
X68910326Y-25097827D01*
X68910323Y-25097831D01*
X68839138Y-25204366D01*
X68839133Y-25204375D01*
X68790099Y-25322755D01*
X68790097Y-25322761D01*
X68765100Y-25448428D01*
X68765100Y-25448431D01*
X68765100Y-25576569D01*
X68765100Y-25576571D01*
X68765099Y-25576571D01*
X68790097Y-25702238D01*
X68790099Y-25702244D01*
X68839133Y-25820624D01*
X68839138Y-25820633D01*
X68910323Y-25927168D01*
X68910326Y-25927172D01*
X69000927Y-26017773D01*
X69000931Y-26017776D01*
X69107466Y-26088961D01*
X69107472Y-26088964D01*
X69107473Y-26088965D01*
X69225856Y-26138001D01*
X69225860Y-26138001D01*
X69225861Y-26138002D01*
X69351528Y-26163000D01*
X69351531Y-26163000D01*
X69479671Y-26163000D01*
X69564215Y-26146182D01*
X69605344Y-26138001D01*
X69723727Y-26088965D01*
X69830269Y-26017776D01*
X69920876Y-25927169D01*
X69992065Y-25820627D01*
X70041101Y-25702244D01*
X70055184Y-25631448D01*
X70066100Y-25576571D01*
X70066100Y-25448428D01*
X70041102Y-25322761D01*
X70041101Y-25322760D01*
X70041101Y-25322756D01*
X69992409Y-25205203D01*
X69992066Y-25204375D01*
X69992061Y-25204366D01*
X69920876Y-25097831D01*
X69920873Y-25097827D01*
X69877419Y-25054373D01*
X69843934Y-24993050D01*
X69841100Y-24966692D01*
X69841100Y-24309584D01*
X69841100Y-24309582D01*
X69812103Y-24201363D01*
X69756085Y-24104337D01*
X69676863Y-24025115D01*
X65142218Y-19490470D01*
X65108734Y-19429148D01*
X65105900Y-19402790D01*
X65105900Y-19341328D01*
X65095509Y-19289092D01*
X65101736Y-19219501D01*
X65144598Y-19164323D01*
X65210488Y-19141078D01*
X65217126Y-19140900D01*
X65587200Y-19140900D01*
X65654239Y-19160585D01*
G37*
%TD.AperFunction*%
%TA.AperFunction,Conductor*%
G36*
X40416578Y-52390000D02*
G01*
X41142555Y-52390000D01*
X41120000Y-52474174D01*
X41120000Y-52605826D01*
X41142555Y-52690000D01*
X40416506Y-52690000D01*
X40385783Y-52710056D01*
X40315915Y-52710554D01*
X40283425Y-52690000D01*
X39557445Y-52690000D01*
X39580000Y-52605826D01*
X39580000Y-52474174D01*
X39557445Y-52390000D01*
X40283493Y-52390000D01*
X40314215Y-52369944D01*
X40384083Y-52369444D01*
X40416578Y-52390000D01*
G37*
%TD.AperFunction*%
%TA.AperFunction,Conductor*%
G36*
X42407539Y-52409685D02*
G01*
X42453294Y-52462489D01*
X42464500Y-52514000D01*
X42464500Y-52566000D01*
X42444815Y-52633039D01*
X42392011Y-52678794D01*
X42340500Y-52690000D01*
X42097445Y-52690000D01*
X42120000Y-52605826D01*
X42120000Y-52474174D01*
X42097445Y-52390000D01*
X42340500Y-52390000D01*
X42407539Y-52409685D01*
G37*
%TD.AperFunction*%
%TA.AperFunction,Conductor*%
G36*
X43660000Y-52474174D02*
G01*
X43660000Y-52605826D01*
X43682555Y-52690000D01*
X43439500Y-52690000D01*
X43372461Y-52670315D01*
X43326706Y-52617511D01*
X43315500Y-52566000D01*
X43315500Y-52514000D01*
X43335185Y-52446961D01*
X43387989Y-52401206D01*
X43439500Y-52390000D01*
X43682555Y-52390000D01*
X43660000Y-52474174D01*
G37*
%TD.AperFunction*%
%TA.AperFunction,Conductor*%
G36*
X42944712Y-50266238D02*
G01*
X42996188Y-50313482D01*
X43007930Y-50339194D01*
X43015787Y-50363375D01*
X43047454Y-50460836D01*
X43133240Y-50629199D01*
X43244310Y-50782073D01*
X43377927Y-50915690D01*
X43530801Y-51026760D01*
X43699168Y-51112547D01*
X43821612Y-51152331D01*
X43879287Y-51191769D01*
X43906485Y-51256127D01*
X43894570Y-51324974D01*
X43847326Y-51376449D01*
X43821612Y-51388193D01*
X43699361Y-51427915D01*
X43531059Y-51513670D01*
X43378255Y-51624687D01*
X43349975Y-51652967D01*
X43288651Y-51686451D01*
X43218960Y-51681465D01*
X43174616Y-51652967D01*
X43151265Y-51629617D01*
X42507386Y-50985738D01*
X42473901Y-50924415D01*
X42478885Y-50854723D01*
X42507383Y-50810379D01*
X42535690Y-50782073D01*
X42646760Y-50629199D01*
X42732547Y-50460832D01*
X42772069Y-50339195D01*
X42811507Y-50281521D01*
X42875866Y-50254323D01*
X42944712Y-50266238D01*
G37*
%TD.AperFunction*%
%TA.AperFunction,Conductor*%
G36*
X35276846Y-43353585D02*
G01*
X35322601Y-43406389D01*
X35332545Y-43475547D01*
X35331424Y-43482092D01*
X35308800Y-43595828D01*
X35308800Y-43595831D01*
X35308800Y-43723969D01*
X35308800Y-43723971D01*
X35308799Y-43723971D01*
X35333797Y-43849638D01*
X35333799Y-43849644D01*
X35382833Y-43968024D01*
X35382838Y-43968033D01*
X35454023Y-44074568D01*
X35454026Y-44074572D01*
X35544627Y-44165173D01*
X35544631Y-44165176D01*
X35651166Y-44236361D01*
X35651175Y-44236366D01*
X35677992Y-44247474D01*
X35769556Y-44285401D01*
X35769560Y-44285401D01*
X35769561Y-44285402D01*
X35895228Y-44310400D01*
X35895231Y-44310400D01*
X35956690Y-44310400D01*
X36023729Y-44330085D01*
X36044371Y-44346719D01*
X36509274Y-44811621D01*
X36509284Y-44811632D01*
X36513614Y-44815962D01*
X36513615Y-44815963D01*
X36592837Y-44895185D01*
X36673341Y-44941664D01*
X36689863Y-44951203D01*
X36798081Y-44980200D01*
X36798082Y-44980200D01*
X39327493Y-44980200D01*
X39394532Y-44999885D01*
X39415175Y-45016520D01*
X39458627Y-45059973D01*
X39458631Y-45059976D01*
X39565166Y-45131161D01*
X39565172Y-45131164D01*
X39565173Y-45131165D01*
X39683556Y-45180201D01*
X39683560Y-45180201D01*
X39683561Y-45180202D01*
X39809228Y-45205200D01*
X39809231Y-45205200D01*
X39937371Y-45205200D01*
X40021915Y-45188382D01*
X40063044Y-45180201D01*
X40181427Y-45131165D01*
X40287969Y-45059976D01*
X40378576Y-44969369D01*
X40392960Y-44947840D01*
X40421463Y-44905185D01*
X40475075Y-44860379D01*
X40544400Y-44851672D01*
X40607427Y-44881826D01*
X40612246Y-44886394D01*
X40793781Y-45067929D01*
X40827266Y-45129252D01*
X40830100Y-45155610D01*
X40830100Y-45279382D01*
X40830100Y-45391418D01*
X40851751Y-45472219D01*
X40859097Y-45499636D01*
X40859098Y-45499639D01*
X40864021Y-45508166D01*
X40915115Y-45596663D01*
X40915117Y-45596665D01*
X43938939Y-48620487D01*
X43972424Y-48681810D01*
X43967440Y-48751502D01*
X43925568Y-48807435D01*
X43883412Y-48827234D01*
X43883516Y-48827554D01*
X43880973Y-48828380D01*
X43880203Y-48828742D01*
X43878888Y-48829057D01*
X43699163Y-48887454D01*
X43530800Y-48973240D01*
X43452661Y-49030012D01*
X43377927Y-49084310D01*
X43377925Y-49084312D01*
X43377924Y-49084312D01*
X43244312Y-49217924D01*
X43244312Y-49217925D01*
X43244310Y-49217927D01*
X43225612Y-49243663D01*
X43133240Y-49370800D01*
X43047454Y-49539163D01*
X43007931Y-49660803D01*
X42968493Y-49718478D01*
X42904134Y-49745676D01*
X42835288Y-49733761D01*
X42783812Y-49686516D01*
X42772069Y-49660803D01*
X42744027Y-49574500D01*
X42732547Y-49539168D01*
X42732545Y-49539165D01*
X42732545Y-49539163D01*
X42646759Y-49370800D01*
X42641828Y-49364013D01*
X42535690Y-49217927D01*
X42402073Y-49084310D01*
X42249199Y-48973240D01*
X42243274Y-48970221D01*
X42080836Y-48887454D01*
X41901118Y-48829059D01*
X41714486Y-48799500D01*
X41714481Y-48799500D01*
X41525519Y-48799500D01*
X41525514Y-48799500D01*
X41338881Y-48829059D01*
X41159163Y-48887454D01*
X40990800Y-48973240D01*
X40912661Y-49030012D01*
X40837927Y-49084310D01*
X40837925Y-49084312D01*
X40837924Y-49084312D01*
X40704312Y-49217924D01*
X40704312Y-49217925D01*
X40704310Y-49217927D01*
X40685612Y-49243663D01*
X40593240Y-49370800D01*
X40507454Y-49539163D01*
X40467931Y-49660803D01*
X40428493Y-49718478D01*
X40364134Y-49745676D01*
X40295288Y-49733761D01*
X40243812Y-49686516D01*
X40232069Y-49660803D01*
X40204027Y-49574500D01*
X40192547Y-49539168D01*
X40192545Y-49539165D01*
X40192545Y-49539163D01*
X40106759Y-49370800D01*
X40101828Y-49364013D01*
X39995690Y-49217927D01*
X39862073Y-49084310D01*
X39709199Y-48973240D01*
X39703274Y-48970221D01*
X39540836Y-48887454D01*
X39361118Y-48829059D01*
X39174486Y-48799500D01*
X39174481Y-48799500D01*
X38985519Y-48799500D01*
X38985514Y-48799500D01*
X38798881Y-48829059D01*
X38619163Y-48887454D01*
X38450800Y-48973240D01*
X38372661Y-49030012D01*
X38297927Y-49084310D01*
X38297925Y-49084312D01*
X38297924Y-49084312D01*
X38164312Y-49217924D01*
X38164312Y-49217925D01*
X38164310Y-49217927D01*
X38145612Y-49243663D01*
X38053240Y-49370800D01*
X37967454Y-49539163D01*
X37927931Y-49660803D01*
X37888493Y-49718478D01*
X37824134Y-49745676D01*
X37755288Y-49733761D01*
X37703812Y-49686516D01*
X37692069Y-49660803D01*
X37664027Y-49574500D01*
X37652547Y-49539168D01*
X37652545Y-49539165D01*
X37652545Y-49539163D01*
X37566759Y-49370800D01*
X37561828Y-49364013D01*
X37455690Y-49217927D01*
X37322073Y-49084310D01*
X37169199Y-48973240D01*
X37163274Y-48970221D01*
X37000836Y-48887454D01*
X36821118Y-48829059D01*
X36634486Y-48799500D01*
X36634481Y-48799500D01*
X36445519Y-48799500D01*
X36445514Y-48799500D01*
X36258881Y-48829059D01*
X36079163Y-48887454D01*
X35910800Y-48973240D01*
X35832661Y-49030012D01*
X35757927Y-49084310D01*
X35757925Y-49084312D01*
X35757924Y-49084312D01*
X35624312Y-49217924D01*
X35624312Y-49217925D01*
X35624310Y-49217927D01*
X35605612Y-49243663D01*
X35513240Y-49370800D01*
X35434984Y-49524386D01*
X35387009Y-49575182D01*
X35319188Y-49591977D01*
X35253053Y-49569439D01*
X35209602Y-49514724D01*
X35200499Y-49468091D01*
X35200499Y-49055143D01*
X35200499Y-49055137D01*
X35200499Y-49055136D01*
X35200497Y-49055117D01*
X35197586Y-49030012D01*
X35197585Y-49030010D01*
X35197585Y-49030009D01*
X35152206Y-48927235D01*
X35072765Y-48847794D01*
X35072763Y-48847793D01*
X34969992Y-48802415D01*
X34944865Y-48799500D01*
X33055143Y-48799500D01*
X33055117Y-48799502D01*
X33030012Y-48802413D01*
X33030008Y-48802415D01*
X32927235Y-48847793D01*
X32847794Y-48927234D01*
X32802415Y-49030006D01*
X32802415Y-49030008D01*
X32802415Y-49030009D01*
X32799500Y-49055135D01*
X32799500Y-49969896D01*
X32799501Y-50763800D01*
X32779816Y-50830839D01*
X32727013Y-50876594D01*
X32675501Y-50887800D01*
X31469047Y-50887800D01*
X31402008Y-50868115D01*
X31400156Y-50866902D01*
X31324333Y-50816238D01*
X31324324Y-50816233D01*
X31205944Y-50767199D01*
X31205938Y-50767197D01*
X31080271Y-50742200D01*
X31080269Y-50742200D01*
X30952131Y-50742200D01*
X30952129Y-50742200D01*
X30826461Y-50767197D01*
X30826455Y-50767199D01*
X30708075Y-50816233D01*
X30708066Y-50816238D01*
X30601531Y-50887423D01*
X30601527Y-50887426D01*
X30510926Y-50978027D01*
X30510923Y-50978031D01*
X30439738Y-51084566D01*
X30439733Y-51084575D01*
X30390700Y-51202953D01*
X30390697Y-51202961D01*
X30365700Y-51328628D01*
X30365700Y-51399390D01*
X30346015Y-51466429D01*
X30293211Y-51512184D01*
X30224053Y-51522128D01*
X30160497Y-51493103D01*
X30154019Y-51487071D01*
X29769965Y-51103017D01*
X29769963Y-51103015D01*
X29672937Y-51046997D01*
X29564718Y-51018000D01*
X29564717Y-51018000D01*
X29542344Y-51018000D01*
X29475305Y-50998315D01*
X29429550Y-50945511D01*
X29419606Y-50876353D01*
X29421631Y-50867241D01*
X29421513Y-50867218D01*
X29447700Y-50735571D01*
X29447700Y-50607428D01*
X29422702Y-50481761D01*
X29422701Y-50481760D01*
X29422701Y-50481756D01*
X29373665Y-50363373D01*
X29373664Y-50363372D01*
X29373661Y-50363366D01*
X29302476Y-50256831D01*
X29302473Y-50256827D01*
X29259019Y-50213373D01*
X29225534Y-50152050D01*
X29222700Y-50125692D01*
X29222700Y-45091685D01*
X29222699Y-45091678D01*
X29221553Y-45087403D01*
X29221549Y-45087388D01*
X29191600Y-44975612D01*
X29192329Y-44975416D01*
X29184700Y-44937062D01*
X29184700Y-44820628D01*
X29159702Y-44694961D01*
X29159701Y-44694960D01*
X29159701Y-44694956D01*
X29116860Y-44591528D01*
X29110666Y-44576575D01*
X29107792Y-44571198D01*
X29109213Y-44570437D01*
X29090668Y-44511221D01*
X29109149Y-44443840D01*
X29161125Y-44397146D01*
X29214648Y-44385000D01*
X31973493Y-44385000D01*
X32040532Y-44404685D01*
X32061175Y-44421320D01*
X32104627Y-44464773D01*
X32104631Y-44464776D01*
X32211166Y-44535961D01*
X32211172Y-44535964D01*
X32211173Y-44535965D01*
X32329556Y-44585001D01*
X32329560Y-44585001D01*
X32329561Y-44585002D01*
X32455228Y-44610000D01*
X32455231Y-44610000D01*
X32583371Y-44610000D01*
X32676231Y-44591528D01*
X32709044Y-44585001D01*
X32827427Y-44535965D01*
X32933969Y-44464776D01*
X33024576Y-44374169D01*
X33095765Y-44267627D01*
X33144801Y-44149244D01*
X33159655Y-44074569D01*
X33169800Y-44023571D01*
X33169800Y-43895428D01*
X33144802Y-43769761D01*
X33144801Y-43769760D01*
X33144801Y-43769756D01*
X33106874Y-43678192D01*
X33095766Y-43651375D01*
X33095761Y-43651366D01*
X33024576Y-43544831D01*
X33020711Y-43540121D01*
X33021839Y-43539194D01*
X32991842Y-43484258D01*
X32996826Y-43414566D01*
X33038698Y-43358633D01*
X33104162Y-43334216D01*
X33113008Y-43333900D01*
X35209807Y-43333900D01*
X35276846Y-43353585D01*
G37*
%TD.AperFunction*%
%TA.AperFunction,Conductor*%
G36*
X63760934Y-20804127D02*
G01*
X63816867Y-20845999D01*
X63841284Y-20911463D01*
X63841600Y-20920309D01*
X63841600Y-21013569D01*
X63841600Y-21013571D01*
X63841599Y-21013571D01*
X63866597Y-21139238D01*
X63866599Y-21139244D01*
X63915633Y-21257624D01*
X63915638Y-21257633D01*
X63986823Y-21364168D01*
X63986826Y-21364172D01*
X64030280Y-21407625D01*
X64063766Y-21468948D01*
X64066600Y-21495307D01*
X64066600Y-25390882D01*
X64066600Y-25502918D01*
X64095597Y-25611137D01*
X64151615Y-25708163D01*
X64151617Y-25708165D01*
X64989771Y-26546319D01*
X65023256Y-26607642D01*
X65018272Y-26677334D01*
X64976400Y-26733267D01*
X64910936Y-26757684D01*
X64902090Y-26758000D01*
X61889907Y-26758000D01*
X61822868Y-26738315D01*
X61802225Y-26721680D01*
X61758772Y-26678226D01*
X61758768Y-26678223D01*
X61652233Y-26607038D01*
X61652224Y-26607033D01*
X61533844Y-26557999D01*
X61533838Y-26557997D01*
X61408171Y-26533000D01*
X61408169Y-26533000D01*
X61280031Y-26533000D01*
X61280029Y-26533000D01*
X61154361Y-26557997D01*
X61154355Y-26557999D01*
X61035975Y-26607033D01*
X61035966Y-26607038D01*
X60929431Y-26678223D01*
X60929427Y-26678226D01*
X60838826Y-26768827D01*
X60838823Y-26768831D01*
X60767638Y-26875366D01*
X60767633Y-26875375D01*
X60718599Y-26993755D01*
X60718597Y-26993761D01*
X60693600Y-27119428D01*
X60693600Y-27119431D01*
X60693600Y-27247569D01*
X60693600Y-27247571D01*
X60693599Y-27247571D01*
X60718597Y-27373238D01*
X60718599Y-27373244D01*
X60767633Y-27491624D01*
X60767638Y-27491633D01*
X60838823Y-27598168D01*
X60838826Y-27598172D01*
X60929427Y-27688773D01*
X60929431Y-27688776D01*
X61035966Y-27759961D01*
X61035972Y-27759964D01*
X61035973Y-27759965D01*
X61154356Y-27809001D01*
X61154360Y-27809001D01*
X61154361Y-27809002D01*
X61280028Y-27834000D01*
X61280031Y-27834000D01*
X61408171Y-27834000D01*
X61492715Y-27817182D01*
X61533844Y-27809001D01*
X61652227Y-27759965D01*
X61758769Y-27688776D01*
X61802225Y-27645320D01*
X61863548Y-27611834D01*
X61889907Y-27609000D01*
X65102690Y-27609000D01*
X65169729Y-27628685D01*
X65190371Y-27645319D01*
X66702801Y-29157749D01*
X66736286Y-29219072D01*
X66731302Y-29288764D01*
X66689430Y-29344697D01*
X66684011Y-29348532D01*
X66614430Y-29395023D01*
X66523826Y-29485627D01*
X66523823Y-29485631D01*
X66452638Y-29592166D01*
X66452633Y-29592175D01*
X66403599Y-29710555D01*
X66403597Y-29710561D01*
X66378600Y-29836228D01*
X66378600Y-29836231D01*
X66378600Y-29964369D01*
X66378600Y-29964371D01*
X66378599Y-29964371D01*
X66403597Y-30090038D01*
X66403599Y-30090044D01*
X66452633Y-30208424D01*
X66452638Y-30208433D01*
X66523823Y-30314968D01*
X66523826Y-30314972D01*
X66567280Y-30358425D01*
X66600766Y-30419748D01*
X66603600Y-30446107D01*
X66603600Y-30510590D01*
X66583915Y-30577629D01*
X66567281Y-30598271D01*
X64291417Y-32874134D01*
X64291413Y-32874140D01*
X64235398Y-32971160D01*
X64235397Y-32971163D01*
X64206400Y-33079382D01*
X64206400Y-33536092D01*
X64186715Y-33603131D01*
X64170081Y-33623773D01*
X64126626Y-33667227D01*
X64126623Y-33667231D01*
X64055438Y-33773766D01*
X64055433Y-33773775D01*
X64006399Y-33892155D01*
X64006397Y-33892161D01*
X63981400Y-34017828D01*
X63981400Y-34017831D01*
X63981400Y-34145969D01*
X63981400Y-34145971D01*
X63981399Y-34145971D01*
X64006397Y-34271638D01*
X64006399Y-34271644D01*
X64055433Y-34390024D01*
X64055438Y-34390033D01*
X64126623Y-34496568D01*
X64126626Y-34496572D01*
X64217227Y-34587173D01*
X64217231Y-34587176D01*
X64323766Y-34658361D01*
X64323772Y-34658364D01*
X64323773Y-34658365D01*
X64442156Y-34707401D01*
X64442160Y-34707401D01*
X64442161Y-34707402D01*
X64567828Y-34732400D01*
X64567831Y-34732400D01*
X64695971Y-34732400D01*
X64780515Y-34715582D01*
X64821644Y-34707401D01*
X64940027Y-34658365D01*
X65046569Y-34587176D01*
X65137176Y-34496569D01*
X65208365Y-34390027D01*
X65257401Y-34271644D01*
X65278680Y-34164672D01*
X65282400Y-34145971D01*
X65282400Y-34017828D01*
X65257402Y-33892161D01*
X65257401Y-33892160D01*
X65257401Y-33892156D01*
X65214264Y-33788014D01*
X65208366Y-33773775D01*
X65208361Y-33773766D01*
X65137176Y-33667231D01*
X65137173Y-33667227D01*
X65093719Y-33623773D01*
X65060234Y-33562450D01*
X65057400Y-33536092D01*
X65057400Y-33363010D01*
X65077085Y-33295971D01*
X65093719Y-33275329D01*
X66229147Y-32139901D01*
X66696785Y-31672263D01*
X67369585Y-30999463D01*
X67425603Y-30902437D01*
X67454600Y-30794218D01*
X67454600Y-30682182D01*
X67454600Y-30446107D01*
X67474285Y-30379068D01*
X67490920Y-30358425D01*
X67534376Y-30314969D01*
X67580868Y-30245389D01*
X67634480Y-30200584D01*
X67703805Y-30191877D01*
X67766832Y-30222031D01*
X67771651Y-30226599D01*
X68101081Y-30556029D01*
X68134566Y-30617352D01*
X68137400Y-30643710D01*
X68137400Y-34892882D01*
X68137400Y-35004918D01*
X68164946Y-35107723D01*
X68168501Y-35120988D01*
X68165855Y-35121696D01*
X68171882Y-35177854D01*
X68140595Y-35240327D01*
X68097315Y-35270372D01*
X68074477Y-35279832D01*
X68074466Y-35279838D01*
X67967931Y-35351023D01*
X67967927Y-35351026D01*
X67924475Y-35394480D01*
X67863152Y-35427966D01*
X67836793Y-35430800D01*
X63588482Y-35430800D01*
X63480263Y-35459797D01*
X63480260Y-35459798D01*
X63383240Y-35515813D01*
X63383234Y-35515817D01*
X62032771Y-36866281D01*
X61971448Y-36899766D01*
X61945090Y-36902600D01*
X61883629Y-36902600D01*
X61757961Y-36927597D01*
X61757951Y-36927600D01*
X61693352Y-36954358D01*
X61623882Y-36961827D01*
X61561403Y-36930551D01*
X61525752Y-36870462D01*
X61521900Y-36839797D01*
X61521900Y-34920307D01*
X61541585Y-34853268D01*
X61558220Y-34832625D01*
X61601673Y-34789172D01*
X61601676Y-34789169D01*
X61672865Y-34682627D01*
X61721901Y-34564244D01*
X61735363Y-34496568D01*
X61746900Y-34438571D01*
X61746900Y-34310428D01*
X61721902Y-34184761D01*
X61721901Y-34184760D01*
X61721901Y-34184756D01*
X61672865Y-34066373D01*
X61672864Y-34066372D01*
X61672861Y-34066366D01*
X61601676Y-33959831D01*
X61601673Y-33959827D01*
X61511072Y-33869226D01*
X61511068Y-33869223D01*
X61404533Y-33798038D01*
X61404524Y-33798033D01*
X61286144Y-33748999D01*
X61286138Y-33748997D01*
X61160471Y-33724000D01*
X61160469Y-33724000D01*
X61032331Y-33724000D01*
X61032329Y-33724000D01*
X60906661Y-33748997D01*
X60906655Y-33748999D01*
X60788275Y-33798033D01*
X60788266Y-33798038D01*
X60681731Y-33869223D01*
X60681727Y-33869226D01*
X60591126Y-33959827D01*
X60591123Y-33959831D01*
X60519938Y-34066366D01*
X60519933Y-34066375D01*
X60470899Y-34184755D01*
X60470897Y-34184761D01*
X60445900Y-34310428D01*
X60445900Y-34310431D01*
X60445900Y-34438569D01*
X60445900Y-34438571D01*
X60445899Y-34438571D01*
X60470897Y-34564238D01*
X60470899Y-34564244D01*
X60519933Y-34682624D01*
X60519938Y-34682633D01*
X60591123Y-34789168D01*
X60591126Y-34789172D01*
X60634580Y-34832625D01*
X60668066Y-34893948D01*
X60670900Y-34920307D01*
X60670900Y-41425500D01*
X60651215Y-41492539D01*
X60598411Y-41538294D01*
X60546900Y-41549500D01*
X40409691Y-41549500D01*
X40342652Y-41529815D01*
X40296897Y-41477011D01*
X40286953Y-41407853D01*
X40295130Y-41378047D01*
X40322801Y-41311244D01*
X40330982Y-41270115D01*
X40347800Y-41185571D01*
X40347800Y-41124108D01*
X40367485Y-41057069D01*
X40384114Y-41036432D01*
X43050553Y-38369992D01*
X43050558Y-38369989D01*
X43060761Y-38359785D01*
X43060763Y-38359785D01*
X43139985Y-38280563D01*
X43196003Y-38183537D01*
X43204023Y-38153608D01*
X43210466Y-38129564D01*
X43222932Y-38083036D01*
X43225000Y-38075319D01*
X43225000Y-37963282D01*
X43225000Y-34349107D01*
X43244685Y-34282068D01*
X43261320Y-34261425D01*
X43304773Y-34217972D01*
X43304776Y-34217969D01*
X43375965Y-34111427D01*
X43425001Y-33993044D01*
X43435605Y-33939738D01*
X43450000Y-33867371D01*
X43450000Y-33739228D01*
X43425002Y-33613561D01*
X43425001Y-33613560D01*
X43425001Y-33613556D01*
X43384946Y-33516855D01*
X43375966Y-33495175D01*
X43375961Y-33495166D01*
X43304776Y-33388631D01*
X43304773Y-33388627D01*
X43214172Y-33298026D01*
X43214168Y-33298023D01*
X43107633Y-33226838D01*
X43107624Y-33226833D01*
X42989244Y-33177799D01*
X42989238Y-33177797D01*
X42863571Y-33152800D01*
X42863569Y-33152800D01*
X42735431Y-33152800D01*
X42735429Y-33152800D01*
X42609761Y-33177797D01*
X42609755Y-33177799D01*
X42491375Y-33226833D01*
X42491366Y-33226838D01*
X42384831Y-33298023D01*
X42384827Y-33298026D01*
X42294226Y-33388627D01*
X42294223Y-33388631D01*
X42244302Y-33463343D01*
X42190689Y-33508148D01*
X42121364Y-33516855D01*
X42058337Y-33486700D01*
X42021618Y-33427257D01*
X42017200Y-33394452D01*
X42017200Y-22735807D01*
X42036885Y-22668768D01*
X42053520Y-22648125D01*
X42096973Y-22604672D01*
X42096976Y-22604669D01*
X42168165Y-22498127D01*
X42168166Y-22498124D01*
X42168168Y-22498121D01*
X42190065Y-22445255D01*
X42217125Y-22379925D01*
X42260964Y-22325524D01*
X42327258Y-22303459D01*
X42394958Y-22320738D01*
X42442568Y-22371875D01*
X42453302Y-22403187D01*
X42474497Y-22509739D01*
X42474499Y-22509744D01*
X42523533Y-22628124D01*
X42523538Y-22628133D01*
X42594723Y-22734668D01*
X42594726Y-22734672D01*
X42685327Y-22825273D01*
X42685331Y-22825276D01*
X42791866Y-22896461D01*
X42791872Y-22896464D01*
X42791873Y-22896465D01*
X42910256Y-22945501D01*
X42910260Y-22945501D01*
X42910261Y-22945502D01*
X43035928Y-22970500D01*
X43035931Y-22970500D01*
X43164071Y-22970500D01*
X43248615Y-22953682D01*
X43289744Y-22945501D01*
X43408127Y-22896465D01*
X43408133Y-22896461D01*
X43519734Y-22821892D01*
X43520663Y-22823283D01*
X43577571Y-22799101D01*
X43604467Y-22798899D01*
X46795825Y-23122874D01*
X46860532Y-23149229D01*
X46900720Y-23206384D01*
X46907300Y-23246240D01*
X46907300Y-35051968D01*
X46897861Y-35099421D01*
X46857999Y-35195655D01*
X46857997Y-35195660D01*
X46838618Y-35293084D01*
X46806232Y-35354994D01*
X46745516Y-35389568D01*
X46675747Y-35385827D01*
X46629320Y-35356572D01*
X45688019Y-34415271D01*
X45654534Y-34353948D01*
X45651700Y-34327590D01*
X45651700Y-34266128D01*
X45626702Y-34140461D01*
X45626701Y-34140460D01*
X45626701Y-34140456D01*
X45577665Y-34022073D01*
X45577664Y-34022072D01*
X45577661Y-34022066D01*
X45506476Y-33915531D01*
X45506473Y-33915527D01*
X45415872Y-33824926D01*
X45415868Y-33824923D01*
X45309333Y-33753738D01*
X45309324Y-33753733D01*
X45190944Y-33704699D01*
X45190938Y-33704697D01*
X45065271Y-33679700D01*
X45065269Y-33679700D01*
X44937131Y-33679700D01*
X44937129Y-33679700D01*
X44811461Y-33704697D01*
X44811455Y-33704699D01*
X44693075Y-33753733D01*
X44693066Y-33753738D01*
X44586531Y-33824923D01*
X44586527Y-33824926D01*
X44495926Y-33915527D01*
X44495923Y-33915531D01*
X44424738Y-34022066D01*
X44424733Y-34022075D01*
X44375699Y-34140455D01*
X44375697Y-34140461D01*
X44350700Y-34266128D01*
X44350700Y-34266131D01*
X44350700Y-34394269D01*
X44350700Y-34394271D01*
X44350699Y-34394271D01*
X44375697Y-34519938D01*
X44375699Y-34519944D01*
X44424733Y-34638324D01*
X44424738Y-34638333D01*
X44495923Y-34744868D01*
X44495926Y-34744872D01*
X44586527Y-34835473D01*
X44586531Y-34835476D01*
X44693066Y-34906661D01*
X44693075Y-34906666D01*
X44719892Y-34917774D01*
X44811456Y-34955701D01*
X44811460Y-34955701D01*
X44811461Y-34955702D01*
X44937128Y-34980700D01*
X44937131Y-34980700D01*
X44998590Y-34980700D01*
X45065629Y-35000385D01*
X45086271Y-35017019D01*
X46407615Y-36338363D01*
X46486837Y-36417585D01*
X46583863Y-36473603D01*
X46692082Y-36502600D01*
X46692084Y-36502600D01*
X47828016Y-36502600D01*
X47828018Y-36502600D01*
X47936237Y-36473603D01*
X48033263Y-36417585D01*
X51079485Y-33371363D01*
X51103113Y-33330437D01*
X51153680Y-33282222D01*
X51222287Y-33268999D01*
X51287152Y-33294967D01*
X51327680Y-33351882D01*
X51334500Y-33392438D01*
X51334500Y-36847092D01*
X51314815Y-36914131D01*
X51298181Y-36934773D01*
X51254726Y-36978227D01*
X51254723Y-36978231D01*
X51183538Y-37084766D01*
X51183533Y-37084775D01*
X51134499Y-37203155D01*
X51134497Y-37203161D01*
X51109500Y-37328828D01*
X51109500Y-37328831D01*
X51109500Y-37456969D01*
X51109500Y-37456971D01*
X51109499Y-37456971D01*
X51134497Y-37582638D01*
X51134499Y-37582644D01*
X51183533Y-37701024D01*
X51183538Y-37701033D01*
X51254723Y-37807568D01*
X51254726Y-37807572D01*
X51345327Y-37898173D01*
X51345331Y-37898176D01*
X51451866Y-37969361D01*
X51451872Y-37969364D01*
X51451873Y-37969365D01*
X51570256Y-38018401D01*
X51570260Y-38018401D01*
X51570261Y-38018402D01*
X51695928Y-38043400D01*
X51695931Y-38043400D01*
X51824071Y-38043400D01*
X51908615Y-38026582D01*
X51949744Y-38018401D01*
X52068127Y-37969365D01*
X52174669Y-37898176D01*
X52265276Y-37807569D01*
X52336465Y-37701027D01*
X52385501Y-37582644D01*
X52400976Y-37504850D01*
X52410500Y-37456971D01*
X52410500Y-37328828D01*
X52385502Y-37203161D01*
X52385501Y-37203160D01*
X52385501Y-37203156D01*
X52336465Y-37084773D01*
X52336464Y-37084772D01*
X52336461Y-37084766D01*
X52265276Y-36978231D01*
X52265273Y-36978227D01*
X52221819Y-36934773D01*
X52188334Y-36873450D01*
X52185500Y-36847092D01*
X52185500Y-24936084D01*
X52185500Y-24936082D01*
X52156503Y-24827863D01*
X52100485Y-24730837D01*
X52021263Y-24651615D01*
X50870810Y-23501162D01*
X50837325Y-23439839D01*
X50842309Y-23370147D01*
X50884181Y-23314214D01*
X50949645Y-23289797D01*
X51017918Y-23304649D01*
X51020464Y-23306079D01*
X51024663Y-23308503D01*
X51132882Y-23337500D01*
X51132884Y-23337500D01*
X58243193Y-23337500D01*
X58310232Y-23357185D01*
X58355987Y-23409989D01*
X58365931Y-23479147D01*
X58336906Y-23542703D01*
X58330874Y-23549181D01*
X58294726Y-23585328D01*
X58294723Y-23585332D01*
X58258170Y-23640036D01*
X58227274Y-23671952D01*
X58206708Y-23686682D01*
X58206706Y-23686684D01*
X58135607Y-23773269D01*
X58135605Y-23773272D01*
X58089343Y-23875302D01*
X58089340Y-23875310D01*
X58071061Y-23985842D01*
X58572752Y-29093965D01*
X58559715Y-29162607D01*
X58545219Y-29184726D01*
X58544731Y-29185320D01*
X58473538Y-29291867D01*
X58473533Y-29291875D01*
X58424499Y-29410255D01*
X58424497Y-29410261D01*
X58399500Y-29535928D01*
X58399500Y-29535931D01*
X58399500Y-29664069D01*
X58399500Y-29664071D01*
X58399499Y-29664071D01*
X58424497Y-29789738D01*
X58424499Y-29789744D01*
X58473533Y-29908124D01*
X58473538Y-29908133D01*
X58544723Y-30014668D01*
X58544726Y-30014672D01*
X58635327Y-30105273D01*
X58635331Y-30105276D01*
X58741866Y-30176461D01*
X58741872Y-30176464D01*
X58741873Y-30176465D01*
X58860256Y-30225501D01*
X58860260Y-30225501D01*
X58860261Y-30225502D01*
X58985928Y-30250500D01*
X58985931Y-30250500D01*
X59114071Y-30250500D01*
X59198615Y-30233682D01*
X59239744Y-30225501D01*
X59358127Y-30176465D01*
X59464669Y-30105276D01*
X59555276Y-30014669D01*
X59626465Y-29908127D01*
X59675501Y-29789744D01*
X59691253Y-29710555D01*
X59700500Y-29664071D01*
X59700500Y-29535928D01*
X59675502Y-29410261D01*
X59675501Y-29410260D01*
X59675501Y-29410256D01*
X59626465Y-29291873D01*
X59626464Y-29291872D01*
X59626461Y-29291866D01*
X59555277Y-29185332D01*
X59521582Y-29151637D01*
X59464669Y-29094724D01*
X59464665Y-29094721D01*
X59464656Y-29094712D01*
X59464405Y-29094506D01*
X59464308Y-29094364D01*
X59460362Y-29090418D01*
X59461111Y-29089668D01*
X59425079Y-29036755D01*
X59419678Y-29010785D01*
X59355217Y-28354461D01*
X58997995Y-24717300D01*
X59011032Y-24648661D01*
X59059111Y-24597964D01*
X59073942Y-24590624D01*
X59108127Y-24576465D01*
X59214669Y-24505276D01*
X59305276Y-24414669D01*
X59376465Y-24308127D01*
X59425501Y-24189744D01*
X59438306Y-24125373D01*
X59450500Y-24064071D01*
X59450500Y-23935928D01*
X59425502Y-23810261D01*
X59425501Y-23810260D01*
X59425501Y-23810256D01*
X59376465Y-23691873D01*
X59376464Y-23691872D01*
X59376461Y-23691866D01*
X59305276Y-23585331D01*
X59305273Y-23585327D01*
X59269127Y-23549181D01*
X59235642Y-23487858D01*
X59240626Y-23418166D01*
X59282498Y-23362233D01*
X59347962Y-23337816D01*
X59356808Y-23337500D01*
X61004816Y-23337500D01*
X61004818Y-23337500D01*
X61113037Y-23308503D01*
X61210063Y-23252485D01*
X63629919Y-20832627D01*
X63691242Y-20799143D01*
X63760934Y-20804127D01*
G37*
%TD.AperFunction*%
%TA.AperFunction,Conductor*%
G36*
X20130703Y-22719654D02*
G01*
X20168477Y-22778432D01*
X20169260Y-22781222D01*
X20181065Y-22825276D01*
X20187017Y-22847488D01*
X20259488Y-22973011D01*
X20259490Y-22973013D01*
X20259491Y-22973015D01*
X20361985Y-23075509D01*
X20361986Y-23075510D01*
X20361988Y-23075511D01*
X20487511Y-23147982D01*
X20487512Y-23147982D01*
X20487515Y-23147984D01*
X20627525Y-23185500D01*
X20627528Y-23185500D01*
X20772472Y-23185500D01*
X20772475Y-23185500D01*
X20912485Y-23147984D01*
X21001105Y-23096819D01*
X21035237Y-23077113D01*
X21097237Y-23060500D01*
X26254193Y-23060500D01*
X26321232Y-23080185D01*
X26341875Y-23096820D01*
X26385327Y-23140273D01*
X26385331Y-23140276D01*
X26491866Y-23211461D01*
X26491872Y-23211464D01*
X26491873Y-23211465D01*
X26610256Y-23260501D01*
X26610260Y-23260501D01*
X26610261Y-23260502D01*
X26735928Y-23285500D01*
X26735931Y-23285500D01*
X26864071Y-23285500D01*
X26948615Y-23268682D01*
X26989744Y-23260501D01*
X27108127Y-23211465D01*
X27214669Y-23140276D01*
X27305276Y-23049669D01*
X27335981Y-23003716D01*
X27366300Y-22958341D01*
X27419912Y-22913535D01*
X27489237Y-22904828D01*
X27552264Y-22934982D01*
X27588984Y-22994425D01*
X27590859Y-23046922D01*
X27591297Y-23046966D01*
X27590977Y-23050214D01*
X27591020Y-23051417D01*
X27590700Y-23053023D01*
X27590700Y-23053031D01*
X27590700Y-23181169D01*
X27590700Y-23181171D01*
X27590699Y-23181171D01*
X27615697Y-23306838D01*
X27615699Y-23306844D01*
X27664733Y-23425224D01*
X27664738Y-23425233D01*
X27735923Y-23531768D01*
X27735926Y-23531772D01*
X27779380Y-23575225D01*
X27812866Y-23636548D01*
X27815700Y-23662907D01*
X27815700Y-25662882D01*
X27815700Y-25774918D01*
X27844697Y-25883137D01*
X27900715Y-25980163D01*
X27900717Y-25980165D01*
X28552281Y-26631729D01*
X28585766Y-26693052D01*
X28588600Y-26719410D01*
X28588600Y-26780869D01*
X28588600Y-26780871D01*
X28588599Y-26780871D01*
X28613597Y-26906538D01*
X28613599Y-26906544D01*
X28662633Y-27024924D01*
X28662638Y-27024933D01*
X28733823Y-27131468D01*
X28733826Y-27131472D01*
X28824427Y-27222073D01*
X28824431Y-27222076D01*
X28930966Y-27293261D01*
X28930975Y-27293266D01*
X28957372Y-27304200D01*
X29049356Y-27342301D01*
X29049360Y-27342301D01*
X29049361Y-27342302D01*
X29175028Y-27367300D01*
X29175031Y-27367300D01*
X29303171Y-27367300D01*
X29387715Y-27350482D01*
X29428844Y-27342301D01*
X29547227Y-27293265D01*
X29653769Y-27222076D01*
X29744376Y-27131469D01*
X29815565Y-27024927D01*
X29864601Y-26906544D01*
X29886516Y-26796373D01*
X29889600Y-26780871D01*
X29889600Y-26652728D01*
X29864602Y-26527061D01*
X29864601Y-26527060D01*
X29864601Y-26527056D01*
X29815565Y-26408673D01*
X29815564Y-26408672D01*
X29815561Y-26408666D01*
X29744376Y-26302131D01*
X29744373Y-26302127D01*
X29687363Y-26245117D01*
X29653878Y-26183794D01*
X29658862Y-26114102D01*
X29676215Y-26083949D01*
X29675892Y-26083734D01*
X29679116Y-26078907D01*
X29679207Y-26078751D01*
X29679263Y-26078681D01*
X29679276Y-26078669D01*
X29750465Y-25972127D01*
X29799501Y-25853744D01*
X29824500Y-25728069D01*
X29824500Y-25599931D01*
X29824500Y-25599928D01*
X29799502Y-25474261D01*
X29799501Y-25474260D01*
X29799501Y-25474256D01*
X29750465Y-25355873D01*
X29750464Y-25355872D01*
X29750461Y-25355866D01*
X29679276Y-25249331D01*
X29679273Y-25249327D01*
X29635819Y-25205873D01*
X29602334Y-25144550D01*
X29599500Y-25118192D01*
X29599500Y-23193716D01*
X29619185Y-23126677D01*
X29671989Y-23080922D01*
X29741147Y-23070978D01*
X29804703Y-23100003D01*
X29830887Y-23131716D01*
X29893991Y-23241015D01*
X29996485Y-23343509D01*
X29996486Y-23343510D01*
X29996488Y-23343511D01*
X30020172Y-23357185D01*
X30122015Y-23415984D01*
X30258929Y-23452670D01*
X30314515Y-23484763D01*
X31899715Y-25069963D01*
X31978937Y-25149185D01*
X32075963Y-25205203D01*
X32184182Y-25234200D01*
X32445256Y-25234200D01*
X32494639Y-25244457D01*
X32554970Y-25270652D01*
X32605622Y-25292644D01*
X32659275Y-25337400D01*
X32673874Y-25367174D01*
X33022884Y-26414203D01*
X33025409Y-26484027D01*
X33019808Y-26500867D01*
X32974755Y-26609636D01*
X32930914Y-26664040D01*
X32864620Y-26686105D01*
X32796921Y-26668826D01*
X32772513Y-26649865D01*
X32660865Y-26538217D01*
X32660863Y-26538215D01*
X32563837Y-26482197D01*
X32455618Y-26453200D01*
X31646318Y-26453200D01*
X31534281Y-26453200D01*
X31534278Y-26453200D01*
X31515624Y-26458198D01*
X31515625Y-26458199D01*
X31426061Y-26482197D01*
X31426060Y-26482198D01*
X31329040Y-26538213D01*
X31329034Y-26538217D01*
X31285634Y-26581618D01*
X31249815Y-26617437D01*
X31249813Y-26617439D01*
X30397379Y-27469873D01*
X29541996Y-28325255D01*
X29541995Y-28325255D01*
X29541996Y-28325256D01*
X29480214Y-28387038D01*
X29480213Y-28387040D01*
X29424198Y-28484060D01*
X29424197Y-28484063D01*
X29395200Y-28592282D01*
X29395200Y-31227492D01*
X29375515Y-31294531D01*
X29358881Y-31315173D01*
X29315426Y-31358627D01*
X29315423Y-31358631D01*
X29244238Y-31465166D01*
X29244233Y-31465175D01*
X29195199Y-31583555D01*
X29195197Y-31583561D01*
X29170200Y-31709228D01*
X29170200Y-31709231D01*
X29170200Y-31837369D01*
X29170200Y-31837371D01*
X29170199Y-31837371D01*
X29195197Y-31963038D01*
X29195199Y-31963044D01*
X29244233Y-32081424D01*
X29244238Y-32081433D01*
X29315423Y-32187968D01*
X29315426Y-32187972D01*
X29406027Y-32278573D01*
X29406031Y-32278576D01*
X29509030Y-32347398D01*
X29553835Y-32401010D01*
X29562542Y-32470335D01*
X29532388Y-32533362D01*
X29472945Y-32570082D01*
X29440139Y-32574500D01*
X20049500Y-32574500D01*
X19982461Y-32554815D01*
X19936706Y-32502011D01*
X19925500Y-32450500D01*
X19925500Y-30034551D01*
X19945185Y-29967512D01*
X19997989Y-29921757D01*
X20067147Y-29911813D01*
X20096951Y-29919989D01*
X20110256Y-29925501D01*
X20110260Y-29925501D01*
X20110261Y-29925502D01*
X20235928Y-29950500D01*
X20235931Y-29950500D01*
X20364071Y-29950500D01*
X20448615Y-29933682D01*
X20489744Y-29925501D01*
X20608127Y-29876465D01*
X20714669Y-29805276D01*
X20805276Y-29714669D01*
X20876465Y-29608127D01*
X20925501Y-29489744D01*
X20941313Y-29410255D01*
X20950500Y-29364071D01*
X20950500Y-29235928D01*
X20925502Y-29110261D01*
X20925501Y-29110260D01*
X20925501Y-29110256D01*
X20877783Y-28995054D01*
X20876466Y-28991875D01*
X20876461Y-28991866D01*
X20805276Y-28885331D01*
X20805273Y-28885327D01*
X20714672Y-28794726D01*
X20714668Y-28794723D01*
X20608133Y-28723538D01*
X20608124Y-28723533D01*
X20489744Y-28674499D01*
X20489738Y-28674497D01*
X20364071Y-28649500D01*
X20364069Y-28649500D01*
X20235931Y-28649500D01*
X20235929Y-28649500D01*
X20110261Y-28674497D01*
X20110251Y-28674500D01*
X20096950Y-28680010D01*
X20027481Y-28687477D01*
X19965002Y-28656201D01*
X19929351Y-28596111D01*
X19925500Y-28565448D01*
X19925500Y-22813367D01*
X19945185Y-22746328D01*
X19997989Y-22700573D01*
X20067147Y-22690629D01*
X20130703Y-22719654D01*
G37*
%TD.AperFunction*%
%TA.AperFunction,Conductor*%
G36*
X75041253Y-3882136D02*
G01*
X75097925Y-3923003D01*
X75121617Y-3974882D01*
X75134103Y-4037658D01*
X75134106Y-4037667D01*
X75201983Y-4201540D01*
X75201990Y-4201553D01*
X75300535Y-4349034D01*
X75300538Y-4349038D01*
X75425962Y-4474462D01*
X75425965Y-4474464D01*
X75519391Y-4536890D01*
X75564196Y-4590501D01*
X75574500Y-4639991D01*
X75574500Y-5224290D01*
X75554815Y-5291329D01*
X75538181Y-5311971D01*
X74341071Y-6509081D01*
X74279748Y-6542566D01*
X74253390Y-6545400D01*
X74191929Y-6545400D01*
X74066261Y-6570397D01*
X74066255Y-6570399D01*
X73947875Y-6619433D01*
X73947866Y-6619438D01*
X73841331Y-6690623D01*
X73841327Y-6690626D01*
X73750726Y-6781227D01*
X73750723Y-6781231D01*
X73679538Y-6887766D01*
X73679533Y-6887775D01*
X73630499Y-7006155D01*
X73630497Y-7006161D01*
X73605500Y-7131828D01*
X73605500Y-7131831D01*
X73605500Y-7259969D01*
X73605500Y-7259971D01*
X73605499Y-7259971D01*
X73630497Y-7385638D01*
X73630499Y-7385644D01*
X73679533Y-7504024D01*
X73679538Y-7504033D01*
X73750723Y-7610568D01*
X73750726Y-7610572D01*
X73841327Y-7701173D01*
X73841331Y-7701176D01*
X73947866Y-7772361D01*
X73947872Y-7772364D01*
X73947873Y-7772365D01*
X74066256Y-7821401D01*
X74066260Y-7821401D01*
X74066261Y-7821402D01*
X74191928Y-7846400D01*
X74191931Y-7846400D01*
X74320071Y-7846400D01*
X74424755Y-7825576D01*
X74445744Y-7821401D01*
X74564127Y-7772365D01*
X74670669Y-7701176D01*
X74761276Y-7610569D01*
X74832465Y-7504027D01*
X74881501Y-7385644D01*
X74906500Y-7259969D01*
X74906500Y-7198510D01*
X74926185Y-7131471D01*
X74942819Y-7110829D01*
X75610835Y-6442813D01*
X76340484Y-5713164D01*
X76396503Y-5616137D01*
X76425500Y-5507919D01*
X76425500Y-5395882D01*
X76425500Y-4639991D01*
X76445185Y-4572952D01*
X76480607Y-4536890D01*
X76574035Y-4474464D01*
X76699464Y-4349035D01*
X76798013Y-4201547D01*
X76865894Y-4037666D01*
X76868908Y-4022512D01*
X76901291Y-3960603D01*
X76962006Y-3926028D01*
X77008924Y-3926729D01*
X77009226Y-3924439D01*
X77017280Y-3925499D01*
X77017282Y-3925500D01*
X77017284Y-3925500D01*
X77025342Y-3926561D01*
X77024906Y-3929867D01*
X77077070Y-3945185D01*
X77122825Y-3997989D01*
X77131649Y-4025312D01*
X77134105Y-4037663D01*
X77134106Y-4037667D01*
X77201983Y-4201540D01*
X77201990Y-4201553D01*
X77300535Y-4349034D01*
X77300538Y-4349038D01*
X77425961Y-4474461D01*
X77425965Y-4474464D01*
X77573446Y-4573009D01*
X77573459Y-4573016D01*
X77660141Y-4608920D01*
X77737334Y-4640894D01*
X77737336Y-4640894D01*
X77737341Y-4640896D01*
X77911304Y-4675499D01*
X77911307Y-4675500D01*
X77911309Y-4675500D01*
X78088693Y-4675500D01*
X78088694Y-4675499D01*
X78146682Y-4663964D01*
X78262658Y-4640896D01*
X78262661Y-4640894D01*
X78262666Y-4640894D01*
X78426547Y-4573013D01*
X78574035Y-4474464D01*
X78699464Y-4349035D01*
X78751241Y-4271544D01*
X78764598Y-4251556D01*
X78818210Y-4206751D01*
X78887535Y-4198044D01*
X78950563Y-4228199D01*
X78987282Y-4287642D01*
X78991700Y-4320447D01*
X78991700Y-28882260D01*
X78972015Y-28949299D01*
X78919211Y-28995054D01*
X78850053Y-29004998D01*
X78843510Y-29003878D01*
X78797869Y-28994800D01*
X78736410Y-28994800D01*
X78669371Y-28975115D01*
X78648729Y-28958481D01*
X77492025Y-27801777D01*
X77458540Y-27740454D01*
X77463524Y-27670762D01*
X77505396Y-27614829D01*
X77510789Y-27611012D01*
X77543769Y-27588976D01*
X77634376Y-27498369D01*
X77705565Y-27391827D01*
X77754601Y-27273444D01*
X77779600Y-27147769D01*
X77779600Y-27019631D01*
X77779600Y-27019628D01*
X77754602Y-26893961D01*
X77754601Y-26893960D01*
X77754601Y-26893956D01*
X77716674Y-26802392D01*
X77705566Y-26775575D01*
X77705561Y-26775566D01*
X77634376Y-26669031D01*
X77634373Y-26669027D01*
X77590919Y-26625573D01*
X77557434Y-26564250D01*
X77554600Y-26537892D01*
X77554600Y-25399184D01*
X77554600Y-25399182D01*
X77525603Y-25290963D01*
X77469585Y-25193937D01*
X77390363Y-25114715D01*
X66112829Y-13837181D01*
X66079344Y-13775858D01*
X66084328Y-13706166D01*
X66126200Y-13650233D01*
X66191664Y-13625816D01*
X66200510Y-13625500D01*
X67107580Y-13625500D01*
X67168501Y-13643388D01*
X67169131Y-13642211D01*
X67174500Y-13645080D01*
X67174505Y-13645084D01*
X67311087Y-13701658D01*
X67311091Y-13701658D01*
X67311092Y-13701659D01*
X67456079Y-13730500D01*
X67456082Y-13730500D01*
X67603920Y-13730500D01*
X67727351Y-13705947D01*
X67748913Y-13701658D01*
X67885495Y-13645084D01*
X68008416Y-13562951D01*
X68112951Y-13458416D01*
X68195084Y-13335495D01*
X68251658Y-13198913D01*
X68267031Y-13121629D01*
X68280500Y-13053920D01*
X68280500Y-12906079D01*
X68251659Y-12761092D01*
X68251658Y-12761091D01*
X68251658Y-12761087D01*
X68239957Y-12732839D01*
X68195087Y-12624511D01*
X68195080Y-12624498D01*
X68112951Y-12501584D01*
X68112948Y-12501580D01*
X68008419Y-12397051D01*
X68008415Y-12397048D01*
X67885501Y-12314919D01*
X67885488Y-12314912D01*
X67748917Y-12258343D01*
X67748907Y-12258340D01*
X67603920Y-12229500D01*
X67603918Y-12229500D01*
X67456082Y-12229500D01*
X67456080Y-12229500D01*
X67311092Y-12258340D01*
X67311082Y-12258343D01*
X67174511Y-12314912D01*
X67174498Y-12314919D01*
X67051584Y-12397048D01*
X67051580Y-12397051D01*
X66947051Y-12501580D01*
X66947048Y-12501584D01*
X66864919Y-12624498D01*
X66864912Y-12624511D01*
X66834493Y-12697952D01*
X66790652Y-12752356D01*
X66724358Y-12774421D01*
X66719932Y-12774500D01*
X64797291Y-12774500D01*
X64730252Y-12754815D01*
X64684497Y-12702011D01*
X64673906Y-12662839D01*
X64639114Y-12314919D01*
X64535366Y-11277446D01*
X64548283Y-11208783D01*
X64571070Y-11177428D01*
X64574031Y-11174466D01*
X64574035Y-11174464D01*
X64699464Y-11049035D01*
X64798013Y-10901547D01*
X64865894Y-10737666D01*
X64867213Y-10731039D01*
X64878383Y-10674882D01*
X64910768Y-10612971D01*
X64971483Y-10578397D01*
X65041253Y-10582136D01*
X65097925Y-10623003D01*
X65121617Y-10674882D01*
X65134103Y-10737658D01*
X65134106Y-10737667D01*
X65201983Y-10901540D01*
X65201990Y-10901553D01*
X65300535Y-11049034D01*
X65300538Y-11049038D01*
X65425961Y-11174461D01*
X65425965Y-11174464D01*
X65573446Y-11273009D01*
X65573459Y-11273016D01*
X65680005Y-11317148D01*
X65737334Y-11340894D01*
X65737336Y-11340894D01*
X65737341Y-11340896D01*
X65911304Y-11375499D01*
X65911307Y-11375500D01*
X65911309Y-11375500D01*
X66088693Y-11375500D01*
X66088694Y-11375499D01*
X66146682Y-11363964D01*
X66262658Y-11340896D01*
X66262661Y-11340894D01*
X66262666Y-11340894D01*
X66407677Y-11280829D01*
X66426540Y-11273016D01*
X66426540Y-11273015D01*
X66426547Y-11273013D01*
X66574035Y-11174464D01*
X66699464Y-11049035D01*
X66798013Y-10901547D01*
X66865894Y-10737666D01*
X66867213Y-10731039D01*
X66900499Y-10563695D01*
X66900500Y-10563693D01*
X66900500Y-9836306D01*
X66900499Y-9836304D01*
X66865896Y-9662341D01*
X66865894Y-9662338D01*
X66865894Y-9662334D01*
X66817065Y-9544451D01*
X66809598Y-9474982D01*
X66840874Y-9412503D01*
X66900963Y-9376851D01*
X66931628Y-9373000D01*
X71115590Y-9373000D01*
X71182629Y-9392685D01*
X71203271Y-9409319D01*
X72261581Y-10467629D01*
X72295066Y-10528952D01*
X72297900Y-10555310D01*
X72297900Y-10616769D01*
X72297900Y-10616771D01*
X72297899Y-10616771D01*
X72322897Y-10742438D01*
X72322899Y-10742444D01*
X72371933Y-10860824D01*
X72371938Y-10860833D01*
X72443123Y-10967368D01*
X72443126Y-10967372D01*
X72533727Y-11057973D01*
X72533731Y-11057976D01*
X72640266Y-11129161D01*
X72640272Y-11129164D01*
X72640273Y-11129165D01*
X72758656Y-11178201D01*
X72758660Y-11178201D01*
X72758661Y-11178202D01*
X72884328Y-11203200D01*
X72884331Y-11203200D01*
X73012471Y-11203200D01*
X73097015Y-11186382D01*
X73138144Y-11178201D01*
X73256527Y-11129165D01*
X73363069Y-11057976D01*
X73453676Y-10967369D01*
X73524865Y-10860827D01*
X73573901Y-10742444D01*
X73587364Y-10674761D01*
X73598900Y-10616771D01*
X73598900Y-10488628D01*
X73573902Y-10362961D01*
X73573901Y-10362960D01*
X73573901Y-10362956D01*
X73530372Y-10257868D01*
X73524866Y-10244575D01*
X73524861Y-10244566D01*
X73453676Y-10138031D01*
X73453673Y-10138027D01*
X73363072Y-10047426D01*
X73363068Y-10047423D01*
X73256533Y-9976238D01*
X73256524Y-9976233D01*
X73138144Y-9927199D01*
X73138138Y-9927197D01*
X73012471Y-9902200D01*
X73012469Y-9902200D01*
X72951010Y-9902200D01*
X72883971Y-9882515D01*
X72863329Y-9865881D01*
X71604465Y-8607017D01*
X71604463Y-8607015D01*
X71529614Y-8563801D01*
X71507439Y-8550998D01*
X71507438Y-8550997D01*
X71507437Y-8550997D01*
X71399218Y-8522000D01*
X71399217Y-8522000D01*
X64229110Y-8522000D01*
X64162071Y-8502315D01*
X64116316Y-8449511D01*
X64106372Y-8380353D01*
X64135397Y-8316797D01*
X64141429Y-8310319D01*
X65542229Y-6909519D01*
X65603552Y-6876034D01*
X65629910Y-6873200D01*
X66760816Y-6873200D01*
X66760818Y-6873200D01*
X66869037Y-6844203D01*
X66966063Y-6788185D01*
X69266378Y-4487868D01*
X69327699Y-4454385D01*
X69397391Y-4459369D01*
X69422948Y-4472449D01*
X69573446Y-4573009D01*
X69573459Y-4573016D01*
X69660141Y-4608920D01*
X69737334Y-4640894D01*
X69737336Y-4640894D01*
X69737341Y-4640896D01*
X69911304Y-4675499D01*
X69911307Y-4675500D01*
X69911309Y-4675500D01*
X70088693Y-4675500D01*
X70088694Y-4675499D01*
X70146682Y-4663964D01*
X70262658Y-4640896D01*
X70262661Y-4640894D01*
X70262666Y-4640894D01*
X70426547Y-4573013D01*
X70574035Y-4474464D01*
X70699464Y-4349035D01*
X70798013Y-4201547D01*
X70865894Y-4037666D01*
X70868352Y-4025312D01*
X70878383Y-3974882D01*
X70910768Y-3912971D01*
X70971483Y-3878397D01*
X71041253Y-3882136D01*
X71097925Y-3923003D01*
X71121617Y-3974882D01*
X71134103Y-4037658D01*
X71134106Y-4037667D01*
X71201983Y-4201540D01*
X71201990Y-4201553D01*
X71300535Y-4349034D01*
X71300538Y-4349038D01*
X71425961Y-4474461D01*
X71425965Y-4474464D01*
X71573446Y-4573009D01*
X71573459Y-4573016D01*
X71660141Y-4608920D01*
X71737334Y-4640894D01*
X71737336Y-4640894D01*
X71737341Y-4640896D01*
X71911304Y-4675499D01*
X71911307Y-4675500D01*
X71911309Y-4675500D01*
X72088693Y-4675500D01*
X72088694Y-4675499D01*
X72146682Y-4663964D01*
X72262658Y-4640896D01*
X72262661Y-4640894D01*
X72262666Y-4640894D01*
X72426547Y-4573013D01*
X72574035Y-4474464D01*
X72699464Y-4349035D01*
X72798013Y-4201547D01*
X72865894Y-4037666D01*
X72868352Y-4025312D01*
X72878383Y-3974882D01*
X72910768Y-3912971D01*
X72971483Y-3878397D01*
X73041253Y-3882136D01*
X73097925Y-3923003D01*
X73121617Y-3974882D01*
X73134103Y-4037658D01*
X73134106Y-4037667D01*
X73201983Y-4201540D01*
X73201990Y-4201553D01*
X73300535Y-4349034D01*
X73300538Y-4349038D01*
X73425961Y-4474461D01*
X73425965Y-4474464D01*
X73573446Y-4573009D01*
X73573459Y-4573016D01*
X73660141Y-4608920D01*
X73737334Y-4640894D01*
X73737336Y-4640894D01*
X73737341Y-4640896D01*
X73911304Y-4675499D01*
X73911307Y-4675500D01*
X73911309Y-4675500D01*
X74088693Y-4675500D01*
X74088694Y-4675499D01*
X74146682Y-4663964D01*
X74262658Y-4640896D01*
X74262661Y-4640894D01*
X74262666Y-4640894D01*
X74426547Y-4573013D01*
X74574035Y-4474464D01*
X74699464Y-4349035D01*
X74798013Y-4201547D01*
X74865894Y-4037666D01*
X74868352Y-4025312D01*
X74878383Y-3974882D01*
X74910768Y-3912971D01*
X74971483Y-3878397D01*
X75041253Y-3882136D01*
G37*
%TD.AperFunction*%
%TA.AperFunction,Conductor*%
G36*
X58156967Y-8882185D02*
G01*
X58202722Y-8934989D01*
X58212666Y-9004147D01*
X58211545Y-9010691D01*
X58203800Y-9049626D01*
X58203800Y-9049631D01*
X58203800Y-9177769D01*
X58203800Y-9177771D01*
X58203799Y-9177771D01*
X58228797Y-9303438D01*
X58228799Y-9303444D01*
X58277833Y-9421824D01*
X58277838Y-9421833D01*
X58349023Y-9528368D01*
X58349026Y-9528372D01*
X58439627Y-9618973D01*
X58439631Y-9618976D01*
X58546166Y-9690161D01*
X58546172Y-9690164D01*
X58546173Y-9690165D01*
X58664556Y-9739201D01*
X58664560Y-9739201D01*
X58664561Y-9739202D01*
X58790228Y-9764200D01*
X58790231Y-9764200D01*
X58918369Y-9764200D01*
X58951808Y-9757548D01*
X59021397Y-9763774D01*
X59076576Y-9806636D01*
X59099822Y-9872525D01*
X59100000Y-9879165D01*
X59100000Y-10050000D01*
X59653590Y-10050000D01*
X59650556Y-10055255D01*
X59625000Y-10150630D01*
X59625000Y-10249370D01*
X59650556Y-10344745D01*
X59653590Y-10350000D01*
X59100000Y-10350000D01*
X59100000Y-10686300D01*
X59080315Y-10753339D01*
X59027511Y-10799094D01*
X58976000Y-10810300D01*
X58934110Y-10810300D01*
X58867071Y-10790615D01*
X58846429Y-10773981D01*
X58830265Y-10757817D01*
X58830263Y-10757815D01*
X58733237Y-10701797D01*
X58625018Y-10672800D01*
X58625017Y-10672800D01*
X52972107Y-10672800D01*
X52905068Y-10653115D01*
X52884425Y-10636480D01*
X52840972Y-10593026D01*
X52840968Y-10593023D01*
X52734433Y-10521838D01*
X52734424Y-10521833D01*
X52616044Y-10472799D01*
X52616038Y-10472797D01*
X52490371Y-10447800D01*
X52490369Y-10447800D01*
X52362231Y-10447800D01*
X52362229Y-10447800D01*
X52236561Y-10472797D01*
X52236555Y-10472799D01*
X52118175Y-10521833D01*
X52118166Y-10521838D01*
X52011631Y-10593023D01*
X52011627Y-10593026D01*
X51921026Y-10683627D01*
X51921023Y-10683631D01*
X51849838Y-10790166D01*
X51849833Y-10790175D01*
X51800799Y-10908555D01*
X51800797Y-10908561D01*
X51775800Y-11034228D01*
X51775800Y-11034231D01*
X51775800Y-11162369D01*
X51775800Y-11162371D01*
X51775799Y-11162371D01*
X51800797Y-11288038D01*
X51800799Y-11288044D01*
X51849833Y-11406424D01*
X51849838Y-11406433D01*
X51921023Y-11512968D01*
X51921026Y-11512972D01*
X52011627Y-11603573D01*
X52011631Y-11603576D01*
X52118166Y-11674761D01*
X52118172Y-11674764D01*
X52118173Y-11674765D01*
X52236556Y-11723801D01*
X52236560Y-11723801D01*
X52236561Y-11723802D01*
X52362228Y-11748800D01*
X52362231Y-11748800D01*
X52490371Y-11748800D01*
X52574915Y-11731982D01*
X52616044Y-11723801D01*
X52734427Y-11674765D01*
X52840969Y-11603576D01*
X52884425Y-11560120D01*
X52945748Y-11526634D01*
X52972107Y-11523800D01*
X58179024Y-11523800D01*
X58246063Y-11543485D01*
X58291818Y-11596289D01*
X58300640Y-11623604D01*
X58305999Y-11650544D01*
X58355033Y-11768924D01*
X58355038Y-11768933D01*
X58426223Y-11875468D01*
X58426226Y-11875472D01*
X58516827Y-11966073D01*
X58516831Y-11966076D01*
X58623366Y-12037261D01*
X58623372Y-12037264D01*
X58623373Y-12037265D01*
X58741756Y-12086301D01*
X58741760Y-12086301D01*
X58741761Y-12086302D01*
X58867428Y-12111300D01*
X58867431Y-12111300D01*
X58995570Y-12111300D01*
X59008439Y-12108740D01*
X59078031Y-12114967D01*
X59133209Y-12157829D01*
X59156454Y-12223718D01*
X59140387Y-12291715D01*
X59120313Y-12318038D01*
X57946281Y-13492070D01*
X57884958Y-13525555D01*
X57815266Y-13520571D01*
X57759333Y-13478699D01*
X57734916Y-13413235D01*
X57734600Y-13404389D01*
X57734600Y-13240707D01*
X57754285Y-13173668D01*
X57770920Y-13153025D01*
X57814373Y-13109572D01*
X57814376Y-13109569D01*
X57885565Y-13003027D01*
X57934601Y-12884644D01*
X57956511Y-12774500D01*
X57959600Y-12758971D01*
X57959600Y-12630828D01*
X57934602Y-12505161D01*
X57934601Y-12505160D01*
X57934601Y-12505156D01*
X57889822Y-12397051D01*
X57885566Y-12386775D01*
X57885561Y-12386766D01*
X57814376Y-12280231D01*
X57814373Y-12280227D01*
X57723772Y-12189626D01*
X57723768Y-12189623D01*
X57617233Y-12118438D01*
X57617224Y-12118433D01*
X57498844Y-12069399D01*
X57498838Y-12069397D01*
X57373171Y-12044400D01*
X57373169Y-12044400D01*
X57245031Y-12044400D01*
X57245029Y-12044400D01*
X57119361Y-12069397D01*
X57119355Y-12069399D01*
X57000975Y-12118433D01*
X57000966Y-12118438D01*
X56894431Y-12189623D01*
X56894427Y-12189626D01*
X56803826Y-12280227D01*
X56803823Y-12280231D01*
X56732638Y-12386766D01*
X56732633Y-12386775D01*
X56683599Y-12505155D01*
X56683597Y-12505161D01*
X56658600Y-12630828D01*
X56658600Y-12630831D01*
X56658600Y-12758969D01*
X56658600Y-12758971D01*
X56658599Y-12758971D01*
X56683597Y-12884638D01*
X56683599Y-12884644D01*
X56732633Y-13003024D01*
X56732638Y-13003033D01*
X56803823Y-13109568D01*
X56803826Y-13109572D01*
X56847280Y-13153025D01*
X56880766Y-13214348D01*
X56883600Y-13240707D01*
X56883600Y-13388289D01*
X56863915Y-13455328D01*
X56847281Y-13475970D01*
X56026368Y-14296883D01*
X55965045Y-14330368D01*
X55895353Y-14325384D01*
X55839420Y-14283512D01*
X55835585Y-14278093D01*
X55791176Y-14211631D01*
X55791173Y-14211627D01*
X55700572Y-14121026D01*
X55700568Y-14121023D01*
X55594033Y-14049838D01*
X55594024Y-14049833D01*
X55475644Y-14000799D01*
X55475638Y-14000797D01*
X55349971Y-13975800D01*
X55349969Y-13975800D01*
X55288510Y-13975800D01*
X55221471Y-13956115D01*
X55200829Y-13939481D01*
X55089477Y-13828129D01*
X55055992Y-13766806D01*
X55060976Y-13697114D01*
X55102848Y-13641181D01*
X55152966Y-13618831D01*
X55250144Y-13599501D01*
X55368527Y-13550465D01*
X55475069Y-13479276D01*
X55565676Y-13388669D01*
X55636865Y-13282127D01*
X55685901Y-13163744D01*
X55705071Y-13067373D01*
X55710900Y-13038071D01*
X55710900Y-12909928D01*
X55685902Y-12784261D01*
X55685901Y-12784260D01*
X55685901Y-12784256D01*
X55636865Y-12665873D01*
X55636864Y-12665872D01*
X55636861Y-12665866D01*
X55565676Y-12559331D01*
X55565673Y-12559327D01*
X55475072Y-12468726D01*
X55475068Y-12468723D01*
X55368533Y-12397538D01*
X55368524Y-12397533D01*
X55250144Y-12348499D01*
X55250138Y-12348497D01*
X55124471Y-12323500D01*
X55124469Y-12323500D01*
X55054525Y-12323500D01*
X54992525Y-12306887D01*
X54901437Y-12254297D01*
X54793218Y-12225300D01*
X50236418Y-12225300D01*
X50124382Y-12225300D01*
X50016163Y-12254297D01*
X50016160Y-12254298D01*
X49919140Y-12310313D01*
X49919134Y-12310317D01*
X47202971Y-15026481D01*
X47141648Y-15059966D01*
X47115290Y-15062800D01*
X42126110Y-15062800D01*
X42059071Y-15043115D01*
X42038429Y-15026481D01*
X38234746Y-11222798D01*
X38201261Y-11161475D01*
X38200810Y-11110925D01*
X38223100Y-10998871D01*
X38223100Y-10870728D01*
X38208937Y-10799530D01*
X38215164Y-10729939D01*
X38258026Y-10674761D01*
X38323916Y-10651516D01*
X38391913Y-10667583D01*
X38392237Y-10667768D01*
X38482363Y-10719803D01*
X38590582Y-10748800D01*
X38702618Y-10748800D01*
X44966690Y-10748800D01*
X45033729Y-10768485D01*
X45054371Y-10785119D01*
X45550081Y-11280829D01*
X45583566Y-11342152D01*
X45586400Y-11368510D01*
X45586400Y-11429969D01*
X45586400Y-11429971D01*
X45586399Y-11429971D01*
X45611397Y-11555638D01*
X45611399Y-11555644D01*
X45660433Y-11674024D01*
X45660438Y-11674033D01*
X45731623Y-11780568D01*
X45731626Y-11780572D01*
X45822227Y-11871173D01*
X45822231Y-11871176D01*
X45928766Y-11942361D01*
X45928772Y-11942364D01*
X45928773Y-11942365D01*
X46047156Y-11991401D01*
X46047160Y-11991401D01*
X46047161Y-11991402D01*
X46172828Y-12016400D01*
X46172831Y-12016400D01*
X46300971Y-12016400D01*
X46385515Y-11999582D01*
X46426644Y-11991401D01*
X46545027Y-11942365D01*
X46651569Y-11871176D01*
X46742176Y-11780569D01*
X46813365Y-11674027D01*
X46862401Y-11555644D01*
X46887400Y-11429969D01*
X46887400Y-11301831D01*
X46887400Y-11301828D01*
X46862402Y-11176161D01*
X46862401Y-11176160D01*
X46862401Y-11176156D01*
X46819341Y-11072200D01*
X46813366Y-11057775D01*
X46813361Y-11057766D01*
X46742176Y-10951231D01*
X46742173Y-10951227D01*
X46651572Y-10860626D01*
X46651568Y-10860623D01*
X46545033Y-10789438D01*
X46545024Y-10789433D01*
X46426644Y-10740399D01*
X46426638Y-10740397D01*
X46300971Y-10715400D01*
X46300969Y-10715400D01*
X46239510Y-10715400D01*
X46172471Y-10695715D01*
X46151829Y-10679081D01*
X45659929Y-10187181D01*
X45626444Y-10125858D01*
X45631428Y-10056166D01*
X45673300Y-10000233D01*
X45738764Y-9975816D01*
X45747610Y-9975500D01*
X46632990Y-9975500D01*
X46700029Y-9995185D01*
X46720671Y-10011819D01*
X47616815Y-10907963D01*
X47696037Y-10987185D01*
X47793063Y-11043203D01*
X47901282Y-11072200D01*
X47901284Y-11072200D01*
X49230716Y-11072200D01*
X49230718Y-11072200D01*
X49338937Y-11043203D01*
X49435963Y-10987185D01*
X51458929Y-8964219D01*
X51520252Y-8930734D01*
X51546610Y-8927900D01*
X54996316Y-8927900D01*
X54996318Y-8927900D01*
X55104537Y-8898903D01*
X55138814Y-8879112D01*
X55200814Y-8862500D01*
X58089928Y-8862500D01*
X58156967Y-8882185D01*
G37*
%TD.AperFunction*%
%TA.AperFunction,Conductor*%
G36*
X27868529Y-6848185D02*
G01*
X27889171Y-6864819D01*
X31051737Y-10027385D01*
X31148763Y-10083403D01*
X31184754Y-10093046D01*
X31244413Y-10129411D01*
X31272011Y-10184130D01*
X31272730Y-10183912D01*
X31273981Y-10188036D01*
X31274273Y-10188615D01*
X31274494Y-10189729D01*
X31274499Y-10189744D01*
X31323533Y-10308124D01*
X31323538Y-10308133D01*
X31394723Y-10414668D01*
X31394726Y-10414672D01*
X31485327Y-10505273D01*
X31485331Y-10505276D01*
X31591866Y-10576461D01*
X31591875Y-10576466D01*
X31606066Y-10582344D01*
X31710256Y-10625501D01*
X31710260Y-10625501D01*
X31710261Y-10625502D01*
X31835928Y-10650500D01*
X31835931Y-10650500D01*
X31964071Y-10650500D01*
X32048615Y-10633682D01*
X32089744Y-10625501D01*
X32208127Y-10576465D01*
X32314669Y-10505276D01*
X32405276Y-10414669D01*
X32476465Y-10308127D01*
X32525501Y-10189744D01*
X32546441Y-10084475D01*
X32550500Y-10064071D01*
X32550500Y-9935929D01*
X32543354Y-9900007D01*
X32549581Y-9830415D01*
X32577288Y-9788135D01*
X32761625Y-9603798D01*
X32822947Y-9570314D01*
X32892639Y-9575298D01*
X32948572Y-9617170D01*
X32972989Y-9682634D01*
X32970922Y-9715671D01*
X32958300Y-9779126D01*
X32958300Y-9779131D01*
X32958300Y-9907269D01*
X32958300Y-9907271D01*
X32958299Y-9907271D01*
X32983297Y-10032938D01*
X32983299Y-10032944D01*
X33032333Y-10151324D01*
X33032338Y-10151333D01*
X33103523Y-10257868D01*
X33103526Y-10257872D01*
X33194127Y-10348473D01*
X33194131Y-10348476D01*
X33300666Y-10419661D01*
X33300672Y-10419664D01*
X33300673Y-10419665D01*
X33419056Y-10468701D01*
X33419060Y-10468701D01*
X33419061Y-10468702D01*
X33544728Y-10493700D01*
X33544731Y-10493700D01*
X33672871Y-10493700D01*
X33757415Y-10476882D01*
X33798544Y-10468701D01*
X33916927Y-10419665D01*
X34023469Y-10348476D01*
X34023478Y-10348466D01*
X34025867Y-10346507D01*
X34027375Y-10345866D01*
X34028534Y-10345092D01*
X34028680Y-10345311D01*
X34090174Y-10319187D01*
X34159043Y-10330971D01*
X34192223Y-10354671D01*
X37226471Y-13388919D01*
X37259956Y-13450242D01*
X37254972Y-13519934D01*
X37213100Y-13575867D01*
X37147636Y-13600284D01*
X37138790Y-13600600D01*
X32081209Y-13600600D01*
X32014170Y-13580915D01*
X31993528Y-13564281D01*
X25469429Y-7040181D01*
X25435944Y-6978858D01*
X25440928Y-6909166D01*
X25482800Y-6853233D01*
X25548264Y-6828816D01*
X25557110Y-6828500D01*
X27801490Y-6828500D01*
X27868529Y-6848185D01*
G37*
%TD.AperFunction*%
%TA.AperFunction,Conductor*%
G36*
X63019334Y-2909727D02*
G01*
X63075267Y-2951599D01*
X63099684Y-3017063D01*
X63100000Y-3025909D01*
X63100000Y-3350000D01*
X63653590Y-3350000D01*
X63650556Y-3355255D01*
X63625000Y-3450630D01*
X63625000Y-3549370D01*
X63650556Y-3644745D01*
X63653590Y-3650000D01*
X63100000Y-3650000D01*
X63100000Y-4168053D01*
X63110613Y-4256443D01*
X63166079Y-4397095D01*
X63257435Y-4517564D01*
X63377904Y-4608920D01*
X63518556Y-4664386D01*
X63606946Y-4675000D01*
X63850000Y-4675000D01*
X63850000Y-3846410D01*
X63855255Y-3849444D01*
X63950630Y-3875000D01*
X64049370Y-3875000D01*
X64144745Y-3849444D01*
X64150000Y-3846410D01*
X64150000Y-4675000D01*
X64393054Y-4675000D01*
X64481443Y-4664386D01*
X64622095Y-4608920D01*
X64742564Y-4517564D01*
X64833920Y-4397095D01*
X64889386Y-4256443D01*
X64900000Y-4168053D01*
X64900000Y-4095873D01*
X64919685Y-4028834D01*
X64972489Y-3983079D01*
X65041647Y-3973135D01*
X65105203Y-4002160D01*
X65138561Y-4048421D01*
X65201983Y-4201541D01*
X65201990Y-4201553D01*
X65300535Y-4349034D01*
X65300538Y-4349038D01*
X65425961Y-4474461D01*
X65425965Y-4474464D01*
X65573446Y-4573009D01*
X65573453Y-4573013D01*
X65687875Y-4620407D01*
X65742276Y-4664246D01*
X65764342Y-4730539D01*
X65747064Y-4798239D01*
X65728102Y-4822648D01*
X62575571Y-7975181D01*
X62514248Y-8008666D01*
X62487890Y-8011500D01*
X58114410Y-8011500D01*
X58047371Y-7991815D01*
X58001616Y-7939011D01*
X57991672Y-7869853D01*
X58020697Y-7806297D01*
X58026729Y-7799819D01*
X62888319Y-2938228D01*
X62949642Y-2904743D01*
X63019334Y-2909727D01*
G37*
%TD.AperFunction*%
%TD*%
M02*
